<?xml version="1.0" encoding="utf-8"?>
<!-- Generator: Adobe Illustrator 27.0.1, SVG Export Plug-In . SVG Version: 6.00 Build 0)  -->
<svg version="1.1" id="Ebene_1" xmlns="http://www.w3.org/2000/svg" xmlns:xlink="http://www.w3.org/1999/xlink" x="0px" y="0px"
	 viewBox="0 0 577.6 297" style="enable-background:new 0 0 577.6 297;" xml:space="preserve">
<style type="text/css">
	.st0{fill:#E61C6F;}
</style>
<path class="st0" d="M503.4,101.3c-2.1-2.4-4.6-4.6-7.2-6.5c-6.8-5-14.5-8-22.5-10.5c-3.1-1-2.9-0.9-2.4-4.3
	c1-7.1,1.9-14.3,2.3-21.5c0.3-5-0.8-9.9-3-14.5c-3.6-7.7-10.6-11.6-19-10.6c-6.6,0.8-12.5,3.5-17.9,7.2c-5.4,3.7-10.4,7.9-15.7,11.9
	c-4.4-3.5-8.7-7.2-13.3-10.5c-5.3-3.8-11-6.9-17.5-8.2c-10.5-2.2-18.9,2.4-22.5,12.5c-1,2.7-1.5,5.6-1.9,8.5
	c-1,8.5,0.2,16.9,2.1,25.2c0.9,4.2,0.8,3.3-2.5,4.4c-9.5,3.1-18.8,6.8-26.4,13.7c-10.6,9.6-10.6,21.6,0,31.2
	c1.9,1.7,3.9,3.5,6.2,4.6c5.9,3,12,5.6,18,8.4c1.6,0.7,3.4,1.2,5.3,1.8c-0.2,1.1-0.5,2.1-0.6,3c-0.8,7.1-1.9,14.1-2.4,21.2
	c-0.3,5.3,0.8,10.6,3.2,15.5c3.7,7.4,10.7,11.4,18.9,10c4.4-0.8,9.1-2,12.9-4.4c6.5-3.9,12.4-8.9,18.5-13.4c0.7-0.5,1.3-1.1,1.6-1.4
	c6.2,4.6,11.9,9.1,17.9,13.2c4.6,3.1,9.8,5.2,15.5,6c8.8,1.2,16.1-2.8,19.5-10.9c1.4-3.3,2.2-7,2.7-10.6c1.1-8.5-0.2-16.9-2.1-25.2
	c-0.2-1-0.4-2.1-0.6-3.1c1-0.4,1.8-0.6,2.6-0.9c6.1-2.6,12.5-4.7,18.3-7.9c4.4-2.4,8.6-5.8,11.9-9.6
	C510.1,118.1,509.8,108.8,503.4,101.3L503.4,101.3z M447.7,42c1.1-0.4,2.2-0.7,3.4-0.9c6.8-1.2,11.3,1.5,13.5,8.1
	c2.2,6.8,1.8,13.8,0.8,20.7c-0.4,3.3-1.2,6.5-1.8,9.8c-0.2,1.3-0.8,1.6-2.1,1.4c-7-1.2-14.1-2.2-21.1-3.4c-0.7-0.1-1.6-0.5-2.1-1.1
	c-4.8-6-9.5-12-14.4-18.3C431,51.6,438.3,45.3,447.7,42L447.7,42z M380.9,122.7c3.7,6.4,7,12.2,10.7,18.7c-5.8-1-10.9-1.9-16.5-2.9
	C377.1,133.1,378.9,128.2,380.9,122.7L380.9,122.7z M380.7,103.8c-1.8-4.9-3.6-9.7-5.5-15.1c5.6-1,10.8-1.9,16.5-2.9
	c-3.7,6.4-7,12.1-10.3,17.9C381.1,103.7,380.9,103.7,380.7,103.8L380.7,103.8z M386.1,115.3c-0.5-0.9-0.5-2.5,0-3.4
	c4.8-8.5,9.7-17,14.7-25.4c0.5-0.8,1.8-1.5,2.8-1.6c4.9-0.2,9.8-0.1,14.7-0.1c0,0,0,0,0,0c4.8,0,9.6-0.1,14.5,0.1c1,0,2.5,0.8,3,1.6
	c5,8.4,9.9,16.9,14.7,25.4c0.5,0.9,0.4,2.5-0.1,3.4c-4.8,8.5-9.6,16.9-14.6,25.2c-0.5,0.9-1.9,1.7-2.9,1.7c-9.7,0.1-19.4,0.1-29.1,0
	c-1,0-2.4-0.9-2.9-1.8C395.7,132.2,390.9,123.8,386.1,115.3L386.1,115.3z M455.5,122.7c2,5.5,3.8,10.3,5.8,15.7
	c-5.6,1-10.7,1.9-15.8,2.8c-0.1-0.2-0.2-0.4-0.3-0.7C448.5,134.8,451.8,129.1,455.5,122.7z M444.7,85.8c5.7,1,10.8,1.8,16.5,2.8
	c-2,5.4-3.8,10.3-5.8,15.8C451.8,98,448.5,92.3,444.7,85.8L444.7,85.8z M418.2,64c3.6,4.2,6.9,8.2,10.7,12.7h-21.2
	C411.3,72.2,414.6,68.3,418.2,64z M370.8,53.4c1.7-11.1,8.2-15,18.7-11.1c9.1,3.4,16.2,9.6,23.2,16.1c-0.5,0.7-0.8,1.1-1.2,1.6
	c-4.3,5.3-8.5,10.6-12.9,15.9c-0.7,0.9-1.9,1.6-3,1.8c-6.9,1.2-13.8,2.2-20.6,3.3c-1.1,0.2-1.9,0.2-2.2-1.2
	C371,71.1,369.4,62.4,370.8,53.4L370.8,53.4z M368.5,134.5c-0.5,1.3-0.9,2-2.5,1.4c-7.1-2.2-14-4.7-20.2-8.9c-2.6-1.8-5.2-4-7.2-6.4
	c-1.6-1.9-2.3-4.5-3.5-7c1.2-2.5,1.9-5.2,3.5-7c2.4-2.7,5.1-5.4,8.3-7c6.1-3.2,12.6-5.6,18.9-8.3c1.5-0.6,2.2-0.2,2.7,1.3
	c2.4,6.5,5,12.9,7.3,19.3c0.4,1,0.4,2.3,0,3.2C373.5,121.6,370.9,128,368.5,134.5L368.5,134.5z M387.5,185.5
	c-8.5,2.6-14.1-0.8-16.2-9.4c-2-8.4-0.8-16.7,0.7-24.9c1-5.4,1.1-5.2,6.5-4.3c5.4,0.9,10.8,1.7,16.2,2.4c1.8,0.2,3,0.8,4.1,2.3
	c4.4,5.7,8.9,11.3,13.6,17.3C405.1,175.8,397.5,182.5,387.5,185.5L387.5,185.5z M407.6,150.5h21.2c-3.6,4.4-6.9,8.4-10.5,12.7
	C414.6,158.9,411.3,154.9,407.6,150.5L407.6,150.5z M465.6,173.6c-1.7,11.2-8.2,15.1-18.8,11.3c-6.9-2.5-18.4-10.7-22.9-16.3
	c3.5-4.3,7.4-8.1,10.2-12.7c3.1-5,7.1-7.2,12.9-7.4c4.7-0.1,9.3-1.5,14-2.3c1.1-0.2,2.2-0.6,2.6,1.2
	C465.4,156.1,466.9,164.7,465.6,173.6L465.6,173.6z M497.2,121.2c-2.4,2.6-5.3,5.2-8.5,6.8c-5.8,3-12,5.2-18,7.8
	c-1.8,0.8-2.4,0-3-1.6c-2.3-6.3-4.8-12.5-7.2-18.9c-0.4-1-0.4-2.4,0-3.5c2.3-6.4,4.8-12.7,7.3-19.1c0.4-1.1,0.7-2.2,2.4-1.7
	c8,2.6,15.9,5.5,22.7,10.6c2.1,1.6,4,3.5,5.5,5.7c1.2,1.8,1.8,4,2.8,6.6C499.9,116.4,499,119.2,497.2,121.2L497.2,121.2z
	 M418.2,87.3c-14.5,0-26.3,11.8-26.3,26.3s11.8,26.3,26.3,26.3s26.3-11.8,26.3-26.3S432.8,87.3,418.2,87.3L418.2,87.3z M421.8,109.4
	l2.2-2.2l4,4l4-4l2.2,2.2l-4,4l4,4l-2.2,2.2l-4-4l-4,4l-2.2-2.2l4-4L421.8,109.4z M402.2,109.4l2.2-2.2l4,4l4-4l2.2,2.2l-4,4l4,4
	l-2.2,2.2l-4-4l-4,4l-2.2-2.2l4-4L402.2,109.4z M431.7,128.7c-7.9,4.1-17.3,4.3-25.4,0.6l-4.2-2c-0.9-0.4-1.1-1.6-0.5-2.3l1.9-2
	l2.6,1.3c8.5,4.2,18.4,4.4,27.1,0.6l0.1-0.1l1.8,2.1L431.7,128.7L431.7,128.7z"/>
<path class="st0" d="M184.1-118.2c-1.4-1.7-3.2-3.2-5-4.5c-4.7-3.5-10.1-5.6-15.6-7.3c-2.2-0.7-2-0.7-1.7-3c0.7-5,1.3-9.9,1.6-14.9
	c0.2-3.5-0.6-6.9-2.1-10.1c-2.5-5.4-7.3-8-13.2-7.4c-4.6,0.5-8.7,2.4-12.4,5c-3.7,2.6-7.2,5.5-10.9,8.3c-3-2.4-6.1-5-9.3-7.3
	c-3.7-2.7-7.6-4.8-12.1-5.7c-7.3-1.5-13.1,1.6-15.6,8.7c-0.7,1.9-1.1,3.9-1.3,5.9c-0.7,5.9,0.1,11.7,1.4,17.5c0.6,2.9,0.5,2.3-1.7,3
	c-6.6,2.1-13,4.7-18.3,9.5c-7.4,6.7-7.4,15,0,21.7c1.3,1.2,2.7,2.4,4.3,3.2c4.1,2.1,8.3,3.9,12.5,5.8c1.1,0.5,2.4,0.8,3.7,1.2
	c-0.2,0.8-0.4,1.4-0.4,2.1c-0.6,4.9-1.3,9.8-1.6,14.7c-0.2,3.7,0.6,7.4,2.3,10.7c2.6,5.1,7.4,7.9,13.1,6.9c3.1-0.5,6.3-1.4,8.9-3
	c4.5-2.7,8.6-6.2,12.9-9.3c0.5-0.4,0.9-0.8,1.1-0.9c4.3,3.2,8.3,6.3,12.4,9.2c3.2,2.2,6.8,3.6,10.7,4.1c6.1,0.8,11.2-1.9,13.5-7.6
	c1-2.3,1.6-4.8,1.9-7.3c0.7-5.9-0.2-11.7-1.4-17.5c-0.2-0.7-0.3-1.4-0.4-2.2c0.7-0.2,1.3-0.4,1.8-0.6c4.2-1.8,8.7-3.3,12.7-5.5
	c3.1-1.7,6-4,8.3-6.7C188.7-106.5,188.5-113,184.1-118.2L184.1-118.2z M145.5-159.3c0.8-0.3,1.5-0.5,2.3-0.6c4.7-0.8,7.8,1,9.3,5.6
	c1.6,4.7,1.2,9.6,0.6,14.4c-0.3,2.3-0.9,4.5-1.3,6.8c-0.2,0.9-0.6,1.1-1.4,0.9c-4.9-0.8-9.8-1.5-14.7-2.3c-0.5-0.1-1.1-0.4-1.4-0.8
	c-3.3-4.1-6.6-8.3-10-12.7C133.8-152.6,138.9-157,145.5-159.3L145.5-159.3z M99.1-103.3c2.6,4.5,4.9,8.5,7.5,12.9
	c-4-0.7-7.6-1.3-11.5-2C96.5-96.1,97.7-99.5,99.1-103.3L99.1-103.3z M98.9-116.5c-1.2-3.4-2.5-6.8-3.8-10.5c3.9-0.7,7.5-1.3,11.5-2
	c-2.5,4.4-4.8,8.4-7.2,12.4C99.2-116.5,99.1-116.5,98.9-116.5L98.9-116.5z M102.7-108.5c-0.3-0.6-0.4-1.7,0-2.3
	c3.3-5.9,6.7-11.8,10.2-17.7c0.3-0.6,1.2-1.1,1.9-1.1c3.4-0.1,6.8,0,10.2,0c0,0,0,0,0,0c3.3,0,6.7-0.1,10,0c0.7,0,1.7,0.5,2.1,1.1
	c3.5,5.8,6.9,11.7,10.2,17.7c0.3,0.6,0.3,1.7,0,2.3c-3.3,5.9-6.7,11.7-10.1,17.5c-0.4,0.6-1.3,1.2-2,1.2c-6.7,0.1-13.5,0.1-20.2,0
	c-0.7,0-1.7-0.6-2-1.2C109.4-96.8,106-102.6,102.7-108.5L102.7-108.5z M150.8-103.3c1.4,3.8,2.6,7.2,4,10.9c-3.9,0.7-7.4,1.3-11,2
	c-0.1-0.2-0.1-0.3-0.2-0.5C146-94.9,148.3-98.9,150.8-103.3z M143.4-128.9c4,0.7,7.5,1.3,11.5,1.9c-1.4,3.7-2.6,7.1-4,11
	C148.3-120.4,146-124.5,143.4-128.9L143.4-128.9z M124.9-144.1c2.5,2.9,4.8,5.7,7.4,8.8h-14.7C120.2-138.3,122.5-141.1,124.9-144.1z
	 M92.1-151.4c1.2-7.7,5.7-10.4,13-7.7c6.3,2.3,11.2,6.6,16.1,11.2c-0.3,0.5-0.6,0.8-0.8,1.1c-3,3.7-5.9,7.4-8.9,11
	c-0.5,0.6-1.3,1.1-2.1,1.3c-4.8,0.8-9.6,1.5-14.3,2.3c-0.8,0.1-1.3,0.1-1.5-0.8C92.2-139.1,91.1-145.2,92.1-151.4L92.1-151.4z
	 M90.5-95.2c-0.3,0.9-0.6,1.4-1.7,1c-4.9-1.5-9.7-3.3-14-6.2c-1.8-1.3-3.6-2.8-5-4.5c-1.1-1.3-1.6-3.1-2.4-4.9
	c0.8-1.8,1.3-3.6,2.4-4.8c1.7-1.9,3.6-3.7,5.7-4.9c4.2-2.2,8.7-3.9,13.1-5.8c1-0.4,1.5-0.1,1.9,0.9c1.7,4.5,3.4,8.9,5.1,13.4
	c0.2,0.7,0.2,1.6,0,2.2C93.9-104.1,92.2-99.6,90.5-95.2L90.5-95.2z M103.7-59.8c-5.9,1.8-9.8-0.5-11.2-6.5
	c-1.4-5.8-0.6-11.6,0.5-17.3c0.7-3.7,0.7-3.6,4.5-3c3.7,0.7,7.5,1.2,11.3,1.7c1.2,0.2,2.1,0.6,2.9,1.6c3,4,6.2,7.9,9.5,12
	C115.9-66.5,110.6-61.8,103.7-59.8L103.7-59.8z M117.6-84h14.7c-2.5,3-4.8,5.8-7.3,8.8C122.5-78.2,120.2-81,117.6-84L117.6-84z
	 M157.9-68c-1.2,7.8-5.7,10.5-13.1,7.8c-4.8-1.7-12.8-7.4-15.9-11.3c2.4-3,5.1-5.6,7.1-8.8c2.2-3.5,4.9-5,9-5.1
	c3.2-0.1,6.5-1,9.7-1.6c0.8-0.1,1.5-0.5,1.8,0.8C157.7-80.2,158.8-74.2,157.9-68L157.9-68z M179.8-104.4c-1.7,1.8-3.7,3.6-5.9,4.7
	c-4,2.1-8.3,3.6-12.5,5.4c-1.2,0.5-1.7,0-2.1-1.1c-1.6-4.4-3.4-8.7-5-13.1c-0.3-0.7-0.3-1.7,0-2.4c1.6-4.4,3.4-8.8,5-13.2
	c0.3-0.8,0.5-1.5,1.6-1.2c5.6,1.8,11,3.8,15.7,7.4c1.4,1.1,2.8,2.4,3.8,3.9c0.9,1.2,1.2,2.8,1.9,4.5
	C181.6-107.7,181-105.7,179.8-104.4L179.8-104.4z M125-127.9c-10.1,0-18.3,8.2-18.3,18.3s8.2,18.3,18.3,18.3s18.3-8.2,18.3-18.3
	S135.1-127.9,125-127.9L125-127.9z M127.4-112.6l1.5-1.5l2.8,2.8l2.8-2.8l1.5,1.5l-2.8,2.8l2.8,2.8l-1.5,1.5l-2.8-2.8l-2.8,2.8
	l-1.5-1.5l2.8-2.8L127.4-112.6z M113.9-112.6l1.5-1.5l2.8,2.8l2.8-2.8l1.5,1.5l-2.8,2.8l2.8,2.8l-1.5,1.5l-2.8-2.8l-2.8,2.8
	l-1.5-1.5l2.8-2.8L113.9-112.6z M134.3-99.2c-5.5,2.9-12,3-17.6,0.4l-2.9-1.4c-0.6-0.3-0.8-1.1-0.3-1.6l1.3-1.4l1.8,0.9
	c5.9,2.9,12.8,3.1,18.8,0.4l0.1,0l1.2,1.4L134.3-99.2L134.3-99.2z"/>
</svg>
