<?xml version="1.0" encoding="UTF-8"?><svg id="Ebene_2" xmlns="http://www.w3.org/2000/svg" viewBox="0 0 153.3 28.31"><g id="Ebene_1-2"><g><g><rect width="153.3" height="28.31" rx="6" ry="6" style="fill:#1d1d1b;"/><g><path d="M32.21,9.72h5.09v1.93h-3.19v1.44h2.96v1.84h-2.96v1.78h3.28v2.05h-5.18V9.72Z" style="fill:#e61c6f;"/><path d="M38.43,9.72h2.82c.56,0,1.01,.11,1.35,.33s.63,.54,.85,.96c.22,.42,.39,.9,.49,1.45,.1,.55,.15,1.13,.15,1.75,0,.97-.07,1.71-.22,2.25s-.36,.98-.62,1.34c-.27,.36-.55,.6-.86,.72-.42,.16-.79,.25-1.13,.25h-2.82V9.72Zm1.9,2.05v4.94h.47c.4,0,.68-.06,.85-.19,.17-.13,.3-.36,.39-.68,.1-.32,.14-.85,.14-1.57,0-.96-.11-1.61-.32-1.97-.21-.35-.56-.53-1.06-.53h-.47Z" style="fill:#e61c6f;"/><path d="M45.16,9.72h1.9v9.04h-1.9V9.72Z" style="fill:#e61c6f;"/><path d="M48,9.72h5.77v2.23h-1.94v6.81h-1.9v-6.81h-1.94v-2.23Z" style="fill:#e61c6f;"/><path d="M57.57,9.72h1.9v9.04h-1.9V9.72Z" style="fill:#e61c6f;"/><path d="M60.84,9.72h1.77l2.31,5v-5h1.79v9.04h-1.79l-2.3-4.96v4.96h-1.79V9.72Z" style="fill:#e61c6f;"/><path d="M74.94,15.06l1.66,.74c-.11,.69-.29,1.26-.53,1.72s-.54,.81-.89,1.04c-.36,.23-.81,.35-1.36,.35-.67,0-1.21-.14-1.64-.43s-.79-.79-1.1-1.51c-.31-.72-.46-1.64-.46-2.76,0-1.49,.27-2.64,.81-3.45,.54-.8,1.31-1.2,2.29-1.2,.77,0,1.38,.23,1.83,.69,.44,.46,.77,1.17,.99,2.12l-1.68,.55c-.06-.28-.12-.48-.18-.6-.11-.21-.24-.38-.39-.49-.15-.12-.33-.17-.52-.17-.43,0-.76,.25-.99,.76-.17,.38-.26,.97-.26,1.78,0,1,.1,1.69,.31,2.06,.21,.37,.5,.56,.87,.56s.64-.15,.82-.45c.19-.3,.32-.74,.4-1.31Z" style="fill:#e61c6f;"/><path d="M77.28,14.25c0-1.48,.28-2.62,.84-3.45s1.34-1.23,2.33-1.23,1.81,.4,2.36,1.21c.55,.81,.83,1.94,.83,3.39,0,1.06-.12,1.92-.36,2.6-.24,.68-.59,1.2-1.05,1.58-.46,.38-1.03,.56-1.71,.56s-1.27-.16-1.72-.49c-.45-.32-.82-.84-1.1-1.54-.28-.7-.42-1.58-.42-2.64Zm1.9,.01c0,.91,.12,1.57,.35,1.97,.23,.4,.54,.6,.94,.6s.72-.2,.95-.59c.22-.39,.34-1.09,.34-2.1,0-.85-.12-1.47-.35-1.86-.23-.39-.55-.59-.95-.59s-.69,.2-.92,.6c-.23,.4-.35,1.06-.35,1.98Z" style="fill:#e61c6f;"/><path d="M84.7,9.72h2.82c.56,0,1.01,.11,1.35,.33s.63,.54,.85,.96c.22,.42,.39,.9,.49,1.45,.1,.55,.15,1.13,.15,1.75,0,.97-.07,1.71-.22,2.25s-.36,.98-.62,1.34c-.27,.36-.55,.6-.86,.72-.42,.16-.79,.25-1.13,.25h-2.82V9.72Zm1.9,2.05v4.94h.47c.4,0,.68-.06,.85-.19,.17-.13,.3-.36,.39-.68,.1-.32,.14-.85,.14-1.57,0-.96-.11-1.61-.32-1.97-.21-.35-.56-.53-1.06-.53h-.47Z" style="fill:#e61c6f;"/><path d="M91.35,9.72h5.09v1.93h-3.19v1.44h2.96v1.84h-2.96v1.78h3.28v2.05h-5.18V9.72Z" style="fill:#e61c6f;"/><path d="M97.22,15.77l1.81-.17c.04,.43,.12,.76,.24,.99,.2,.37,.48,.55,.84,.55,.27,0,.48-.09,.63-.28,.15-.19,.22-.4,.22-.65s-.07-.44-.21-.63-.46-.36-.97-.52c-.83-.28-1.43-.64-1.78-1.1-.36-.46-.54-1.04-.54-1.74,0-.46,.09-.9,.27-1.32s.46-.74,.83-.97c.37-.24,.87-.35,1.51-.35,.79,0,1.38,.21,1.8,.64,.41,.43,.66,1.11,.74,2.05l-1.79,.15c-.05-.41-.15-.7-.3-.89-.15-.18-.36-.28-.63-.28-.22,0-.39,.07-.5,.21-.11,.14-.17,.31-.17,.5,0,.14,.05,.27,.14,.39,.09,.12,.3,.23,.64,.33,.83,.26,1.42,.53,1.78,.8s.62,.6,.78,1c.16,.4,.25,.84,.25,1.34,0,.58-.11,1.11-.33,1.6-.22,.49-.52,.86-.91,1.11-.39,.25-.88,.38-1.48,.38-1.05,0-1.77-.3-2.17-.89s-.63-1.34-.68-2.26Z" style="fill:#e61c6f;"/><path d="M107.53,17.27h-2.16l-.3,1.49h-1.94l2.31-9.04h2.07l2.31,9.04h-1.99l-.31-1.49Zm-.39-1.95l-.68-3.25-.67,3.25h1.35Z" style="fill:#e61c6f;"/><path d="M110.44,9.72h1.77l2.31,5v-5h1.79v9.04h-1.79l-2.3-4.96v4.96h-1.79V9.72Z" style="fill:#e61c6f;"/><path d="M117.6,9.72h2.82c.56,0,1.01,.11,1.35,.33s.63,.54,.85,.96c.22,.42,.39,.9,.49,1.45,.1,.55,.15,1.13,.15,1.75,0,.97-.07,1.71-.22,2.25s-.36,.98-.62,1.34c-.27,.36-.55,.6-.86,.72-.42,.16-.79,.25-1.13,.25h-2.82V9.72Zm1.9,2.05v4.94h.47c.4,0,.68-.06,.85-.19,.17-.13,.3-.36,.39-.68,.1-.32,.14-.85,.14-1.57,0-.96-.11-1.61-.32-1.97-.21-.35-.56-.53-1.06-.53h-.47Z" style="fill:#e61c6f;"/><path d="M124.26,9.72h3.55c.59,0,1.05,.22,1.36,.65s.48,.97,.48,1.6c0,.53-.11,.99-.34,1.37-.15,.25-.37,.46-.66,.6,.44,.16,.77,.42,.97,.8,.21,.38,.31,.86,.31,1.43,0,.47-.07,.89-.22,1.26-.15,.37-.35,.67-.61,.89-.16,.14-.4,.23-.72,.3-.43,.08-.71,.12-.85,.12h-3.28V9.72Zm1.92,3.54h.83c.3,0,.5-.07,.62-.22,.12-.15,.17-.37,.17-.65,0-.26-.06-.47-.17-.62-.12-.15-.32-.22-.61-.22h-.84v1.71Zm0,3.55h.97c.33,0,.56-.09,.69-.26,.13-.17,.2-.4,.2-.69,0-.27-.07-.48-.2-.64-.13-.16-.37-.24-.7-.24h-.96v1.83Z" style="fill:#e61c6f;"/><path d="M130.7,14.25c0-1.48,.28-2.62,.84-3.45s1.34-1.23,2.33-1.23,1.81,.4,2.36,1.21c.55,.81,.83,1.94,.83,3.39,0,1.06-.12,1.92-.36,2.6-.24,.68-.59,1.2-1.05,1.58-.46,.38-1.03,.56-1.71,.56s-1.27-.16-1.72-.49c-.45-.32-.82-.84-1.1-1.54-.28-.7-.42-1.58-.42-2.64Zm1.9,.01c0,.91,.12,1.57,.35,1.97,.23,.4,.54,.6,.94,.6s.72-.2,.95-.59c.22-.39,.34-1.09,.34-2.1,0-.85-.12-1.47-.35-1.86-.23-.39-.55-.59-.95-.59s-.69,.2-.92,.6c-.23,.4-.35,1.06-.35,1.98Z" style="fill:#e61c6f;"/><path d="M137.22,9.72h2.09l1.09,2.78,1.06-2.78h2.07l-1.91,4.38,2.09,4.66h-2.13l-1.21-2.9-1.21,2.9h-2.12l2.12-4.71-1.93-4.33Z" style="fill:#e61c6f;"/></g></g><path d="M14.94,4.94c-5.09,0-9.22,4.13-9.22,9.22s4.13,9.22,9.22,9.22,9.22-4.13,9.22-9.22S20.03,4.94,14.94,4.94Zm1.21,7.71l.76-.76,1.41,1.41,1.41-1.41,.76,.76-1.41,1.41,1.41,1.41-.76,.76-1.41-1.41-1.41,1.41-.76-.76,1.41-1.41-1.41-1.41Zm-6.8,0l.76-.76,1.41,1.41,1.41-1.41,.76,.76-1.41,1.41,1.41,1.41-.76,.76-1.41-1.41-1.41,1.41-.76-.76,1.41-1.41-1.41-1.41Zm10.28,6.75c-2.77,1.46-6.04,1.51-8.87,.2l-1.46-.71c-.3-.15-.4-.55-.15-.81l.65-.71,.91,.45c2.97,1.46,6.45,1.56,9.47,.2h.05l.6,.71-1.21,.65Z" style="fill:#e61c6f;"/></g></g></svg>