<?xml version="1.0" encoding="UTF-8"?><svg id="Ebene_2" xmlns="http://www.w3.org/2000/svg" viewBox="0 0 151.83 28.31"><g id="Ebene_1-2"><g><g><rect width="151.83" height="28.31" rx="6" ry="6" style="fill:#1d1d1b;"/><path d="M14.94,4.94c-5.09,0-9.22,4.13-9.22,9.22s4.13,9.22,9.22,9.22,9.22-4.13,9.22-9.22S20.03,4.94,14.94,4.94Zm1.21,7.71l.76-.76,1.41,1.41,1.41-1.41,.76,.76-1.41,1.41,1.41,1.41-.76,.76-1.41-1.41-1.41,1.41-.76-.76,1.41-1.41-1.41-1.41Zm-6.8,0l.76-.76,1.41,1.41,1.41-1.41,.76,.76-1.41,1.41,1.41,1.41-.76,.76-1.41-1.41-1.41,1.41-.76-.76,1.41-1.41-1.41-1.41Zm10.28,6.75c-2.77,1.46-6.04,1.51-8.87,.2l-1.46-.71c-.3-.15-.4-.55-.15-.81l.65-.71,.91,.45c2.97,1.46,6.45,1.56,9.47,.2h.05l.6,.71-1.21,.65Z" style="fill:#e61c6f;"/></g><g><path d="M31.38,9.64h1.9v3.16h2.07v-3.16h1.91v9.04h-1.91v-3.66h-2.07v3.66h-1.9V9.64Z" style="fill:#e61c6f;"/><path d="M38.28,14.16c0-1.48,.28-2.62,.84-3.45s1.34-1.23,2.33-1.23,1.81,.4,2.36,1.21c.55,.81,.83,1.94,.83,3.39,0,1.06-.12,1.92-.36,2.6-.24,.68-.59,1.2-1.05,1.58-.46,.38-1.03,.56-1.71,.56s-1.27-.16-1.72-.49c-.45-.32-.82-.84-1.1-1.54-.28-.7-.42-1.58-.42-2.64Zm1.9,.01c0,.91,.12,1.57,.35,1.97s.54,.6,.94,.6,.72-.19,.95-.59c.22-.39,.34-1.09,.34-2.1,0-.85-.12-1.47-.35-1.86-.23-.39-.55-.59-.95-.59s-.69,.2-.92,.6c-.23,.4-.35,1.06-.35,1.98Z" style="fill:#e61c6f;"/><path d="M44.89,9.64h1.8l.65,5.06,.95-5.06h1.8l.95,5.05,.65-5.05h1.79l-1.35,9.04h-1.86l-1.08-5.69-1.07,5.69h-1.86l-1.37-9.04Z" style="fill:#e61c6f;"/><path d="M56.54,9.64h5.77v2.23h-1.94v6.81h-1.9v-6.81h-1.94v-2.23Z" style="fill:#e61c6f;"/><path d="M62.64,14.16c0-1.48,.28-2.62,.84-3.45s1.34-1.23,2.33-1.23,1.81,.4,2.36,1.21c.55,.81,.83,1.94,.83,3.39,0,1.06-.12,1.92-.36,2.6-.24,.68-.59,1.2-1.05,1.58-.46,.38-1.03,.56-1.71,.56s-1.27-.16-1.72-.49c-.45-.32-.82-.84-1.1-1.54-.28-.7-.42-1.58-.42-2.64Zm1.9,.01c0,.91,.12,1.57,.35,1.97s.54,.6,.94,.6,.72-.19,.95-.59c.22-.39,.34-1.09,.34-2.1,0-.85-.12-1.47-.35-1.86-.23-.39-.55-.59-.95-.59s-.69,.2-.92,.6c-.23,.4-.35,1.06-.35,1.98Z" style="fill:#e61c6f;"/><path d="M76.99,14.97l1.66,.74c-.11,.69-.29,1.26-.53,1.72s-.54,.81-.89,1.04c-.36,.23-.81,.35-1.36,.35-.67,0-1.21-.14-1.64-.43s-.79-.79-1.1-1.51c-.31-.72-.46-1.64-.46-2.76,0-1.49,.27-2.64,.81-3.45,.54-.8,1.31-1.2,2.29-1.2,.77,0,1.38,.23,1.83,.69s.77,1.17,.99,2.12l-1.68,.55c-.06-.28-.12-.48-.18-.6-.11-.21-.24-.38-.39-.49-.15-.11-.33-.17-.52-.17-.43,0-.76,.25-.99,.76-.17,.38-.26,.97-.26,1.78,0,1,.1,1.69,.31,2.06,.21,.37,.5,.56,.87,.56s.64-.15,.82-.45c.19-.3,.32-.74,.4-1.31Z" style="fill:#e61c6f;"/><path d="M79.33,14.16c0-1.48,.28-2.62,.84-3.45s1.34-1.23,2.33-1.23,1.81,.4,2.36,1.21c.55,.81,.83,1.94,.83,3.39,0,1.06-.12,1.92-.36,2.6-.24,.68-.59,1.2-1.05,1.58-.46,.38-1.03,.56-1.71,.56s-1.27-.16-1.72-.49c-.45-.32-.82-.84-1.1-1.54-.28-.7-.42-1.58-.42-2.64Zm1.9,.01c0,.91,.12,1.57,.35,1.97s.54,.6,.94,.6,.72-.19,.95-.59c.22-.39,.34-1.09,.34-2.1,0-.85-.12-1.47-.35-1.86-.23-.39-.55-.59-.95-.59s-.69,.2-.92,.6c-.23,.4-.35,1.06-.35,1.98Z" style="fill:#e61c6f;"/><path d="M86.74,9.64h1.77l2.31,5v-5h1.79v9.04h-1.79l-2.3-4.96v4.96h-1.79V9.64Z" style="fill:#e61c6f;"/><path d="M93.44,9.64h5.77v2.23h-1.94v6.81h-1.9v-6.81h-1.94v-2.23Z" style="fill:#e61c6f;"/><path d="M100.1,18.67V9.64h3.16c.59,0,1.04,.07,1.35,.22s.56,.42,.75,.82c.19,.4,.28,.89,.28,1.46,0,.5-.07,.93-.22,1.3-.15,.36-.35,.66-.6,.88-.16,.14-.38,.26-.67,.36,.23,.11,.39,.22,.49,.33,.07,.07,.17,.23,.3,.48,.13,.24,.22,.43,.27,.56l.92,2.62h-2.15l-1.01-2.76c-.13-.36-.24-.59-.34-.7-.14-.14-.29-.21-.47-.21h-.17v3.67h-1.91Zm1.91-5.38h.8c.09,0,.25-.04,.5-.12,.13-.04,.23-.13,.31-.28s.12-.33,.12-.52c0-.29-.06-.52-.19-.67-.13-.16-.36-.23-.71-.23h-.83v1.84Z" style="fill:#e61c6f;"/><path d="M106.83,9.64h1.9v9.04h-1.9V9.64Z" style="fill:#e61c6f;"/><path d="M110.1,9.64h3.55c.59,0,1.05,.22,1.36,.65s.48,.97,.48,1.6c0,.53-.11,.99-.34,1.37-.15,.25-.37,.46-.66,.6,.44,.16,.77,.42,.97,.8,.21,.38,.31,.86,.31,1.43,0,.47-.07,.89-.22,1.26-.15,.37-.35,.67-.61,.89-.16,.14-.4,.23-.72,.3-.43,.08-.71,.12-.85,.12h-3.28V9.64Zm1.92,3.54h.83c.3,0,.5-.07,.62-.22s.17-.37,.17-.65c0-.26-.06-.47-.17-.62-.12-.15-.32-.22-.61-.22h-.84v1.71Zm0,3.55h.97c.33,0,.56-.09,.69-.26s.2-.4,.2-.69c0-.27-.07-.48-.2-.64-.13-.16-.37-.24-.7-.24h-.96v1.83Z" style="fill:#e61c6f;"/><path d="M120.55,9.64h1.89v5.38c0,.53-.06,1.04-.17,1.51s-.29,.89-.53,1.24-.5,.6-.76,.75c-.37,.2-.81,.3-1.33,.3-.3,0-.63-.03-.98-.09s-.65-.18-.89-.37c-.24-.18-.45-.44-.65-.78-.2-.34-.33-.68-.4-1.04-.12-.58-.18-1.08-.18-1.53v-5.38h1.89v5.51c0,.49,.09,.88,.28,1.15,.19,.28,.44,.42,.77,.42s.58-.14,.77-.41c.19-.27,.28-.66,.28-1.16v-5.51Z" style="fill:#e61c6f;"/><path d="M123.27,9.64h5.77v2.23h-1.94v6.81h-1.9v-6.81h-1.94v-2.23Z" style="fill:#e61c6f;"/><path d="M129.89,9.64h5.09v1.93h-3.19v1.44h2.96v1.84h-2.96v1.78h3.28v2.05h-5.18V9.64Z" style="fill:#e61c6f;"/></g></g></g></svg>