<?xml version="1.0" encoding="utf-8"?>
<!-- Generator: Adobe Illustrator 26.5.1, SVG Export Plug-In . SVG Version: 6.00 Build 0)  -->
<svg version="1.1" id="Ebene_1" xmlns="http://www.w3.org/2000/svg" xmlns:xlink="http://www.w3.org/1999/xlink" x="0px" y="0px"
	 viewBox="0 0 577.6 297" style="enable-background:new 0 0 577.6 297;" xml:space="preserve">
<style type="text/css">
	.st0{fill:#E61C6F;}
	.st1{fill:#1D1D1B;}
	.st2{fill:none;stroke:#E61C6F;stroke-width:2;stroke-miterlimit:10;}
	.st3{fill:#00BA96;}
	.st4{fill:#009E80;}
	.st5{fill:#FFFFFF;}
	.st6{fill:#1D1D1D;}
</style>
<path class="st0" d="M568-109.3c-2.1-2.4-4.6-4.6-7.2-6.5c-6.8-5-14.5-8-22.5-10.5c-3.1-1-2.9-0.9-2.4-4.3c1-7.1,1.9-14.3,2.3-21.5
	c0.3-5-0.8-9.9-3-14.5c-3.6-7.7-10.6-11.6-19-10.6c-6.6,0.8-12.5,3.5-17.9,7.2s-10.4,7.9-15.7,11.9c-4.4-3.5-8.7-7.2-13.3-10.5
	c-5.3-3.8-11-6.9-17.5-8.2c-10.5-2.2-18.9,2.4-22.5,12.5c-1,2.7-1.5,5.6-1.9,8.5c-1,8.5,0.2,16.9,2.1,25.2c0.9,4.2,0.8,3.3-2.5,4.4
	c-9.5,3.1-18.8,6.8-26.4,13.7c-10.6,9.6-10.6,21.6,0,31.2c1.9,1.7,3.9,3.5,6.2,4.6c5.9,3,12,5.6,18,8.4c1.6,0.7,3.4,1.2,5.3,1.8
	c-0.2,1.1-0.5,2.1-0.6,3c-0.8,7.1-1.9,14.1-2.4,21.2c-0.3,5.3,0.8,10.6,3.2,15.5c3.7,7.4,10.7,11.4,18.9,10c4.4-0.8,9.1-2,12.9-4.4
	c6.5-3.9,12.4-8.9,18.5-13.4c0.7-0.5,1.3-1.1,1.6-1.4c6.2,4.6,11.9,9.1,17.9,13.2c4.6,3.1,9.8,5.2,15.5,6
	c8.8,1.2,16.1-2.8,19.5-10.9c1.4-3.3,2.2-7,2.7-10.6c1.1-8.5-0.2-16.9-2.1-25.2c-0.2-1-0.4-2.1-0.6-3.1c1-0.4,1.8-0.6,2.6-0.9
	c6.1-2.6,12.5-4.7,18.3-7.9c4.4-2.4,8.6-5.8,11.9-9.6C574.7-92.5,574.4-101.8,568-109.3L568-109.3z M512.3-168.6
	c1.1-0.4,2.2-0.7,3.4-0.9c6.8-1.2,11.3,1.5,13.5,8.1c2.2,6.8,1.8,13.8,0.8,20.7c-0.4,3.3-1.2,6.5-1.8,9.8c-0.2,1.3-0.8,1.6-2.1,1.4
	c-7-1.2-14.1-2.2-21.1-3.4c-0.7-0.1-1.6-0.5-2.1-1.1c-4.8-6-9.5-12-14.4-18.3C495.6-159,502.9-165.3,512.3-168.6L512.3-168.6z
	 M445.5-87.9c3.7,6.4,7,12.2,10.7,18.7c-5.8-1-10.9-1.9-16.5-2.9C441.7-77.5,443.5-82.4,445.5-87.9L445.5-87.9z M445.3-106.8
	c-1.8-4.9-3.6-9.7-5.5-15.1c5.6-1,10.8-1.9,16.5-2.9c-3.7,6.4-7,12.1-10.3,17.9C445.7-106.9,445.5-106.9,445.3-106.8L445.3-106.8z
	 M450.7-95.3c-0.5-0.9-0.5-2.5,0-3.4c4.8-8.5,9.7-17,14.7-25.4c0.5-0.8,1.8-1.5,2.8-1.6c4.9-0.2,9.8-0.1,14.7-0.1l0,0
	c4.8,0,9.6-0.1,14.5,0.1c1,0,2.5,0.8,3,1.6c5,8.4,9.9,16.9,14.7,25.4c0.5,0.9,0.4,2.5-0.1,3.4c-4.8,8.5-9.6,16.9-14.6,25.2
	c-0.5,0.9-1.9,1.7-2.9,1.7c-9.7,0.1-19.4,0.1-29.1,0c-1,0-2.4-0.9-2.9-1.8C460.3-78.4,455.5-86.8,450.7-95.3L450.7-95.3z
	 M520.1-87.9c2,5.5,3.8,10.3,5.8,15.7c-5.6,1-10.7,1.9-15.8,2.8c-0.1-0.2-0.2-0.4-0.3-0.7C513.1-75.8,516.4-81.5,520.1-87.9z
	 M509.3-124.8c5.7,1,10.8,1.8,16.5,2.8c-2,5.4-3.8,10.3-5.8,15.8C516.4-112.6,513.1-118.3,509.3-124.8L509.3-124.8z M482.8-146.6
	c3.6,4.2,6.9,8.2,10.7,12.7h-21.2C475.9-138.4,479.2-142.3,482.8-146.6z M435.4-157.2c1.7-11.1,8.2-15,18.7-11.1
	c9.1,3.4,16.2,9.6,23.2,16.1c-0.5,0.7-0.8,1.1-1.2,1.6c-4.3,5.3-8.5,10.6-12.9,15.9c-0.7,0.9-1.9,1.6-3,1.8
	c-6.9,1.2-13.8,2.2-20.6,3.3c-1.1,0.2-1.9,0.2-2.2-1.2C435.6-139.5,434-148.2,435.4-157.2L435.4-157.2z M433.1-76.1
	c-0.5,1.3-0.9,2-2.5,1.4c-7.1-2.2-14-4.7-20.2-8.9c-2.6-1.8-5.2-4-7.2-6.4c-1.6-1.9-2.3-4.5-3.5-7c1.2-2.5,1.9-5.2,3.5-7
	c2.4-2.7,5.1-5.4,8.3-7c6.1-3.2,12.6-5.6,18.9-8.3c1.5-0.6,2.2-0.2,2.7,1.3c2.4,6.5,5,12.9,7.3,19.3c0.4,1,0.4,2.3,0,3.2
	C438.1-89,435.5-82.6,433.1-76.1L433.1-76.1z M452.1-25.1c-8.5,2.6-14.1-0.8-16.2-9.4c-2-8.4-0.8-16.7,0.7-24.9
	c1-5.4,1.1-5.2,6.5-4.3s10.8,1.7,16.2,2.4c1.8,0.2,3,0.8,4.1,2.3c4.4,5.7,8.9,11.3,13.6,17.3C469.7-34.8,462.1-28.1,452.1-25.1
	L452.1-25.1z M472.2-60.1h21.2c-3.6,4.4-6.9,8.4-10.5,12.7C479.2-51.7,475.9-55.7,472.2-60.1L472.2-60.1z M530.2-37
	c-1.7,11.2-8.2,15.1-18.8,11.3c-6.9-2.5-18.4-10.7-22.9-16.3c3.5-4.3,7.4-8.1,10.2-12.7c3.1-5,7.1-7.2,12.9-7.4
	c4.7-0.1,9.3-1.5,14-2.3c1.1-0.2,2.2-0.6,2.6,1.2C530-54.5,531.5-45.9,530.2-37L530.2-37z M561.8-89.4c-2.4,2.6-5.3,5.2-8.5,6.8
	c-5.8,3-12,5.2-18,7.8c-1.8,0.8-2.4,0-3-1.6c-2.3-6.3-4.8-12.5-7.2-18.9c-0.4-1-0.4-2.4,0-3.5c2.3-6.4,4.8-12.7,7.3-19.1
	c0.4-1.1,0.7-2.2,2.4-1.7c8,2.6,15.9,5.5,22.7,10.6c2.1,1.6,4,3.5,5.5,5.7c1.2,1.8,1.8,4,2.8,6.6C564.5-94.2,563.6-91.4,561.8-89.4
	L561.8-89.4z M482.8-123.3c-14.5,0-26.3,11.8-26.3,26.3s11.8,26.3,26.3,26.3s26.3-11.8,26.3-26.3S497.4-123.3,482.8-123.3
	L482.8-123.3z M486.4-101.2l2.2-2.2l4,4l4-4l2.2,2.2l-4,4l4,4l-2.2,2.2l-4-4l-4,4l-2.2-2.2l4-4L486.4-101.2z M466.8-101.2l2.2-2.2
	l4,4l4-4l2.2,2.2l-4,4l4,4L477-91l-4-4l-4,4l-2.2-2.2l4-4L466.8-101.2z M496.3-81.9c-7.9,4.1-17.3,4.3-25.4,0.6l-4.2-2
	c-0.9-0.4-1.1-1.6-0.5-2.3l1.9-2l2.6,1.3c8.5,4.2,18.4,4.4,27.1,0.6l0.1-0.1l1.8,2.1L496.3-81.9L496.3-81.9z"/>
<path class="st1" d="M374.9-59.4c-1.8-2-3.9-3.9-6.1-5.5c-5.8-4.2-12.3-6.8-19.1-8.9c-2.6-0.8-2.5-0.8-2-3.6c0.8-6,1.6-12.1,2-18.2
	c0.3-4.2-0.7-8.4-2.5-12.3c-3.1-6.5-9-9.8-16.1-9c-5.6,0.7-10.6,3-15.2,6.1c-4.6,3.1-8.8,6.7-13.3,10.1c-3.7-3-7.4-6.1-11.3-8.9
	c-4.5-3.2-9.3-5.9-14.8-7c-8.9-1.9-16,2-19.1,10.6c-0.8,2.3-1.3,4.8-1.6,7.2c-0.8,7.2,0.2,14.3,1.8,21.4c0.8,3.6,0.7,2.8-2.1,3.7
	c-8.1,2.6-15.9,5.8-22.4,11.6c-9,8.1-9,18.3,0,26.5c1.6,1.4,3.3,3,5.3,3.9c5,2.5,10.2,4.8,15.3,7.1c1.4,0.6,2.9,1,4.5,1.5
	c-0.2,0.9-0.4,1.8-0.5,2.5c-0.7,6-1.6,12-2,18c-0.3,4.5,0.7,9,2.7,13.1c3.1,6.3,9.1,9.7,16,8.5c3.7-0.7,7.7-1.7,10.9-3.7
	c5.5-3.3,10.5-7.5,15.7-11.4c0.6-0.4,1.1-0.9,1.4-1.2c5.3,3.9,10.1,7.7,15.2,11.2c3.9,2.6,8.3,4.4,13.1,5.1c7.5,1,13.7-2.4,16.5-9.2
	c1.2-2.8,1.9-5.9,2.3-9c0.9-7.2-0.2-14.3-1.8-21.4c-0.2-0.8-0.3-1.8-0.5-2.6c0.8-0.3,1.5-0.5,2.2-0.8c5.2-2.2,10.6-4,15.5-6.7
	c3.7-2,7.3-4.9,10.1-8.1C380.5-45.2,380.3-53.1,374.9-59.4L374.9-59.4z M327.6-109.7c0.9-0.3,1.9-0.6,2.9-0.8
	c5.8-1,9.6,1.3,11.5,6.9c1.9,5.8,1.5,11.7,0.7,17.6c-0.3,2.8-1,5.5-1.5,8.3c-0.2,1.1-0.7,1.4-1.8,1.2c-5.9-1-12-1.9-17.9-2.9
	c-0.6-0.1-1.4-0.4-1.8-0.9c-4.1-5.1-8.1-10.2-12.2-15.5C313.5-101.6,319.6-106.9,327.6-109.7L327.6-109.7z M271-41.3
	c3.1,5.4,5.9,10.3,9.1,15.9c-4.9-0.8-9.2-1.6-14-2.5C267.7-32.5,269.3-36.6,271-41.3L271-41.3z M270.8-57.3
	c-1.5-4.2-3.1-8.2-4.7-12.8c4.8-0.8,9.2-1.6,14-2.5c-3.1,5.4-5.9,10.3-8.7,15.2C271.1-57.4,271-57.4,270.8-57.3L270.8-57.3z
	 M275.4-47.6c-0.4-0.8-0.4-2.1,0-2.9c4.1-7.2,8.2-14.4,12.5-21.5c0.4-0.7,1.5-1.3,2.4-1.4c4.2-0.2,8.3-0.1,12.5-0.1l0,0
	c4.1,0,8.1-0.1,12.3,0.1c0.8,0,2.1,0.7,2.5,1.4c4.2,7.1,8.4,14.3,12.5,21.5c0.4,0.8,0.3,2.1-0.1,2.9c-4.1,7.2-8.1,14.3-12.4,21.4
	c-0.4,0.8-1.6,1.4-2.5,1.4c-8.2,0.1-16.5,0.1-24.7,0c-0.8,0-2-0.8-2.5-1.5C283.5-33.2,279.4-40.4,275.4-47.6L275.4-47.6z
	 M334.2-41.3c1.7,4.7,3.2,8.7,4.9,13.3c-4.8,0.8-9.1,1.6-13.4,2.4c-0.1-0.2-0.2-0.3-0.3-0.6C328.3-31,331.1-35.9,334.2-41.3z
	 M325.1-72.6c4.8,0.8,9.2,1.5,14,2.4c-1.7,4.6-3.2,8.7-4.9,13.4C331.1-62.2,328.3-67.1,325.1-72.6L325.1-72.6z M302.6-91.1
	c3.1,3.6,5.9,7,9.1,10.8h-18C296.7-84.1,299.5-87.4,302.6-91.1z M262.4-100.1c1.4-9.4,7-12.7,15.9-9.4c7.7,2.9,13.7,8.1,19.7,13.7
	c-0.4,0.6-0.7,0.9-1,1.4c-3.6,4.5-7.2,9-10.9,13.5c-0.6,0.8-1.6,1.4-2.5,1.5c-5.9,1-11.7,1.9-17.5,2.8c-0.9,0.2-1.6,0.2-1.9-1
	C262.6-85.1,261.2-92.4,262.4-100.1L262.4-100.1z M260.4-31.3c-0.4,1.1-0.8,1.7-2.1,1.2c-6-1.9-11.9-4-17.1-7.5
	c-2.2-1.5-4.4-3.4-6.1-5.4c-1.4-1.6-2-3.8-3-5.9c1-2.1,1.6-4.4,3-5.9c2-2.3,4.3-4.6,7-5.9c5.2-2.7,10.7-4.8,16-7
	c1.3-0.5,1.9-0.2,2.3,1.1c2,5.5,4.2,10.9,6.2,16.4c0.3,0.8,0.3,2,0,2.7C264.7-42.2,262.5-36.8,260.4-31.3L260.4-31.3z M276.6,12
	c-7.2,2.2-12-0.7-13.7-8c-1.7-7.1-0.7-14.2,0.6-21.1c0.8-4.6,0.9-4.4,5.5-3.6s9.2,1.4,13.7,2c1.5,0.2,2.5,0.7,3.5,2
	c3.7,4.8,7.5,9.6,11.5,14.7C291.5,3.7,285,9.4,276.6,12L276.6,12z M293.6-17.7h18c-3.1,3.7-5.9,7.1-8.9,10.8
	C299.5-10.6,296.7-14,293.6-17.7L293.6-17.7z M342.8,1.9c-1.4,9.5-7,12.8-15.9,9.6c-5.9-2.1-15.6-9.1-19.4-13.8
	c3-3.6,6.3-6.9,8.7-10.8c2.6-4.2,6-6.1,10.9-6.3c4-0.1,7.9-1.3,11.9-2c0.9-0.2,1.9-0.5,2.2,1C342.6-13,343.9-5.7,342.8,1.9
	L342.8,1.9z M369.6-42.6c-2,2.2-4.5,4.4-7.2,5.8c-4.9,2.5-10.2,4.4-15.3,6.6c-1.5,0.7-2,0-2.5-1.4c-2-5.3-4.1-10.6-6.1-16
	c-0.3-0.8-0.3-2,0-3c2-5.4,4.1-10.8,6.2-16.2c0.3-0.9,0.6-1.9,2-1.4c6.8,2.2,13.5,4.7,19.3,9c1.8,1.4,3.4,3,4.7,4.8
	c1,1.5,1.5,3.4,2.4,5.6C371.9-46.6,371.1-44.3,369.6-42.6L369.6-42.6z M302.6-71.3c-12.3,0-22.3,10-22.3,22.3s10,22.3,22.3,22.3
	s22.3-10,22.3-22.3S315-71.3,302.6-71.3L302.6-71.3z M305.6-52.6l1.9-1.9l3.4,3.4l3.4-3.4l1.9,1.9l-3.4,3.4l3.4,3.4l-1.9,1.9
	l-3.4-3.4l-3.4,3.4l-1.9-1.9l3.4-3.4L305.6-52.6z M289-52.6l1.9-1.9l3.4,3.4l3.4-3.4l1.9,1.9l-3.4,3.4l3.4,3.4l-1.9,1.9l-3.4-3.4
	l-3.4,3.4l-1.9-1.9l3.4-3.4L289-52.6z M314-36.2c-6.7,3.5-14.7,3.6-21.5,0.5l-3.6-1.7c-0.8-0.3-0.9-1.4-0.4-2l1.6-1.7l2.2,1.1
	c7.2,3.6,15.6,3.7,23,0.5l0.1-0.1l1.5,1.8L314-36.2L314-36.2z"/>
<path class="st1" d="M383.7-197.6c-11.6,0-21,9.4-21,21c0,11.6,9.4,21,21,21c11.6,0,21-9.4,21-21
	C404.7-188.2,395.3-197.6,383.7-197.6z M386.5-180.1l1.7-1.7l3.2,3.2l3.2-3.2l1.7,1.7l-3.2,3.2l3.2,3.2l-1.7,1.7l-3.2-3.2l-3.2,3.2
	l-1.7-1.7l3.2-3.2L386.5-180.1z M371-180.1l1.7-1.7l3.2,3.2l3.2-3.2l1.7,1.7l-3.2,3.2l3.2,3.2l-1.7,1.7l-3.2-3.2l-3.2,3.2l-1.7-1.7
	l3.2-3.2L371-180.1z M394.4-164.7c-6.3,3.3-13.8,3.4-20.2,0.5l-3.3-1.6c-0.7-0.3-0.9-1.3-0.3-1.8l1.5-1.6l2.1,1
	c6.8,3.3,14.7,3.6,21.6,0.5h0.1l1.4,1.6L394.4-164.7z"/>
<g>
	<g>
		<path class="st1" d="M759.2-138.7H617.9c-3.3,0-6-2.7-6-6v-16.3c0-3.3,2.7-6,6-6h141.3c3.3,0,6,2.7,6,6v16.3
			C765.2-141.4,762.5-138.7,759.2-138.7z"/>
		<g>
			<path class="st0" d="M644.1-157.3h5.1v1.9H646v1.4h3v1.8h-3v1.8h3.3v2h-5.2V-157.3z"/>
			<path class="st0" d="M650.3-157.3h2.8c0.6,0,1,0.1,1.3,0.3c0.3,0.2,0.6,0.5,0.8,1c0.2,0.4,0.4,0.9,0.5,1.4
				c0.1,0.6,0.2,1.1,0.2,1.8c0,1-0.1,1.7-0.2,2.2c-0.1,0.5-0.4,1-0.6,1.3c-0.3,0.4-0.6,0.6-0.9,0.7c-0.4,0.2-0.8,0.2-1.1,0.2h-2.8
				V-157.3z M652.2-155.3v4.9h0.5c0.4,0,0.7-0.1,0.8-0.2c0.2-0.1,0.3-0.4,0.4-0.7c0.1-0.3,0.1-0.8,0.1-1.6c0-1-0.1-1.6-0.3-2
				c-0.2-0.4-0.6-0.5-1.1-0.5H652.2z"/>
			<path class="st0" d="M657.1-157.3h1.9v9h-1.9V-157.3z"/>
			<path class="st0" d="M659.9-157.3h5.8v2.2h-1.9v6.8h-1.9v-6.8h-1.9V-157.3z"/>
			<path class="st0" d="M669.5-157.3h1.9v9h-1.9V-157.3z"/>
			<path class="st0" d="M672.7-157.3h1.8l2.3,5v-5h1.8v9h-1.8l-2.3-5v5h-1.8V-157.3z"/>
			<path class="st0" d="M686.8-152l1.7,0.7c-0.1,0.7-0.3,1.3-0.5,1.7c-0.2,0.5-0.5,0.8-0.9,1c-0.4,0.2-0.8,0.4-1.4,0.4
				c-0.7,0-1.2-0.1-1.6-0.4c-0.4-0.3-0.8-0.8-1.1-1.5c-0.3-0.7-0.5-1.6-0.5-2.8c0-1.5,0.3-2.6,0.8-3.4c0.5-0.8,1.3-1.2,2.3-1.2
				c0.8,0,1.4,0.2,1.8,0.7c0.4,0.5,0.8,1.2,1,2.1l-1.7,0.5c-0.1-0.3-0.1-0.5-0.2-0.6c-0.1-0.2-0.2-0.4-0.4-0.5
				c-0.2-0.1-0.3-0.2-0.5-0.2c-0.4,0-0.8,0.3-1,0.8c-0.2,0.4-0.3,1-0.3,1.8c0,1,0.1,1.7,0.3,2.1c0.2,0.4,0.5,0.6,0.9,0.6
				c0.4,0,0.6-0.1,0.8-0.4C686.6-151,686.7-151.4,686.8-152z"/>
			<path class="st0" d="M689.2-152.8c0-1.5,0.3-2.6,0.8-3.4c0.6-0.8,1.3-1.2,2.3-1.2c1,0,1.8,0.4,2.4,1.2c0.6,0.8,0.8,1.9,0.8,3.4
				c0,1.1-0.1,1.9-0.4,2.6c-0.2,0.7-0.6,1.2-1,1.6c-0.5,0.4-1,0.6-1.7,0.6c-0.7,0-1.3-0.2-1.7-0.5c-0.5-0.3-0.8-0.8-1.1-1.5
				C689.3-150.9,689.2-151.8,689.2-152.8z M691.1-152.8c0,0.9,0.1,1.6,0.3,2c0.2,0.4,0.5,0.6,0.9,0.6c0.4,0,0.7-0.2,0.9-0.6
				c0.2-0.4,0.3-1.1,0.3-2.1c0-0.9-0.1-1.5-0.4-1.9c-0.2-0.4-0.5-0.6-0.9-0.6c-0.4,0-0.7,0.2-0.9,0.6
				C691.2-154.4,691.1-153.7,691.1-152.8z"/>
			<path class="st0" d="M696.6-157.3h2.8c0.6,0,1,0.1,1.3,0.3c0.3,0.2,0.6,0.5,0.8,1c0.2,0.4,0.4,0.9,0.5,1.4
				c0.1,0.6,0.2,1.1,0.2,1.8c0,1-0.1,1.7-0.2,2.2s-0.4,1-0.6,1.3c-0.3,0.4-0.6,0.6-0.9,0.7c-0.4,0.2-0.8,0.2-1.1,0.2h-2.8V-157.3z
				 M698.5-155.3v4.9h0.5c0.4,0,0.7-0.1,0.8-0.2c0.2-0.1,0.3-0.4,0.4-0.7c0.1-0.3,0.1-0.8,0.1-1.6c0-1-0.1-1.6-0.3-2
				c-0.2-0.4-0.6-0.5-1.1-0.5H698.5z"/>
			<path class="st0" d="M703.2-157.3h5.1v1.9h-3.2v1.4h3v1.8h-3v1.8h3.3v2h-5.2V-157.3z"/>
			<path class="st0" d="M709.1-151.3l1.8-0.2c0,0.4,0.1,0.8,0.2,1c0.2,0.4,0.5,0.5,0.8,0.5c0.3,0,0.5-0.1,0.6-0.3
				c0.1-0.2,0.2-0.4,0.2-0.7c0-0.2-0.1-0.4-0.2-0.6c-0.1-0.2-0.5-0.4-1-0.5c-0.8-0.3-1.4-0.6-1.8-1.1c-0.4-0.5-0.5-1-0.5-1.7
				c0-0.5,0.1-0.9,0.3-1.3s0.5-0.7,0.8-1c0.4-0.2,0.9-0.4,1.5-0.4c0.8,0,1.4,0.2,1.8,0.6c0.4,0.4,0.7,1.1,0.7,2l-1.8,0.2
				c0-0.4-0.1-0.7-0.3-0.9c-0.2-0.2-0.4-0.3-0.6-0.3c-0.2,0-0.4,0.1-0.5,0.2c-0.1,0.1-0.2,0.3-0.2,0.5c0,0.1,0,0.3,0.1,0.4
				c0.1,0.1,0.3,0.2,0.6,0.3c0.8,0.3,1.4,0.5,1.8,0.8c0.4,0.3,0.6,0.6,0.8,1c0.2,0.4,0.2,0.8,0.2,1.3c0,0.6-0.1,1.1-0.3,1.6
				c-0.2,0.5-0.5,0.9-0.9,1.1c-0.4,0.3-0.9,0.4-1.5,0.4c-1,0-1.8-0.3-2.2-0.9S709.2-150.4,709.1-151.3z"/>
			<path class="st0" d="M719.4-149.8h-2.2l-0.3,1.5H715l2.3-9h2.1l2.3,9h-2L719.4-149.8z M719-151.7l-0.7-3.2l-0.7,3.2H719z"/>
			<path class="st0" d="M722.3-157.3h1.8l2.3,5v-5h1.8v9h-1.8l-2.3-5v5h-1.8V-157.3z"/>
			<path class="st0" d="M729.5-157.3h2.8c0.6,0,1,0.1,1.3,0.3c0.3,0.2,0.6,0.5,0.8,1c0.2,0.4,0.4,0.9,0.5,1.4
				c0.1,0.6,0.2,1.1,0.2,1.8c0,1-0.1,1.7-0.2,2.2s-0.4,1-0.6,1.3c-0.3,0.4-0.6,0.6-0.9,0.7c-0.4,0.2-0.8,0.2-1.1,0.2h-2.8V-157.3z
				 M731.4-155.3v4.9h0.5c0.4,0,0.7-0.1,0.8-0.2c0.2-0.1,0.3-0.4,0.4-0.7c0.1-0.3,0.1-0.8,0.1-1.6c0-1-0.1-1.6-0.3-2
				c-0.2-0.4-0.6-0.5-1.1-0.5H731.4z"/>
			<path class="st0" d="M736.2-157.3h3.6c0.6,0,1,0.2,1.4,0.6c0.3,0.4,0.5,1,0.5,1.6c0,0.5-0.1,1-0.3,1.4c-0.2,0.3-0.4,0.5-0.7,0.6
				c0.4,0.2,0.8,0.4,1,0.8c0.2,0.4,0.3,0.9,0.3,1.4c0,0.5-0.1,0.9-0.2,1.3c-0.1,0.4-0.4,0.7-0.6,0.9c-0.2,0.1-0.4,0.2-0.7,0.3
				c-0.4,0.1-0.7,0.1-0.9,0.1h-3.3V-157.3z M738.1-153.8h0.8c0.3,0,0.5-0.1,0.6-0.2c0.1-0.1,0.2-0.4,0.2-0.7c0-0.3-0.1-0.5-0.2-0.6
				c-0.1-0.1-0.3-0.2-0.6-0.2h-0.8V-153.8z M738.1-150.2h1c0.3,0,0.6-0.1,0.7-0.3c0.1-0.2,0.2-0.4,0.2-0.7c0-0.3-0.1-0.5-0.2-0.6
				c-0.1-0.2-0.4-0.2-0.7-0.2h-1V-150.2z"/>
			<path class="st0" d="M742.6-152.8c0-1.5,0.3-2.6,0.8-3.4c0.6-0.8,1.3-1.2,2.3-1.2c1,0,1.8,0.4,2.4,1.2c0.6,0.8,0.8,1.9,0.8,3.4
				c0,1.1-0.1,1.9-0.4,2.6c-0.2,0.7-0.6,1.2-1,1.6c-0.5,0.4-1,0.6-1.7,0.6c-0.7,0-1.3-0.2-1.7-0.5c-0.5-0.3-0.8-0.8-1.1-1.5
				C742.7-150.9,742.6-151.8,742.6-152.8z M744.5-152.8c0,0.9,0.1,1.6,0.3,2c0.2,0.4,0.5,0.6,0.9,0.6c0.4,0,0.7-0.2,0.9-0.6
				c0.2-0.4,0.3-1.1,0.3-2.1c0-0.9-0.1-1.5-0.4-1.9c-0.2-0.4-0.5-0.6-0.9-0.6c-0.4,0-0.7,0.2-0.9,0.6
				C744.6-154.4,744.5-153.7,744.5-152.8z"/>
			<path class="st0" d="M749.1-157.3h2.1l1.1,2.8l1.1-2.8h2.1l-1.9,4.4l2.1,4.7h-2.1l-1.2-2.9l-1.2,2.9h-2.1l2.1-4.7L749.1-157.3z"
				/>
		</g>
	</g>
	<path class="st0" d="M626.8-162.1c-5.1,0-9.2,4.1-9.2,9.2c0,5.1,4.1,9.2,9.2,9.2c5.1,0,9.2-4.1,9.2-9.2
		C636.1-158,631.9-162.1,626.8-162.1z M628-154.4l0.8-0.8l1.4,1.4l1.4-1.4l0.8,0.8L631-153l1.4,1.4l-0.8,0.8l-1.4-1.4l-1.4,1.4
		l-0.8-0.8l1.4-1.4L628-154.4z M621.2-154.4l0.8-0.8l1.4,1.4l1.4-1.4l0.8,0.8l-1.4,1.4l1.4,1.4l-0.8,0.8l-1.4-1.4l-1.4,1.4l-0.8-0.8
		l1.4-1.4L621.2-154.4z M631.5-147.7c-2.8,1.5-6,1.5-8.9,0.2l-1.5-0.7c-0.3-0.2-0.4-0.6-0.2-0.8l0.7-0.7l0.9,0.5
		c3,1.5,6.4,1.6,9.5,0.2h0.1l0.6,0.7L631.5-147.7z"/>
</g>
<text transform="matrix(0.68 0 0 1 473.5753 -192.9823)" class="st0" style="font-family:'Arial-Black'; font-size:28.7707px;">COpy this text</text>
<g>
	<g>
		<path class="st1" d="M759.2-90.9H619.4c-3.3,0-6-2.7-6-6v-16.3c0-3.3,2.7-6,6-6h139.8c3.3,0,6,2.7,6,6v16.3
			C765.2-93.6,762.5-90.9,759.2-90.9z"/>
		<path class="st0" d="M628.3-114.3c-5.1,0-9.2,4.1-9.2,9.2c0,5.1,4.1,9.2,9.2,9.2c5.1,0,9.2-4.1,9.2-9.2
			C637.5-110.2,633.4-114.3,628.3-114.3z M629.5-106.6l0.8-0.8l1.4,1.4l1.4-1.4l0.8,0.8l-1.4,1.4l1.4,1.4l-0.8,0.8l-1.4-1.4
			l-1.4,1.4l-0.8-0.8l1.4-1.4L629.5-106.6z M622.7-106.6l0.8-0.8l1.4,1.4l1.4-1.4l0.8,0.8l-1.4,1.4l1.4,1.4l-0.8,0.8l-1.4-1.4
			l-1.4,1.4l-0.8-0.8l1.4-1.4L622.7-106.6z M633-99.9c-2.8,1.5-6,1.5-8.9,0.2l-1.5-0.7c-0.3-0.2-0.4-0.6-0.2-0.8l0.7-0.7l0.9,0.5
			c3,1.5,6.4,1.6,9.5,0.2h0.1l0.6,0.7L633-99.9z"/>
	</g>
	<g>
		<path class="st0" d="M644.7-109.6h1.9v3.2h2.1v-3.2h1.9v9h-1.9v-3.7h-2.1v3.7h-1.9V-109.6z"/>
		<path class="st0" d="M651.6-105.1c0-1.5,0.3-2.6,0.8-3.4c0.6-0.8,1.3-1.2,2.3-1.2c1,0,1.8,0.4,2.4,1.2c0.6,0.8,0.8,1.9,0.8,3.4
			c0,1.1-0.1,1.9-0.4,2.6c-0.2,0.7-0.6,1.2-1,1.6c-0.5,0.4-1,0.6-1.7,0.6c-0.7,0-1.3-0.2-1.7-0.5c-0.5-0.3-0.8-0.8-1.1-1.5
			C651.8-103.2,651.6-104,651.6-105.1z M653.5-105.1c0,0.9,0.1,1.6,0.3,2c0.2,0.4,0.5,0.6,0.9,0.6c0.4,0,0.7-0.2,0.9-0.6
			c0.2-0.4,0.3-1.1,0.3-2.1c0-0.9-0.1-1.5-0.4-1.9c-0.2-0.4-0.5-0.6-0.9-0.6c-0.4,0-0.7,0.2-0.9,0.6
			C653.7-106.7,653.5-106,653.5-105.1z"/>
		<path class="st0" d="M658.3-109.6h1.8l0.6,5.1l1-5.1h1.8l1,5.1l0.7-5.1h1.8l-1.4,9h-1.9l-1.1-5.7l-1.1,5.7h-1.9L658.3-109.6z"/>
		<path class="st0" d="M669.9-109.6h5.8v2.2h-1.9v6.8h-1.9v-6.8h-1.9V-109.6z"/>
		<path class="st0" d="M676-105.1c0-1.5,0.3-2.6,0.8-3.4c0.6-0.8,1.3-1.2,2.3-1.2c1,0,1.8,0.4,2.4,1.2c0.6,0.8,0.8,1.9,0.8,3.4
			c0,1.1-0.1,1.9-0.4,2.6c-0.2,0.7-0.6,1.2-1,1.6c-0.5,0.4-1,0.6-1.7,0.6c-0.7,0-1.3-0.2-1.7-0.5c-0.5-0.3-0.8-0.8-1.1-1.5
			C676.1-103.2,676-104,676-105.1z M677.9-105.1c0,0.9,0.1,1.6,0.3,2c0.2,0.4,0.5,0.6,0.9,0.6c0.4,0,0.7-0.2,0.9-0.6
			c0.2-0.4,0.3-1.1,0.3-2.1c0-0.9-0.1-1.5-0.4-1.9c-0.2-0.4-0.5-0.6-0.9-0.6c-0.4,0-0.7,0.2-0.9,0.6
			C678-106.7,677.9-106,677.9-105.1z"/>
		<path class="st0" d="M690.3-104.3l1.7,0.7c-0.1,0.7-0.3,1.3-0.5,1.7c-0.2,0.5-0.5,0.8-0.9,1c-0.4,0.2-0.8,0.4-1.4,0.4
			c-0.7,0-1.2-0.1-1.6-0.4s-0.8-0.8-1.1-1.5c-0.3-0.7-0.5-1.6-0.5-2.8c0-1.5,0.3-2.6,0.8-3.4c0.5-0.8,1.3-1.2,2.3-1.2
			c0.8,0,1.4,0.2,1.8,0.7c0.4,0.5,0.8,1.2,1,2.1l-1.7,0.5c-0.1-0.3-0.1-0.5-0.2-0.6c-0.1-0.2-0.2-0.4-0.4-0.5
			c-0.2-0.1-0.3-0.2-0.5-0.2c-0.4,0-0.8,0.3-1,0.8c-0.2,0.4-0.3,1-0.3,1.8c0,1,0.1,1.7,0.3,2.1c0.2,0.4,0.5,0.6,0.9,0.6
			c0.4,0,0.6-0.1,0.8-0.4C690.1-103.3,690.3-103.7,690.3-104.3z"/>
		<path class="st0" d="M692.7-105.1c0-1.5,0.3-2.6,0.8-3.4c0.6-0.8,1.3-1.2,2.3-1.2c1,0,1.8,0.4,2.4,1.2c0.6,0.8,0.8,1.9,0.8,3.4
			c0,1.1-0.1,1.9-0.4,2.6c-0.2,0.7-0.6,1.2-1,1.6c-0.5,0.4-1,0.6-1.7,0.6c-0.7,0-1.3-0.2-1.7-0.5c-0.5-0.3-0.8-0.8-1.1-1.5
			C692.8-103.2,692.7-104,692.7-105.1z M694.6-105.1c0,0.9,0.1,1.6,0.3,2c0.2,0.4,0.5,0.6,0.9,0.6c0.4,0,0.7-0.2,0.9-0.6
			c0.2-0.4,0.3-1.1,0.3-2.1c0-0.9-0.1-1.5-0.4-1.9c-0.2-0.4-0.5-0.6-0.9-0.6c-0.4,0-0.7,0.2-0.9,0.6
			C694.7-106.7,694.6-106,694.6-105.1z"/>
		<path class="st0" d="M700.1-109.6h1.8l2.3,5v-5h1.8v9h-1.8l-2.3-5v5h-1.8V-109.6z"/>
		<path class="st0" d="M706.8-109.6h5.8v2.2h-1.9v6.8h-1.9v-6.8h-1.9V-109.6z"/>
		<path class="st0" d="M713.5-100.6v-9h3.2c0.6,0,1,0.1,1.3,0.2c0.3,0.1,0.6,0.4,0.8,0.8c0.2,0.4,0.3,0.9,0.3,1.5
			c0,0.5-0.1,0.9-0.2,1.3c-0.1,0.4-0.3,0.7-0.6,0.9c-0.2,0.1-0.4,0.3-0.7,0.4c0.2,0.1,0.4,0.2,0.5,0.3c0.1,0.1,0.2,0.2,0.3,0.5
			c0.1,0.2,0.2,0.4,0.3,0.6l0.9,2.6h-2.1l-1-2.8c-0.1-0.4-0.2-0.6-0.3-0.7c-0.1-0.1-0.3-0.2-0.5-0.2h-0.2v3.7H713.5z M715.4-106h0.8
			c0.1,0,0.3,0,0.5-0.1c0.1,0,0.2-0.1,0.3-0.3c0.1-0.2,0.1-0.3,0.1-0.5c0-0.3-0.1-0.5-0.2-0.7c-0.1-0.2-0.4-0.2-0.7-0.2h-0.8V-106z"
			/>
		<path class="st0" d="M720.2-109.6h1.9v9h-1.9V-109.6z"/>
		<path class="st0" d="M723.5-109.6h3.6c0.6,0,1,0.2,1.4,0.6c0.3,0.4,0.5,1,0.5,1.6c0,0.5-0.1,1-0.3,1.4c-0.2,0.3-0.4,0.5-0.7,0.6
			c0.4,0.2,0.8,0.4,1,0.8c0.2,0.4,0.3,0.9,0.3,1.4c0,0.5-0.1,0.9-0.2,1.3c-0.1,0.4-0.4,0.7-0.6,0.9c-0.2,0.1-0.4,0.2-0.7,0.3
			c-0.4,0.1-0.7,0.1-0.9,0.1h-3.3V-109.6z M725.4-106.1h0.8c0.3,0,0.5-0.1,0.6-0.2c0.1-0.1,0.2-0.4,0.2-0.7c0-0.3-0.1-0.5-0.2-0.6
			c-0.1-0.1-0.3-0.2-0.6-0.2h-0.8V-106.1z M725.4-102.5h1c0.3,0,0.6-0.1,0.7-0.3c0.1-0.2,0.2-0.4,0.2-0.7c0-0.3-0.1-0.5-0.2-0.6
			c-0.1-0.2-0.4-0.2-0.7-0.2h-1V-102.5z"/>
		<path class="st0" d="M733.9-109.6h1.9v5.4c0,0.5-0.1,1-0.2,1.5c-0.1,0.5-0.3,0.9-0.5,1.2c-0.2,0.4-0.5,0.6-0.8,0.7
			c-0.4,0.2-0.8,0.3-1.3,0.3c-0.3,0-0.6,0-1-0.1s-0.6-0.2-0.9-0.4c-0.2-0.2-0.5-0.4-0.7-0.8c-0.2-0.3-0.3-0.7-0.4-1
			c-0.1-0.6-0.2-1.1-0.2-1.5v-5.4h1.9v5.5c0,0.5,0.1,0.9,0.3,1.2c0.2,0.3,0.4,0.4,0.8,0.4c0.3,0,0.6-0.1,0.8-0.4
			c0.2-0.3,0.3-0.7,0.3-1.2V-109.6z"/>
		<path class="st0" d="M736.6-109.6h5.8v2.2h-1.9v6.8h-1.9v-6.8h-1.9V-109.6z"/>
		<path class="st0" d="M743.3-109.6h5.1v1.9h-3.2v1.4h3v1.8h-3v1.8h3.3v2h-5.2V-109.6z"/>
	</g>
</g>
<path class="st2" d="M546.9,134.8H385c-3.3,0-6-2.7-6-6v-20.1c0-3.3,2.7-6,6-6h161.9c3.3,0,6,2.7,6,6v20.1
	C552.9,132.1,550.2,134.8,546.9,134.8z"/>
<path class="st0" d="M415.6,113.7h5.8v2.2h-3.6v1.6h3.4v2.1h-3.4v2h3.7v2.3h-5.9V113.7z"/>
<path class="st0" d="M422.6,113.7h3.2c0.6,0,1.1,0.1,1.5,0.4c0.4,0.3,0.7,0.6,1,1.1c0.3,0.5,0.4,1,0.6,1.6c0.1,0.6,0.2,1.3,0.2,2
	c0,1.1-0.1,1.9-0.3,2.5c-0.2,0.6-0.4,1.1-0.7,1.5c-0.3,0.4-0.6,0.7-1,0.8c-0.5,0.2-0.9,0.3-1.3,0.3h-3.2V113.7z M424.8,116v5.6h0.5
	c0.5,0,0.8-0.1,1-0.2c0.2-0.1,0.3-0.4,0.4-0.8c0.1-0.4,0.2-1,0.2-1.8c0-1.1-0.1-1.8-0.4-2.2c-0.2-0.4-0.6-0.6-1.2-0.6H424.8z"/>
<path class="st0" d="M430.2,113.7h2.2V124h-2.2V113.7z"/>
<path class="st0" d="M433.5,113.7h6.5v2.5h-2.2v7.7h-2.2v-7.7h-2.2V113.7z"/>
<path class="st0" d="M444.3,113.7h2.2V124h-2.2V113.7z"/>
<path class="st0" d="M448,113.7h2l2.6,5.7v-5.7h2V124h-2l-2.6-5.6v5.6h-2V113.7z"/>
<path class="st0" d="M464,119.8l1.9,0.8c-0.1,0.8-0.3,1.4-0.6,2c-0.3,0.5-0.6,0.9-1,1.2c-0.4,0.3-0.9,0.4-1.5,0.4
	c-0.8,0-1.4-0.2-1.9-0.5c-0.5-0.3-0.9-0.9-1.2-1.7c-0.3-0.8-0.5-1.9-0.5-3.1c0-1.7,0.3-3,0.9-3.9c0.6-0.9,1.5-1.4,2.6-1.4
	c0.9,0,1.6,0.3,2.1,0.8c0.5,0.5,0.9,1.3,1.1,2.4l-1.9,0.6c-0.1-0.3-0.1-0.5-0.2-0.7c-0.1-0.2-0.3-0.4-0.4-0.6
	c-0.2-0.1-0.4-0.2-0.6-0.2c-0.5,0-0.9,0.3-1.1,0.9c-0.2,0.4-0.3,1.1-0.3,2c0,1.1,0.1,1.9,0.4,2.3c0.2,0.4,0.6,0.6,1,0.6
	c0.4,0,0.7-0.2,0.9-0.5C463.8,120.9,463.9,120.4,464,119.8z"/>
<path class="st0" d="M466.7,118.9c0-1.7,0.3-3,1-3.9c0.6-0.9,1.5-1.4,2.6-1.4c1.2,0,2.1,0.5,2.7,1.4c0.6,0.9,0.9,2.2,0.9,3.8
	c0,1.2-0.1,2.2-0.4,2.9c-0.3,0.8-0.7,1.4-1.2,1.8c-0.5,0.4-1.2,0.6-1.9,0.6c-0.8,0-1.4-0.2-2-0.6c-0.5-0.4-0.9-1-1.3-1.7
	C466.8,121,466.7,120.1,466.7,118.9z M468.8,118.9c0,1,0.1,1.8,0.4,2.2c0.3,0.5,0.6,0.7,1.1,0.7c0.5,0,0.8-0.2,1.1-0.7
	c0.3-0.4,0.4-1.2,0.4-2.4c0-1-0.1-1.7-0.4-2.1c-0.3-0.4-0.6-0.7-1.1-0.7c-0.4,0-0.8,0.2-1,0.7C469,117.1,468.8,117.8,468.8,118.9z"
	/>
<path class="st0" d="M475.1,113.7h3.2c0.6,0,1.1,0.1,1.5,0.4c0.4,0.3,0.7,0.6,1,1.1c0.3,0.5,0.4,1,0.6,1.6c0.1,0.6,0.2,1.3,0.2,2
	c0,1.1-0.1,1.9-0.3,2.5c-0.2,0.6-0.4,1.1-0.7,1.5c-0.3,0.4-0.6,0.7-1,0.8c-0.5,0.2-0.9,0.3-1.3,0.3h-3.2V113.7z M477.3,116v5.6h0.5
	c0.5,0,0.8-0.1,1-0.2c0.2-0.1,0.3-0.4,0.4-0.8c0.1-0.4,0.2-1,0.2-1.8c0-1.1-0.1-1.8-0.4-2.2c-0.2-0.4-0.6-0.6-1.2-0.6H477.3z"/>
<path class="st0" d="M482.6,113.7h5.8v2.2h-3.6v1.6h3.4v2.1h-3.4v2h3.7v2.3h-5.9V113.7z"/>
<path class="st0" d="M489.3,120.6l2-0.2c0,0.5,0.1,0.9,0.3,1.1c0.2,0.4,0.5,0.6,1,0.6c0.3,0,0.5-0.1,0.7-0.3
	c0.2-0.2,0.2-0.5,0.2-0.7c0-0.3-0.1-0.5-0.2-0.7c-0.2-0.2-0.5-0.4-1.1-0.6c-0.9-0.3-1.6-0.7-2-1.2c-0.4-0.5-0.6-1.2-0.6-2
	c0-0.5,0.1-1,0.3-1.5s0.5-0.8,0.9-1.1c0.4-0.3,1-0.4,1.7-0.4c0.9,0,1.6,0.2,2,0.7c0.5,0.5,0.7,1.3,0.8,2.3l-2,0.2
	c-0.1-0.5-0.2-0.8-0.3-1c-0.2-0.2-0.4-0.3-0.7-0.3c-0.3,0-0.4,0.1-0.6,0.2c-0.1,0.2-0.2,0.3-0.2,0.6c0,0.2,0.1,0.3,0.2,0.4
	c0.1,0.1,0.3,0.3,0.7,0.4c0.9,0.3,1.6,0.6,2,0.9c0.4,0.3,0.7,0.7,0.9,1.1c0.2,0.5,0.3,1,0.3,1.5c0,0.7-0.1,1.3-0.4,1.8
	c-0.2,0.6-0.6,1-1,1.3c-0.4,0.3-1,0.4-1.7,0.4c-1.2,0-2-0.3-2.5-1C489.6,122.5,489.4,121.6,489.3,120.6z"/>
<path class="st0" d="M501,122.3h-2.4l-0.3,1.7H496l2.6-10.3h2.3l2.6,10.3h-2.3L501,122.3z M500.5,120.1l-0.8-3.7l-0.8,3.7H500.5z"/>
<path class="st0" d="M504.3,113.7h2l2.6,5.7v-5.7h2V124h-2l-2.6-5.6v5.6h-2V113.7z"/>
<path class="st0" d="M512.4,113.7h3.2c0.6,0,1.1,0.1,1.5,0.4s0.7,0.6,1,1.1c0.3,0.5,0.4,1,0.6,1.6c0.1,0.6,0.2,1.3,0.2,2
	c0,1.1-0.1,1.9-0.3,2.5c-0.2,0.6-0.4,1.1-0.7,1.5c-0.3,0.4-0.6,0.7-1,0.8c-0.5,0.2-0.9,0.3-1.3,0.3h-3.2V113.7z M514.6,116v5.6h0.5
	c0.5,0,0.8-0.1,1-0.2c0.2-0.1,0.3-0.4,0.4-0.8c0.1-0.4,0.2-1,0.2-1.8c0-1.1-0.1-1.8-0.4-2.2c-0.2-0.4-0.6-0.6-1.2-0.6H514.6z"/>
<path class="st0" d="M520,113.7h4c0.7,0,1.2,0.2,1.5,0.7c0.4,0.5,0.5,1.1,0.5,1.8c0,0.6-0.1,1.1-0.4,1.6c-0.2,0.3-0.4,0.5-0.8,0.7
	c0.5,0.2,0.9,0.5,1.1,0.9c0.2,0.4,0.4,1,0.4,1.6c0,0.5-0.1,1-0.3,1.4c-0.2,0.4-0.4,0.8-0.7,1c-0.2,0.2-0.5,0.3-0.8,0.3
	c-0.5,0.1-0.8,0.1-1,0.1H520V113.7z M522.1,117.7h0.9c0.3,0,0.6-0.1,0.7-0.3c0.1-0.2,0.2-0.4,0.2-0.7c0-0.3-0.1-0.5-0.2-0.7
	c-0.1-0.2-0.4-0.3-0.7-0.3h-1V117.7z M522.1,121.8h1.1c0.4,0,0.6-0.1,0.8-0.3c0.2-0.2,0.2-0.5,0.2-0.8c0-0.3-0.1-0.5-0.2-0.7
	c-0.2-0.2-0.4-0.3-0.8-0.3h-1.1V121.8z"/>
<path class="st0" d="M527.3,118.9c0-1.7,0.3-3,1-3.9c0.6-0.9,1.5-1.4,2.6-1.4c1.2,0,2.1,0.5,2.7,1.4c0.6,0.9,0.9,2.2,0.9,3.8
	c0,1.2-0.1,2.2-0.4,2.9c-0.3,0.8-0.7,1.4-1.2,1.8c-0.5,0.4-1.2,0.6-1.9,0.6c-0.8,0-1.4-0.2-2-0.6c-0.5-0.4-0.9-1-1.3-1.7
	C527.4,121,527.3,120.1,527.3,118.9z M529.4,118.9c0,1,0.1,1.8,0.4,2.2c0.3,0.5,0.6,0.7,1.1,0.7c0.5,0,0.8-0.2,1.1-0.7
	c0.3-0.4,0.4-1.2,0.4-2.4c0-1-0.1-1.7-0.4-2.1c-0.3-0.4-0.6-0.7-1.1-0.7c-0.4,0-0.8,0.2-1,0.7C529.6,117.1,529.4,117.8,529.4,118.9z
	"/>
<path class="st0" d="M534.7,113.7h2.4l1.2,3.2l1.2-3.2h2.3l-2.2,5l2.4,5.3h-2.4l-1.4-3.3l-1.4,3.3h-2.4l2.4-5.3L534.7,113.7z"/>
<path class="st0" d="M396,108.3c-5.8,0-10.5,4.7-10.5,10.5c0,5.8,4.7,10.5,10.5,10.5s10.5-4.7,10.5-10.5
	C406.4,113,401.7,108.3,396,108.3z M397.3,117l0.9-0.9l1.6,1.6l1.6-1.6l0.9,0.9l-1.6,1.6l1.6,1.6l-0.9,0.9l-1.6-1.6l-1.6,1.6
	l-0.9-0.9l1.6-1.6L397.3,117z M389.6,117l0.9-0.9l1.6,1.6l1.6-1.6l0.9,0.9l-1.6,1.6l1.6,1.6l-0.9,0.9l-1.6-1.6l-1.6,1.6l-0.9-0.9
	l1.6-1.6L389.6,117z M401.3,124.7c-3.1,1.7-6.9,1.7-10.1,0.2l-1.7-0.8c-0.3-0.2-0.5-0.6-0.2-0.9l0.7-0.8l1,0.5
	c3.4,1.7,7.3,1.8,10.7,0.2h0.1l0.7,0.8L401.3,124.7z"/>
<path class="st2" d="M536,183H385.8c-3.3,0-6-2.7-6-6v-20.1c0-3.3,2.7-6,6-6H536c3.3,0,6,2.7,6,6V177C542,180.4,539.3,183,536,183z"
	/>
<path class="st0" d="M396.7,156.5c-5.8,0-10.5,4.7-10.5,10.5c0,5.8,4.7,10.5,10.5,10.5c5.8,0,10.5-4.7,10.5-10.5
	C407.2,161.2,402.5,156.5,396.7,156.5z M398.1,165.3l0.9-0.9l1.6,1.6l1.6-1.6l0.9,0.9l-1.6,1.6l1.6,1.6l-0.9,0.9l-1.6-1.6l-1.6,1.6
	l-0.9-0.9l1.6-1.6L398.1,165.3z M390.4,165.3l0.9-0.9l1.6,1.6l1.6-1.6l0.9,0.9l-1.6,1.6l1.6,1.6l-0.9,0.9l-1.6-1.6l-1.6,1.6
	l-0.9-0.9l1.6-1.6L390.4,165.3z M402.1,172.9c-3.1,1.7-6.9,1.7-10.1,0.2l-1.7-0.8c-0.3-0.2-0.5-0.6-0.2-0.9l0.7-0.8l1,0.5
	c3.4,1.7,7.3,1.8,10.7,0.2h0.1l0.7,0.8L402.1,172.9z"/>
<path class="st0" d="M415.4,161.9h2.2v3.6h2.4v-3.6h2.2v10.3h-2.2V168h-2.4v4.1h-2.2V161.9z"/>
<path class="st0" d="M423.2,167c0-1.7,0.3-3,1-3.9c0.6-0.9,1.5-1.4,2.6-1.4c1.2,0,2.1,0.5,2.7,1.4c0.6,0.9,0.9,2.2,0.9,3.8
	c0,1.2-0.1,2.2-0.4,2.9c-0.3,0.8-0.7,1.4-1.2,1.8c-0.5,0.4-1.2,0.6-1.9,0.6c-0.8,0-1.4-0.2-2-0.6c-0.5-0.4-0.9-1-1.3-1.7
	C423.4,169.2,423.2,168.2,423.2,167z M425.4,167c0,1,0.1,1.8,0.4,2.2c0.3,0.5,0.6,0.7,1.1,0.7c0.5,0,0.8-0.2,1.1-0.7
	c0.3-0.4,0.4-1.2,0.4-2.4c0-1-0.1-1.7-0.4-2.1c-0.3-0.4-0.6-0.7-1.1-0.7c-0.4,0-0.8,0.2-1,0.7C425.5,165.2,425.4,166,425.4,167z"/>
<path class="st0" d="M430.7,161.9h2l0.7,5.7l1.1-5.7h2l1.1,5.7l0.7-5.7h2l-1.5,10.3h-2.1l-1.2-6.5l-1.2,6.5h-2.1L430.7,161.9z"/>
<path class="st0" d="M443.9,161.9h6.5v2.5h-2.2v7.7h-2.2v-7.7h-2.2V161.9z"/>
<path class="st0" d="M450.9,167c0-1.7,0.3-3,1-3.9c0.6-0.9,1.5-1.4,2.6-1.4c1.2,0,2.1,0.5,2.7,1.4c0.6,0.9,0.9,2.2,0.9,3.8
	c0,1.2-0.1,2.2-0.4,2.9c-0.3,0.8-0.7,1.4-1.2,1.8c-0.5,0.4-1.2,0.6-1.9,0.6c-0.8,0-1.4-0.2-2-0.6c-0.5-0.4-0.9-1-1.3-1.7
	C451,169.2,450.9,168.2,450.9,167z M453,167c0,1,0.1,1.8,0.4,2.2c0.3,0.5,0.6,0.7,1.1,0.7c0.5,0,0.8-0.2,1.1-0.7
	c0.3-0.4,0.4-1.2,0.4-2.4c0-1-0.1-1.7-0.4-2.1c-0.3-0.4-0.6-0.7-1.1-0.7c-0.4,0-0.8,0.2-1,0.7C453.1,165.2,453,166,453,167z"/>
<path class="st0" d="M467.1,167.9l1.9,0.8c-0.1,0.8-0.3,1.4-0.6,2c-0.3,0.5-0.6,0.9-1,1.2c-0.4,0.3-0.9,0.4-1.5,0.4
	c-0.8,0-1.4-0.2-1.9-0.5s-0.9-0.9-1.2-1.7c-0.3-0.8-0.5-1.9-0.5-3.1c0-1.7,0.3-3,0.9-3.9c0.6-0.9,1.5-1.4,2.6-1.4
	c0.9,0,1.6,0.3,2.1,0.8c0.5,0.5,0.9,1.3,1.1,2.4l-1.9,0.6c-0.1-0.3-0.1-0.5-0.2-0.7c-0.1-0.2-0.3-0.4-0.4-0.6
	c-0.2-0.1-0.4-0.2-0.6-0.2c-0.5,0-0.9,0.3-1.1,0.9c-0.2,0.4-0.3,1.1-0.3,2c0,1.1,0.1,1.9,0.4,2.3c0.2,0.4,0.6,0.6,1,0.6
	c0.4,0,0.7-0.2,0.9-0.5C466.9,169.1,467,168.6,467.1,167.9z"/>
<path class="st0" d="M469.8,167c0-1.7,0.3-3,1-3.9c0.6-0.9,1.5-1.4,2.6-1.4c1.2,0,2.1,0.5,2.7,1.4c0.6,0.9,0.9,2.2,0.9,3.8
	c0,1.2-0.1,2.2-0.4,2.9c-0.3,0.8-0.7,1.4-1.2,1.8c-0.5,0.4-1.2,0.6-1.9,0.6c-0.8,0-1.4-0.2-2-0.6c-0.5-0.4-0.9-1-1.3-1.7
	C469.9,169.2,469.8,168.2,469.8,167z M471.9,167c0,1,0.1,1.8,0.4,2.2c0.3,0.5,0.6,0.7,1.1,0.7c0.5,0,0.8-0.2,1.1-0.7
	c0.3-0.4,0.4-1.2,0.4-2.4c0-1-0.1-1.7-0.4-2.1c-0.3-0.4-0.6-0.7-1.1-0.7c-0.4,0-0.8,0.2-1,0.7C472.1,165.2,471.9,166,471.9,167z"/>
<path class="st0" d="M478.2,161.9h2l2.6,5.7v-5.7h2v10.3h-2l-2.6-5.6v5.6h-2V161.9z"/>
<path class="st0" d="M485.8,161.9h6.5v2.5h-2.2v7.7H488v-7.7h-2.2V161.9z"/>
<path class="st0" d="M493.3,172.1v-10.3h3.6c0.7,0,1.2,0.1,1.5,0.3c0.4,0.2,0.6,0.5,0.9,0.9c0.2,0.5,0.3,1,0.3,1.7
	c0,0.6-0.1,1.1-0.2,1.5c-0.2,0.4-0.4,0.7-0.7,1c-0.2,0.2-0.4,0.3-0.8,0.4c0.3,0.1,0.4,0.3,0.6,0.4c0.1,0.1,0.2,0.3,0.3,0.5
	c0.2,0.3,0.3,0.5,0.3,0.6l1,3h-2.4l-1.2-3.1c-0.1-0.4-0.3-0.7-0.4-0.8c-0.2-0.2-0.3-0.2-0.5-0.2h-0.2v4.2H493.3z M495.5,166h0.9
	c0.1,0,0.3,0,0.6-0.1c0.1,0,0.3-0.1,0.3-0.3c0.1-0.2,0.1-0.4,0.1-0.6c0-0.3-0.1-0.6-0.2-0.8c-0.1-0.2-0.4-0.3-0.8-0.3h-0.9V166z"/>
<path class="st0" d="M501,161.9h2.2v10.3H501V161.9z"/>
<path class="st0" d="M504.7,161.9h4c0.7,0,1.2,0.2,1.5,0.7c0.4,0.5,0.5,1.1,0.5,1.8c0,0.6-0.1,1.1-0.4,1.6c-0.2,0.3-0.4,0.5-0.8,0.7
	c0.5,0.2,0.9,0.5,1.1,0.9c0.2,0.4,0.4,1,0.4,1.6c0,0.5-0.1,1-0.3,1.4c-0.2,0.4-0.4,0.8-0.7,1c-0.2,0.2-0.5,0.3-0.8,0.3
	c-0.5,0.1-0.8,0.1-1,0.1h-3.7V161.9z M506.9,165.9h0.9c0.3,0,0.6-0.1,0.7-0.3c0.1-0.2,0.2-0.4,0.2-0.7c0-0.3-0.1-0.5-0.2-0.7
	c-0.1-0.2-0.4-0.3-0.7-0.3h-1V165.9z M506.9,169.9h1.1c0.4,0,0.6-0.1,0.8-0.3c0.2-0.2,0.2-0.5,0.2-0.8c0-0.3-0.1-0.5-0.2-0.7
	c-0.2-0.2-0.4-0.3-0.8-0.3h-1.1V169.9z"/>
<path class="st0" d="M516.5,161.9h2.1v6.1c0,0.6-0.1,1.2-0.2,1.7c-0.1,0.5-0.3,1-0.6,1.4s-0.6,0.7-0.9,0.8c-0.4,0.2-0.9,0.3-1.5,0.3
	c-0.3,0-0.7,0-1.1-0.1c-0.4-0.1-0.7-0.2-1-0.4c-0.3-0.2-0.5-0.5-0.7-0.9c-0.2-0.4-0.4-0.8-0.5-1.2c-0.1-0.7-0.2-1.2-0.2-1.7v-6.1
	h2.1v6.3c0,0.6,0.1,1,0.3,1.3c0.2,0.3,0.5,0.5,0.9,0.5c0.4,0,0.7-0.2,0.9-0.5c0.2-0.3,0.3-0.7,0.3-1.3V161.9z"/>
<path class="st0" d="M519.6,161.9h6.5v2.5H524v7.7h-2.2v-7.7h-2.2V161.9z"/>
<path class="st0" d="M527.1,161.9h5.8v2.2h-3.6v1.6h3.4v2.1h-3.4v2h3.7v2.3h-5.9V161.9z"/>
<path class="st2" d="M530.4,219.3H385.5c-3.3,0-6-2.7-6-6v-20.1c0-3.3,2.7-6,6-6h144.9c3.3,0,6,2.7,6,6v20.1
	C536.4,216.6,533.7,219.3,530.4,219.3z"/>
<path class="st0" d="M396.5,192.8c-5.8,0-10.5,4.7-10.5,10.5c0,5.8,4.7,10.5,10.5,10.5c5.8,0,10.5-4.7,10.5-10.5
	C406.9,197.4,402.2,192.8,396.5,192.8z M397.8,201.5l0.9-0.9l1.6,1.6l1.6-1.6l0.9,0.9l-1.6,1.6l1.6,1.6l-0.9,0.9l-1.6-1.6l-1.6,1.6
	l-0.9-0.9l1.6-1.6L397.8,201.5z M390.1,201.5l0.9-0.9l1.6,1.6l1.6-1.6l0.9,0.9l-1.6,1.6l1.6,1.6l-0.9,0.9l-1.6-1.6l-1.6,1.6
	l-0.9-0.9l1.6-1.6L390.1,201.5z M401.8,209.2c-3.1,1.7-6.9,1.7-10.1,0.2l-1.7-0.8c-0.3-0.2-0.5-0.6-0.2-0.9l0.7-0.8l1,0.5
	c3.4,1.7,7.3,1.8,10.7,0.2h0.1l0.7,0.8L401.8,209.2z"/>
<g>
	<path class="st0" d="M415.1,198.6h2l0.7,5.5l1-5.5h2l1,5.5l0.7-5.5h2l-1.5,9.9h-2l-1.2-6.2l-1.2,6.2h-2L415.1,198.6z"/>
	<path class="st0" d="M425.3,208.5v-9.9h3.5c0.6,0,1.1,0.1,1.5,0.2c0.3,0.2,0.6,0.5,0.8,0.9s0.3,1,0.3,1.6c0,0.6-0.1,1-0.2,1.4
		c-0.2,0.4-0.4,0.7-0.7,1c-0.2,0.2-0.4,0.3-0.7,0.4c0.2,0.1,0.4,0.2,0.5,0.4c0.1,0.1,0.2,0.3,0.3,0.5c0.1,0.3,0.2,0.5,0.3,0.6l1,2.9
		h-2.4l-1.1-3c-0.1-0.4-0.3-0.6-0.4-0.8c-0.2-0.2-0.3-0.2-0.5-0.2h-0.2v4H425.3z M427.4,202.6h0.9c0.1,0,0.3,0,0.6-0.1
		c0.1,0,0.3-0.1,0.3-0.3c0.1-0.2,0.1-0.4,0.1-0.6c0-0.3-0.1-0.6-0.2-0.7c-0.1-0.2-0.4-0.3-0.8-0.3h-0.9V202.6z"/>
	<path class="st0" d="M432.7,198.6h2.1v9.9h-2.1V198.6z"/>
	<path class="st0" d="M435.8,198.6h6.3v2.4H440v7.5h-2.1V201h-2.1V198.6z"/>
	<path class="st0" d="M443,198.6h5.6v2.1h-3.5v1.6h3.2v2h-3.2v2h3.6v2.2H443V198.6z"/>
	<path class="st0" d="M454,198.4h1l-1.7,10.3h-0.9L454,198.4z"/>
	<path class="st0" d="M458.7,198.6h5.1v2.1h-3.1v1.7h2.6v2h-2.6v4.1h-2.1V198.6z"/>
	<path class="st0" d="M465.1,198.6h2.1v9.9h-2.1V198.6z"/>
	<path class="st0" d="M468.7,198.6h1.9l2.5,5.5v-5.5h2v9.9h-2l-2.5-5.4v5.4h-2V198.6z"/>
	<path class="st0" d="M476.6,198.6h3.1c0.6,0,1.1,0.1,1.5,0.4c0.4,0.2,0.7,0.6,0.9,1c0.2,0.5,0.4,1,0.5,1.6c0.1,0.6,0.2,1.2,0.2,1.9
		c0,1.1-0.1,1.9-0.2,2.5c-0.2,0.6-0.4,1.1-0.7,1.5c-0.3,0.4-0.6,0.7-0.9,0.8c-0.5,0.2-0.9,0.3-1.2,0.3h-3.1V198.6z M478.6,200.8v5.4
		h0.5c0.4,0,0.7-0.1,0.9-0.2c0.2-0.1,0.3-0.4,0.4-0.7c0.1-0.4,0.2-0.9,0.2-1.7c0-1-0.1-1.8-0.3-2.2c-0.2-0.4-0.6-0.6-1.2-0.6H478.6z
		"/>
	<path class="st0" d="M487.1,198.6h2.1v9.9h-2.1V198.6z"/>
	<path class="st0" d="M490.3,205.2l2-0.2c0,0.5,0.1,0.8,0.3,1.1c0.2,0.4,0.5,0.6,0.9,0.6c0.3,0,0.5-0.1,0.7-0.3
		c0.2-0.2,0.2-0.4,0.2-0.7c0-0.3-0.1-0.5-0.2-0.7c-0.2-0.2-0.5-0.4-1.1-0.6c-0.9-0.3-1.6-0.7-2-1.2c-0.4-0.5-0.6-1.1-0.6-1.9
		c0-0.5,0.1-1,0.3-1.4c0.2-0.5,0.5-0.8,0.9-1.1c0.4-0.3,1-0.4,1.7-0.4c0.9,0,1.5,0.2,2,0.7c0.5,0.5,0.7,1.2,0.8,2.2l-2,0.2
		c-0.1-0.4-0.2-0.8-0.3-1c-0.2-0.2-0.4-0.3-0.7-0.3c-0.2,0-0.4,0.1-0.5,0.2c-0.1,0.2-0.2,0.3-0.2,0.6c0,0.2,0.1,0.3,0.2,0.4
		c0.1,0.1,0.3,0.3,0.7,0.4c0.9,0.3,1.6,0.6,2,0.9c0.4,0.3,0.7,0.7,0.9,1.1c0.2,0.4,0.3,0.9,0.3,1.5c0,0.6-0.1,1.2-0.4,1.8
		c-0.2,0.5-0.6,0.9-1,1.2c-0.4,0.3-1,0.4-1.6,0.4c-1.1,0-1.9-0.3-2.4-1C490.6,207.1,490.3,206.2,490.3,205.2z"/>
	<path class="st0" d="M497.1,205.2l2-0.2c0,0.5,0.1,0.8,0.3,1.1c0.2,0.4,0.5,0.6,0.9,0.6c0.3,0,0.5-0.1,0.7-0.3
		c0.2-0.2,0.2-0.4,0.2-0.7c0-0.3-0.1-0.5-0.2-0.7c-0.2-0.2-0.5-0.4-1.1-0.6c-0.9-0.3-1.6-0.7-2-1.2c-0.4-0.5-0.6-1.1-0.6-1.9
		c0-0.5,0.1-1,0.3-1.4c0.2-0.5,0.5-0.8,0.9-1.1c0.4-0.3,1-0.4,1.7-0.4c0.9,0,1.5,0.2,2,0.7c0.5,0.5,0.7,1.2,0.8,2.2l-2,0.2
		c-0.1-0.4-0.2-0.8-0.3-1c-0.2-0.2-0.4-0.3-0.7-0.3c-0.2,0-0.4,0.1-0.5,0.2c-0.1,0.2-0.2,0.3-0.2,0.6c0,0.2,0.1,0.3,0.2,0.4
		c0.1,0.1,0.3,0.3,0.7,0.4c0.9,0.3,1.6,0.6,2,0.9c0.4,0.3,0.7,0.7,0.9,1.1c0.2,0.4,0.3,0.9,0.3,1.5c0,0.6-0.1,1.2-0.4,1.8
		c-0.2,0.5-0.6,0.9-1,1.2c-0.4,0.3-1,0.4-1.6,0.4c-1.1,0-1.9-0.3-2.4-1C497.4,207.1,497.2,206.2,497.1,205.2z"/>
	<path class="st0" d="M508.6,198.6h2.1v5.9c0,0.6-0.1,1.1-0.2,1.7c-0.1,0.5-0.3,1-0.6,1.4s-0.5,0.7-0.8,0.8
		c-0.4,0.2-0.9,0.3-1.5,0.3c-0.3,0-0.7,0-1.1-0.1c-0.4-0.1-0.7-0.2-1-0.4c-0.3-0.2-0.5-0.5-0.7-0.9c-0.2-0.4-0.4-0.8-0.4-1.1
		c-0.1-0.6-0.2-1.2-0.2-1.7v-5.9h2.1v6c0,0.5,0.1,1,0.3,1.3c0.2,0.3,0.5,0.5,0.8,0.5c0.4,0,0.6-0.1,0.8-0.4c0.2-0.3,0.3-0.7,0.3-1.3
		V198.6z"/>
	<path class="st0" d="M512.1,198.6h5.6v2.1h-3.5v1.6h3.2v2h-3.2v2h3.6v2.2h-5.7V198.6z"/>
	<path class="st0" d="M518.5,205.2l2-0.2c0,0.5,0.1,0.8,0.3,1.1c0.2,0.4,0.5,0.6,0.9,0.6c0.3,0,0.5-0.1,0.7-0.3
		c0.2-0.2,0.2-0.4,0.2-0.7c0-0.3-0.1-0.5-0.2-0.7c-0.2-0.2-0.5-0.4-1.1-0.6c-0.9-0.3-1.6-0.7-2-1.2c-0.4-0.5-0.6-1.1-0.6-1.9
		c0-0.5,0.1-1,0.3-1.4c0.2-0.5,0.5-0.8,0.9-1.1c0.4-0.3,1-0.4,1.7-0.4c0.9,0,1.5,0.2,2,0.7c0.5,0.5,0.7,1.2,0.8,2.2l-2,0.2
		c-0.1-0.4-0.2-0.8-0.3-1c-0.2-0.2-0.4-0.3-0.7-0.3c-0.2,0-0.4,0.1-0.5,0.2c-0.1,0.2-0.2,0.3-0.2,0.6c0,0.2,0.1,0.3,0.2,0.4
		c0.1,0.1,0.3,0.3,0.7,0.4c0.9,0.3,1.6,0.6,2,0.9c0.4,0.3,0.7,0.7,0.9,1.1c0.2,0.4,0.3,0.9,0.3,1.5c0,0.6-0.1,1.2-0.4,1.8
		c-0.2,0.5-0.6,0.9-1,1.2c-0.4,0.3-1,0.4-1.6,0.4c-1.1,0-1.9-0.3-2.4-1C518.8,207.1,518.6,206.2,518.5,205.2z"/>
</g>
<path class="st0" d="M846.8-26.2c-0.8-0.9-1.8-1.8-2.8-2.5c-2.6-1.9-5.5-3.1-8.6-4c-1.2-0.4-1.1-0.3-0.9-1.6
	c0.4-2.7,0.7-5.5,0.9-8.2c0.1-1.9-0.3-3.8-1.1-5.5c-1.4-2.9-4.1-4.4-7.3-4.1c-2.5,0.3-4.8,1.3-6.9,2.8c-2.1,1.4-4,3-6,4.6
	c-1.7-1.3-3.3-2.8-5.1-4c-2-1.5-4.2-2.6-6.7-3.1c-4-0.8-7.2,0.9-8.6,4.8c-0.4,1-0.6,2.1-0.7,3.3c-0.4,3.3,0.1,6.5,0.8,9.6
	c0.3,1.6,0.3,1.3-1,1.7c-3.6,1.2-7.2,2.6-10.1,5.2c-4.1,3.7-4.1,8.3,0,11.9c0.7,0.7,1.5,1.3,2.4,1.8c2.3,1.1,4.6,2.1,6.9,3.2
	c0.6,0.3,1.3,0.5,2,0.7c-0.1,0.4-0.2,0.8-0.2,1.1c-0.3,2.7-0.7,5.4-0.9,8.1c-0.1,2,0.3,4.1,1.2,5.9c1.4,2.8,4.1,4.4,7.2,3.8
	c1.7-0.3,3.5-0.8,4.9-1.7c2.5-1.5,4.7-3.4,7.1-5.1c0.3-0.2,0.5-0.4,0.6-0.5c2.4,1.8,4.6,3.5,6.9,5.1c1.8,1.2,3.8,2,5.9,2.3
	c3.4,0.5,6.2-1.1,7.5-4.2c0.5-1.3,0.8-2.7,1-4.1c0.4-3.3-0.1-6.5-0.8-9.6c-0.1-0.4-0.2-0.8-0.2-1.2c0.4-0.2,0.7-0.2,1-0.3
	c2.3-1,4.8-1.8,7-3c1.7-0.9,3.3-2.2,4.6-3.7C849.3-19.8,849.2-23.4,846.8-26.2L846.8-26.2z M825.4-48.9c0.4-0.2,0.8-0.3,1.3-0.3
	c2.6-0.5,4.3,0.6,5.2,3.1c0.8,2.6,0.7,5.3,0.3,7.9c-0.2,1.3-0.5,2.5-0.7,3.8c-0.1,0.5-0.3,0.6-0.8,0.5c-2.7-0.5-5.4-0.8-8.1-1.3
	c-0.3,0-0.6-0.2-0.8-0.4c-1.8-2.3-3.6-4.6-5.5-7C819-45.3,821.8-47.7,825.4-48.9L825.4-48.9z M799.9-18.1c1.4,2.4,2.7,4.7,4.1,7.2
	c-2.2-0.4-4.2-0.7-6.3-1.1C798.4-14.1,799.1-16,799.9-18.1L799.9-18.1z M799.8-25.3c-0.7-1.9-1.4-3.7-2.1-5.8
	c2.1-0.4,4.1-0.7,6.3-1.1c-1.4,2.4-2.7,4.6-3.9,6.9C799.9-25.3,799.9-25.3,799.8-25.3L799.8-25.3z M801.9-20.9c-0.2-0.3-0.2-1,0-1.3
	c1.8-3.3,3.7-6.5,5.6-9.7c0.2-0.3,0.7-0.6,1.1-0.6c1.9-0.1,3.8,0,5.6,0l0,0c1.8,0,3.7,0,5.5,0c0.4,0,1,0.3,1.1,0.6
	c1.9,3.2,3.8,6.5,5.6,9.7c0.2,0.3,0.2,1,0,1.3c-1.8,3.3-3.7,6.5-5.6,9.6c-0.2,0.3-0.7,0.7-1.1,0.7c-3.7,0-7.4,0-11.1,0
	c-0.4,0-0.9-0.3-1.1-0.7C805.5-14.4,803.7-17.6,801.9-20.9L801.9-20.9z M828.4-18.1c0.8,2.1,1.5,3.9,2.2,6c-2.1,0.4-4.1,0.7-6,1.1
	c0-0.1-0.1-0.2-0.1-0.3C825.7-13.4,827-15.6,828.4-18.1z M824.3-32.2c2.2,0.4,4.1,0.7,6.3,1.1c-0.8,2.1-1.5,3.9-2.2,6
	C827-27.5,825.7-29.7,824.3-32.2L824.3-32.2z M814.1-40.5c1.4,1.6,2.6,3.1,4.1,4.9h-8.1C811.5-37.4,812.8-38.9,814.1-40.5z
	 M796-44.6c0.7-4.2,3.1-5.7,7.2-4.2c3.5,1.3,6.2,3.7,8.9,6.2c-0.2,0.3-0.3,0.4-0.5,0.6c-1.6,2-3.3,4.1-4.9,6.1
	c-0.3,0.3-0.7,0.6-1.1,0.7c-2.6,0.5-5.3,0.8-7.9,1.3c-0.4,0.1-0.7,0.1-0.8-0.5C796.1-37.8,795.5-41.1,796-44.6L796-44.6z
	 M795.1-13.5c-0.2,0.5-0.3,0.8-1,0.5c-2.7-0.8-5.4-1.8-7.7-3.4c-1-0.7-2-1.5-2.8-2.4c-0.6-0.7-0.9-1.7-1.3-2.7c0.5-1,0.7-2,1.3-2.7
	c0.9-1,2-2.1,3.2-2.7c2.3-1.2,4.8-2.1,7.2-3.2c0.6-0.2,0.8-0.1,1,0.5c0.9,2.5,1.9,4.9,2.8,7.4c0.2,0.4,0.2,0.9,0,1.2
	C797-18.5,796-16,795.1-13.5L795.1-13.5z M802.4,6c-3.3,1-5.4-0.3-6.2-3.6c-0.8-3.2-0.3-6.4,0.3-9.5c0.4-2.1,0.4-2,2.5-1.6
	c2.1,0.3,4.1,0.7,6.2,0.9c0.7,0.1,1.1,0.3,1.6,0.9c1.7,2.2,3.4,4.3,5.2,6.6C809.1,2.3,806.2,4.8,802.4,6L802.4,6z M810.1-7.4h8.1
	c-1.4,1.7-2.6,3.2-4,4.9C812.8-4.2,811.5-5.7,810.1-7.4L810.1-7.4z M832.3,1.4c-0.7,4.3-3.1,5.8-7.2,4.3c-2.6-1-7-4.1-8.8-6.2
	c1.3-1.6,2.8-3.1,3.9-4.9c1.2-1.9,2.7-2.8,4.9-2.8c1.8,0,3.6-0.6,5.4-0.9c0.4-0.1,0.8-0.2,1,0.5C832.2-5.3,832.8-2,832.3,1.4
	L832.3,1.4z M844.4-18.6c-0.9,1-2,2-3.3,2.6c-2.2,1.1-4.6,2-6.9,3c-0.7,0.3-0.9,0-1.1-0.6c-0.9-2.4-1.8-4.8-2.8-7.2
	c-0.2-0.4-0.2-0.9,0-1.3c0.9-2.4,1.8-4.9,2.8-7.3c0.2-0.4,0.3-0.8,0.9-0.7c3.1,1,6.1,2.1,8.7,4.1c0.8,0.6,1.5,1.3,2.1,2.2
	c0.5,0.7,0.7,1.5,1.1,2.5C845.4-20.5,845.1-19.4,844.4-18.6L844.4-18.6z M814.1-31.6c-5.5,0-10.1,4.5-10.1,10.1s4.5,10.1,10.1,10.1
	c5.5,0,10.1-4.5,10.1-10.1S819.7-31.6,814.1-31.6L814.1-31.6z M815.5-23.1l0.8-0.8l1.5,1.5l1.5-1.5l0.8,0.8l-1.5,1.5l1.5,1.5
	l-0.8,0.8l-1.5-1.5l-1.5,1.5l-0.8-0.8l1.5-1.5L815.5-23.1z M808-23.1l0.8-0.8l1.5,1.5l1.5-1.5l0.8,0.8l-1.5,1.5l1.5,1.5l-0.8,0.8
	l-1.5-1.5l-1.5,1.5l-0.8-0.8l1.5-1.5L808-23.1z M819.3-15.8c-3,1.6-6.6,1.6-9.7,0.2l-1.6-0.8c-0.3-0.2-0.4-0.6-0.2-0.9l0.7-0.8
	l1,0.5c3.3,1.6,7,1.7,10.4,0.2l0,0l0.7,0.8L819.3-15.8L819.3-15.8z"/>
<path class="st2" d="M524.1,266.5H388.9c-3.3,0-6-2.7-6-6v-20.1c0-3.3,2.7-6,6-6h135.2c3.3,0,6,2.7,6,6v20.1
	C530.1,263.8,527.4,266.5,524.1,266.5z"/>
<path class="st0" d="M399.8,240c-5.8,0-10.5,4.7-10.5,10.5c0,5.8,4.7,10.5,10.5,10.5s10.5-4.7,10.5-10.5
	C410.3,244.7,405.6,240,399.8,240z M401.2,248.7l0.9-0.9l1.6,1.6l1.6-1.6l0.9,0.9l-1.6,1.6l1.6,1.6l-0.9,0.9l-1.6-1.6l-1.6,1.6
	l-0.9-0.9l1.6-1.6L401.2,248.7z M393.5,248.7l0.9-0.9l1.6,1.6l1.6-1.6l0.9,0.9l-1.6,1.6l1.6,1.6l-0.9,0.9l-1.6-1.6l-1.6,1.6
	l-0.9-0.9l1.6-1.6L393.5,248.7z M405.1,256.4c-3.1,1.7-6.9,1.7-10.1,0.2l-1.7-0.8c-0.3-0.2-0.5-0.6-0.2-0.9l0.7-0.8l1,0.5
	c3.4,1.7,7.3,1.8,10.7,0.2h0.1l0.7,0.8L405.1,256.4z"/>
<g>
	<path class="st0" d="M416.2,245.2h3.3c0.6,0,1.2,0.1,1.6,0.4c0.4,0.3,0.7,0.6,1,1.1c0.3,0.5,0.5,1,0.6,1.7c0.1,0.6,0.2,1.3,0.2,2
		c0,1.1-0.1,2-0.3,2.6c-0.2,0.6-0.4,1.1-0.7,1.6s-0.6,0.7-1,0.8c-0.5,0.2-0.9,0.3-1.3,0.3h-3.3V245.2z M418.4,247.6v5.8h0.5
		c0.5,0,0.8-0.1,1-0.2c0.2-0.2,0.3-0.4,0.5-0.8c0.1-0.4,0.2-1,0.2-1.8c0-1.1-0.1-1.9-0.4-2.3s-0.7-0.6-1.2-0.6H418.4z"/>
	<path class="st0" d="M424,255.7v-10.6h3.7c0.7,0,1.2,0.1,1.6,0.3s0.7,0.5,0.9,1c0.2,0.5,0.3,1,0.3,1.7c0,0.6-0.1,1.1-0.3,1.5
		c-0.2,0.4-0.4,0.8-0.7,1c-0.2,0.2-0.4,0.3-0.8,0.4c0.3,0.1,0.5,0.3,0.6,0.4c0.1,0.1,0.2,0.3,0.4,0.6c0.2,0.3,0.3,0.5,0.3,0.7
		l1.1,3.1h-2.5l-1.2-3.2c-0.1-0.4-0.3-0.7-0.4-0.8c-0.2-0.2-0.3-0.2-0.5-0.2h-0.2v4.3H424z M426.2,249.5h0.9c0.1,0,0.3,0,0.6-0.1
		c0.1,0,0.3-0.2,0.4-0.3c0.1-0.2,0.1-0.4,0.1-0.6c0-0.3-0.1-0.6-0.2-0.8s-0.4-0.3-0.8-0.3h-1V249.5z"/>
	<path class="st0" d="M431.3,250.5c0-1.7,0.3-3.1,1-4c0.7-1,1.6-1.4,2.7-1.4c1.2,0,2.1,0.5,2.8,1.4c0.6,0.9,1,2.3,1,4
		c0,1.2-0.1,2.2-0.4,3c-0.3,0.8-0.7,1.4-1.2,1.8c-0.5,0.4-1.2,0.7-2,0.7c-0.8,0-1.5-0.2-2-0.6s-1-1-1.3-1.8
		C431.4,252.7,431.3,251.7,431.3,250.5z M433.5,250.5c0,1.1,0.1,1.8,0.4,2.3c0.3,0.5,0.6,0.7,1.1,0.7c0.5,0,0.8-0.2,1.1-0.7
		c0.3-0.5,0.4-1.3,0.4-2.5c0-1-0.1-1.7-0.4-2.2s-0.6-0.7-1.1-0.7c-0.4,0-0.8,0.2-1.1,0.7C433.6,248.6,433.5,249.4,433.5,250.5z"/>
	<path class="st0" d="M439.9,245.2h3.7c0.8,0,1.4,0.3,1.8,0.8s0.6,1.4,0.6,2.4c0,1.1-0.2,1.9-0.7,2.5c-0.4,0.6-1.1,0.9-2,0.9h-1.2
		v3.9h-2.2V245.2z M442.1,249.7h0.5c0.4,0,0.7-0.1,0.9-0.3c0.2-0.2,0.3-0.5,0.3-0.8c0-0.3-0.1-0.6-0.2-0.8s-0.4-0.3-0.8-0.3h-0.6
		V249.7z"/>
	<path class="st0" d="M454.9,254h-2.5l-0.4,1.7h-2.3l2.7-10.6h2.4l2.7,10.6h-2.3L454.9,254z M454.4,251.7l-0.8-3.8l-0.8,3.8H454.4z"
		/>
	<path class="st0" d="M458.3,245.2h2.1l2.7,5.8v-5.8h2.1v10.6h-2.1l-2.7-5.8v5.8h-2.1V245.2z"/>
	<path class="st0" d="M470,245.2h5.9v2.3h-3.7v1.7h3.5v2.2h-3.5v2.1h3.8v2.4h-6V245.2z"/>
	<path class="st0" d="M476.7,245.2h2.4l1.3,3.2l1.2-3.2h2.4l-2.2,5.1l2.4,5.4h-2.5l-1.4-3.4l-1.4,3.4h-2.5l2.5-5.5L476.7,245.2z"/>
	<path class="st0" d="M489.4,254h-2.5l-0.4,1.7h-2.3l2.7-10.6h2.4l2.7,10.6h-2.3L489.4,254z M489,251.7l-0.8-3.8l-0.8,3.8H489z"/>
	<path class="st0" d="M492.8,245.2h2.9l1.1,6.4l1.1-6.4h2.9v10.6H499v-8l-1.4,8H496l-1.4-8v8h-1.8V245.2z"/>
	<path class="st0" d="M502.3,245.2h3.7c0.8,0,1.4,0.3,1.8,0.8s0.6,1.4,0.6,2.4c0,1.1-0.2,1.9-0.7,2.5c-0.4,0.6-1.1,0.9-2,0.9h-1.2
		v3.9h-2.2V245.2z M504.5,249.7h0.5c0.4,0,0.7-0.1,0.9-0.3c0.2-0.2,0.3-0.5,0.3-0.8c0-0.3-0.1-0.6-0.2-0.8s-0.4-0.3-0.8-0.3h-0.6
		V249.7z"/>
	<path class="st0" d="M509.5,245.2h2.2v8h3.5v2.6h-5.7V245.2z"/>
	<path class="st0" d="M516.2,245.2h5.9v2.3h-3.7v1.7h3.5v2.2h-3.5v2.1h3.8v2.4h-6V245.2z"/>
</g>
<polygon class="st1" points="649.1,-16.1 649.2,-16.2 649.1,-16.2 "/>
<path class="st1" d="M649.3-14.7c0,0-0.1,0-0.1,0.1c0,0.1,0,0.1,0.1,0.1c0,0,0.1,0,0.1-0.1C649.3-14.6,649.3-14.7,649.3-14.7z"/>
<path class="st1" d="M650.2-8.8C650.1-8.8,650.1-8.8,650.2-8.8c0,0.1,0,0.1,0,0.1C650.2-8.7,650.2-8.7,650.2-8.8
	C650.2-8.8,650.2-8.8,650.2-8.8z"/>
<path class="st1" d="M650.6-8.5c0,0-0.1,0-0.1,0.1c0,0.1,0,0.1,0.1,0.1c0,0,0.1,0,0.1-0.1C650.7-8.5,650.7-8.5,650.6-8.5z"/>
<path class="st1" d="M652.6-15.4c0,0-0.1,0-0.1,0.1c0,0.1,0,0.1,0.1,0.1c0,0,0.1,0,0.1-0.1C652.6-15.3,652.6-15.4,652.6-15.4z"/>
<polygon class="st1" points="656.6,-5.4 656.6,-5.6 656.5,-5.6 "/>
<path class="st1" d="M657.7-19.3l0.1-0.1c0-0.1-0.1-0.1-0.1-0.1c0,0-0.1,0-0.1,0h-0.1L657.7-19.3z"/>
<rect x="657.8" y="-18.7" class="st1" width="0.1" height="0.1"/>
<polygon class="st1" points="658,-19.2 658.1,-19.3 658,-19.4 657.9,-19.3 "/>
<path class="st1" d="M658.2-15.3c0,0-0.1,0-0.1,0.1c0,0-0.1,0.1-0.1,0.2c0,0,0.1,0,0.1,0C658.2-15.1,658.2-15.1,658.2-15.3
	L658.2-15.3z"/>
<path class="st1" d="M658.5-15.6c0,0.1,0,0.2,0,0.2c0,0.1,0.1,0.1,0.1,0.1h0l0.1-0.1v0c0-0.1,0-0.2-0.1-0.2
	C658.6-15.6,658.5-15.6,658.5-15.6z"/>
<path class="st1" d="M660.1-5.8L660.1-5.8c0.1,0,0.1,0,0.1-0.1l0-0.1c0,0,0,0,0,0c0,0,0,0,0,0v0c0,0,0-0.1-0.1-0.1
	c0,0-0.1-0.1-0.1-0.1V-5.8z"/>
<rect x="660.1" y="-5.4" class="st1" width="0.1" height="0.1"/>
<path class="st1" d="M660.4-6.5C660.4-6.5,660.4-6.5,660.4-6.5c0,0.1,0,0.1,0,0.1S660.4-6.4,660.4-6.5
	C660.4-6.5,660.4-6.5,660.4-6.5z"/>
<path class="st1" d="M661.2-7.4C661.2-7.4,661.2-7.5,661.2-7.4c0-0.1,0-0.1,0-0.1l0,0c0,0,0,0,0,0c0,0,0,0,0,0c0,0,0.1-0.1,0.1-0.1
	c0,0,0.1-0.1,0.1-0.1c0,0,0,0,0.1-0.1c0.1,0,0.1,0,0.1,0c0,0,0,0,0,0c0,0,0,0,0,0c0,0,0,0.1,0,0.1c0,0,0,0.1,0,0.1c0,0,0,0-0.1,0.1
	c-0.1,0-0.1,0-0.1,0.1c0,0-0.1,0-0.1,0.1C661.3-7.5,661.3-7.5,661.2-7.4C661.3-7.5,661.2-7.5,661.2-7.4L661.2-7.4L661.2-7.4
	c0.1,0.1,0.1,0.1,0.1,0.2c0,0.1,0,0.1,0,0.1h0h0c0,0,0,0,0-0.1c0,0,0-0.1,0-0.1C661.2-7.3,661.2-7.3,661.2-7.4
	C661.2-7.4,661.2-7.4,661.2-7.4z"/>
<path class="st1" d="M662.5-15C662.5-15,662.5-15,662.5-15c0,0.1,0,0.2,0,0.2C662.5-14.8,662.6-14.8,662.5-15
	C662.6-15,662.5-15,662.5-15z"/>
<path class="st1" d="M663-14.8C663-14.8,663-14.8,663-14.8c0,0.1,0,0.2,0,0.2C663-14.7,663-14.7,663-14.8
	C663-14.8,663-14.8,663-14.8z"/>
<polygon class="st1" points="663.5,-17.3 663.5,-17.4 663.4,-17.4 "/>
<polygon class="st1" points="663.7,-14.7 663.8,-14.7 663.7,-14.7 "/>
<path class="st1" d="M669-16.6C669-16.6,669-16.5,669-16.6c-0.1,0.1,0,0.2,0,0.2C669.1-16.4,669.1-16.4,669-16.6
	C669.1-16.5,669.1-16.6,669-16.6z"/>
<path class="st1" d="M669.3-15c0,0.1,0,0.1,0.1,0.1c0,0,0.1,0,0.1,0c0.1,0,0.1,0,0.2-0.1c0,0,0.1-0.1,0.1-0.2c0,0,0-0.1,0-0.1
	c0-0.1,0-0.1-0.1-0.1c0,0.1,0,0.1,0,0.2c0,0-0.1,0.1-0.1,0.1c0,0-0.1,0-0.1,0.1C669.4-15,669.3-15,669.3-15z"/>
<path class="st1" d="M669.5-14.5c0,0.1,0.1,0.1,0.1,0.1v-0.1H669.5z"/>
<path class="st1" d="M669.7-14.7c0.1,0,0.2,0.1,0.2,0.2c0,0.2,0,0.3,0,0.3c0.1-0.1,0.2-0.3,0.2-0.5c0-0.2,0-0.4,0-0.6
	c0,0,0-0.1,0-0.1c0,0,0,0-0.1-0.1c0,0.2,0,0.3-0.1,0.4C669.9-14.8,669.8-14.7,669.7-14.7L669.7-14.7z"/>
<rect x="670" y="-4.8" class="st1" width="0.1" height="0.1"/>
<path class="st1" d="M670.2-18c0,0.1-0.1,0.1-0.1,0.2h0.1V-18z"/>
<path class="st1" d="M670.3-5.4C670.3-5.5,670.3-5.5,670.3-5.4C670.2-5.5,670.2-5.5,670.3-5.4C670.2-5.4,670.2-5.4,670.3-5.4
	C670.3-5.4,670.3-5.4,670.3-5.4z"/>
<path class="st1" d="M670.5-5c-0.1,0-0.2,0-0.2,0.1c0,0.1,0,0.1,0,0.2c0,0.1,0.1,0.1,0.2,0.2c0.1,0.1,0.2,0.1,0.4,0.1c0,0,0,0,0-0.1
	c0-0.1-0.1-0.1-0.1-0.2C670.7-4.8,670.7-4.8,670.5-5C670.6-5,670.5-5,670.5-5z"/>
<path class="st1" d="M670.3-16.7c0,0.1,0,0.2,0.1,0.2v-0.2H670.3z"/>
<path class="st1" d="M670.4-4.5C670.4-4.5,670.4-4.5,670.4-4.5c0,0.2,0,0.2,0,0.2C670.4-4.3,670.5-4.4,670.4-4.5
	C670.5-4.5,670.4-4.5,670.4-4.5z"/>
<rect x="670.5" y="-17" class="st1" width="0.1" height="0.1"/>
<ellipse class="st1" cx="670.5" cy="-17.6" rx="0" ry="0.1"/>
<path class="st1" d="M670.7-5.3c0,0.1,0,0.2,0.1,0.2c0,0,0,0,0-0.1C670.7-5.1,670.7-5.2,670.7-5.3C670.7-5.3,670.7-5.3,670.7-5.3
	L670.7-5.3z"/>
<path class="st1" d="M671.1-7.1c0,0-0.1,0.1-0.2,0.2c-0.1,0.1-0.1,0.2-0.1,0.2l0.4,0.2L671.1-7.1z"/>
<path class="st1" d="M670.9-17.9C670.9-17.9,670.9-17.9,670.9-17.9C670.9-17.8,670.9-17.8,670.9-17.9
	C670.9-17.8,670.9-17.8,670.9-17.9C670.9-17.9,670.9-17.9,670.9-17.9z"/>
<path class="st1" d="M671.9-18.9c-0.1,0-0.1,0-0.1,0.1c0,0.1,0,0.2,0,0.2v0.1c0,0,0.1-0.1,0.2-0.1c0.1-0.1,0.1-0.1,0.1-0.2
	C672-18.9,671.9-18.9,671.9-18.9L671.9-18.9z"/>
<polygon class="st1" points="672,-5.9 672,-6 672,-6 "/>
<path class="st1" d="M672.4-6c-0.1,0-0.1,0-0.1,0.1h0.2C672.5-6,672.4-6,672.4-6z"/>
<path class="st1" d="M672.5-19C672.5-19,672.5-18.9,672.5-19c0,0.1,0,0.2,0,0.2C672.6-18.8,672.6-18.8,672.5-19
	C672.6-18.9,672.6-19,672.5-19z"/>
<path class="st1" d="M672.8-8C672.8-8,672.8-8,672.8-8c0,0.1,0,0.1,0,0.1C672.9-7.9,672.9-8,672.8-8C672.9-8,672.9-8,672.8-8z"/>
<path class="st1" d="M672.9-8.4C672.9-8.4,672.9-8.4,672.9-8.4c0,0.2,0,0.2,0,0.2C672.9-8.2,673-8.2,672.9-8.4
	C673-8.4,672.9-8.4,672.9-8.4z"/>
<path class="st1" d="M673-18.7C673-18.7,673-18.7,673-18.7c0,0.1,0,0.2,0,0.2C673.1-18.5,673.1-18.5,673-18.7
	C673.1-18.7,673.1-18.7,673-18.7z"/>
<path class="st1" d="M673.3-17.9L673.3-17.9c0.1-0.1,0.1-0.1,0-0.2V-17.9z"/>
<path class="st1" d="M674-8.4c0,0-0.1,0-0.1,0.1c0,0-0.1,0.1-0.1,0.1h0.1C673.9-8.2,674-8.3,674-8.4z"/>
<path class="st1" d="M675.6-18.3C675.6-18.4,675.6-18.4,675.6-18.3C675.5-18.4,675.5-18.4,675.6-18.3
	C675.5-18.3,675.5-18.3,675.6-18.3C675.5-18.3,675.6-18.3,675.6-18.3z"/>
<rect x="675.8" y="-17" class="st1" width="0.1" height="0.1"/>
<path class="st1" d="M676.7-16.9C676.6-16.9,676.6-16.8,676.7-16.9c0,0.2,0,0.2,0,0.2C676.7-16.7,676.7-16.7,676.7-16.9
	C676.7-16.8,676.7-16.9,676.7-16.9z"/>
<polygon class="st1" points="676.9,-16.4 676.9,-16.4 676.9,-16.5 "/>
<path class="st1" d="M677.1-16.3C677.1-16.3,677.1-16.3,677.1-16.3c0,0.1,0,0.1,0,0.1C677.1-16.2,677.2-16.2,677.1-16.3
	C677.2-16.3,677.1-16.3,677.1-16.3z"/>
<polygon class="st1" points="677.4,-6.2 677.4,-6.2 677.4,-6.3 "/>
<rect x="677.5" y="-15.5" class="st1" width="0.1" height="0.1"/>
<path class="st1" d="M677.5-6.5c0,0,0,0.1,0,0.2c0,0.1,0,0.1,0,0.1c0,0,0,0.1,0.1,0.1c0,0,0,0.1,0.1,0.1v-0.6c0,0,0,0-0.1-0.1h0h0
	c0,0,0,0,0,0.1C677.6-6.7,677.6-6.6,677.5-6.5L677.5-6.5L677.5-6.5z"/>
<path class="st1" d="M677.7-15.7C677.7-15.7,677.7-15.7,677.7-15.7c-0.1,0.1,0,0.2,0,0.2S677.8-15.6,677.7-15.7
	C677.8-15.7,677.8-15.7,677.7-15.7z"/>
<path class="st1" d="M677.8-16.4l0,0.2c0,0,0,0.1,0,0.1c0,0.1,0,0.1,0,0.1v0v0.1c0,0,0,0,0.1-0.1c0,0,0.1-0.1,0.1-0.1
	c0,0,0-0.1,0-0.2c0-0.1,0-0.2,0-0.2H677.8z"/>
<polygon class="st1" points="677.8,-6.9 677.9,-7 677.8,-7.1 677.8,-7 "/>
<path class="st1" d="M678.2-7.3C678.2-7.3,678.2-7.2,678.2-7.3c0,0.1,0,0.1,0,0.1C678.2-7.2,678.2-7.2,678.2-7.3
	C678.2-7.2,678.2-7.3,678.2-7.3z"/>
<path class="st1" d="M678.3-7C678.3-7,678.3-6.9,678.3-7c0,0.1,0,0.1,0,0.2c0,0,0,0.1,0,0.1c0,0,0,0.1,0,0.2c0,0.1,0,0.2,0,0.2
	l0.1,0.1c0,0,0-0.1,0.1-0.1c0-0.1,0-0.1,0-0.1v-0.2v-0.2l0,0c0,0,0,0,0,0c0,0,0,0,0,0C678.4-7,678.4-7,678.3-7L678.3-7
	C678.3-7,678.3-7,678.3-7L678.3-7z"/>
<path class="st1" d="M678.5-16.7C678.4-16.7,678.4-16.7,678.5-16.7c-0.1,0.1,0,0.2,0,0.2C678.5-16.5,678.5-16.5,678.5-16.7
	C678.5-16.7,678.5-16.7,678.5-16.7z"/>
<path class="st1" d="M678.7-18.3C678.7-18.3,678.7-18.3,678.7-18.3c-0.1,0.2,0,0.2,0,0.2C678.7-18.1,678.8-18.2,678.7-18.3
	C678.8-18.3,678.7-18.3,678.7-18.3z"/>
<path class="st1" d="M678.8-18.2C678.7-18.2,678.7-18.2,678.8-18.2c-0.1,0.1,0,0.2,0,0.2C678.8-18.1,678.8-18.1,678.8-18.2
	C678.8-18.2,678.8-18.2,678.8-18.2z"/>
<polygon class="st1" points="678.9,-5.4 679,-5.4 679,-5.5 "/>
<path class="st1" d="M679.4-17.9C679.4-17.9,679.4-17.8,679.4-17.9c-0.1,0.1-0.1,0.2-0.1,0.2v0.1v0c0,0,0,0,0.1-0.1c0,0,0-0.1,0-0.1
	V-17.9L679.4-17.9L679.4-17.9z"/>
<polygon class="st1" points="679.5,-16.4 679.5,-16.5 679.4,-16.5 "/>
<path class="st1" d="M679.5-7.4C679.5-7.4,679.5-7.3,679.5-7.4c-0.1,0.2,0,0.2,0,0.2S679.6-7.2,679.5-7.4
	C679.6-7.3,679.6-7.4,679.5-7.4z"/>
<path class="st1" d="M679.6-16.2C679.6-16.2,679.6-16.1,679.6-16.2c0,0.1,0,0.1,0,0.1c0,0,0,0,0,0.1c0,0,0,0.1,0,0.1h0.1V-16.2z"/>
<polygon class="st1" points="679.6,-16.9 679.7,-16.9 679.7,-17 "/>
<path class="st1" d="M680-17.3C680-17.3,680-17.3,680-17.3c0,0.1,0,0.1,0,0.1C680-17.2,680-17.2,680-17.3
	C680-17.2,680-17.3,680-17.3z"/>
<path class="st1" d="M680.1-16.5c0,0,0,0.1,0,0.1c0,0.1,0,0.1,0,0.1l0,0c0,0,0,0,0,0c0,0,0-0.1,0-0.1c0-0.1,0-0.1,0-0.1
	c0,0,0-0.1,0-0.2c0-0.1,0.1-0.1,0.1-0.1l0,0c0,0,0,0,0,0c0-0.1,0-0.1-0.1-0.1h0h0c0,0,0,0-0.1,0.1c0,0-0.1,0.1-0.1,0.1
	c0,0,0,0,0,0.1c0,0,0,0.1,0,0.1V-16.5L680.1-16.5z"/>
<path class="st1" d="M680.2-15.8C680.2-15.7,680.3-15.7,680.2-15.8c0,0.1,0,0.1,0.1,0.2c0,0.1,0.1,0.1,0.1,0.1c0,0,0-0.1,0-0.1
	c0-0.1,0-0.1,0-0.1s0-0.1,0-0.1c0-0.1,0-0.1,0-0.1c0-0.1,0-0.1-0.1-0.1c0,0-0.1,0-0.1,0.1c0,0,0,0,0,0c0,0,0,0,0,0V-15.8L680.2-15.8
	z"/>
<path class="st1" d="M680.4-17.5C680.4-17.5,680.4-17.5,680.4-17.5c0,0.1,0,0.1-0.1,0.1h0h0C680.4-17.4,680.4-17.5,680.4-17.5
	C680.4-17.5,680.4-17.5,680.4-17.5L680.4-17.5L680.4-17.5z"/>
<ellipse class="st1" cx="680.4" cy="-7.5" rx="0" ry="0.1"/>
<rect x="680.4" y="-6.9" class="st1" width="0.1" height="0.2"/>
<path class="st1" d="M680.5-15.2C680.5-15.2,680.5-15.2,680.5-15.2c0,0,0,0.1,0.1,0.2c0,0.1,0,0.1,0.1,0.1c0,0,0,0,0,0h0
	c0,0,0,0,0,0c0,0,0-0.1,0-0.2c0-0.1,0-0.2,0-0.2c0,0,0-0.1,0-0.1c0-0.1,0-0.1,0-0.1h0h0c0,0,0,0,0,0.1c0,0,0,0,0,0l-0.1,0
	c0,0,0,0,0,0c0,0,0,0,0,0C680.5-15.3,680.5-15.3,680.5-15.2L680.5-15.2L680.5-15.2z"/>
<polygon class="st1" points="681.1,-14.3 681.2,-14.4 681.1,-14.4 "/>
<path class="st1" d="M681.2-14.9c0,0,0,0.1,0,0.2c0,0.1,0,0.2,0,0.2c0,0,0,0,0,0.1c0,0,0,0,0,0c0,0,0,0,0,0c0,0,0,0,0-0.1
	c0-0.1,0.1-0.1,0.1-0.2c0,0,0,0-0.1-0.1C681.3-14.8,681.3-14.9,681.2-14.9L681.2-14.9z"/>
<path class="st1" d="M681.3-7.4C681.3-7.4,681.3-7.4,681.3-7.4c0,0.1,0,0.2,0,0.2C681.3-7.3,681.4-7.3,681.3-7.4
	C681.4-7.4,681.3-7.4,681.3-7.4z"/>
<path class="st1" d="M681.7-16.2C681.7-16.2,681.7-16.2,681.7-16.2c0,0.1,0,0.1,0,0.1C681.8-16.1,681.8-16.1,681.7-16.2z"/>
<path class="st1" d="M682-15.5C682-15.5,682-15.5,682-15.5c-0.1,0.1-0.1,0.1-0.1,0.1c0,0,0,0.1,0,0.1c0,0,0,0.1,0,0.1h0.1V-15.5z"/>
<g>
	<g>
		<g>
			<path class="st3" d="M707.1,27.2h-41.7c-1.6,0-2.9-1.3-2.9-2.9v-41.7c0-1.6,1.3-2.9,2.9-2.9h41.7c1.6,0,2.9,1.3,2.9,2.9v41.7
				C710.1,25.9,708.8,27.2,707.1,27.2z"/>
			<path class="st4" d="M704.7,25.3h-39.2c-1.6,0-2.9-1.3-2.9-2.9v-39.2c0-1.6,1.3-2.9,2.9-2.9h39.2c1.6,0,2.9,1.3,2.9,2.9v39.2
				C707.7,24,706.3,25.3,704.7,25.3z"/>
		</g>
		<text transform="matrix(0.68 0 0 1 673.0215 14.8192)" class="st0" style="font-family:'Arial-Black'; font-size:41.3401px;">w</text>
	</g>
	<g>
		<g>
			<path class="st3" d="M667.2,78h-42.2c-1.6,0-2.9-1.3-2.9-2.9V32.8c0-1.6,1.3-2.9,2.9-2.9h42.2c1.6,0,2.9,1.3,2.9,2.9V75
				C670.1,76.7,668.8,78,667.2,78z"/>
			<path class="st4" d="M663.7,75h-39.2c-1.6,0-2.9-1.3-2.9-2.9V32.8c0-1.6,1.3-2.9,2.9-2.9h39.2c1.6,0,2.9,1.3,2.9,2.9V72
				C666.7,73.6,665.4,75,663.7,75z"/>
		</g>
		<text transform="matrix(0.68 0 0 1 636.4521 65.3153)" class="st0" style="font-family:'Arial-Black'; font-size:41.3401px;">a</text>
	</g>
	<g>
		<g>
			<path class="st3" d="M717,78.2h-41.8c-1.6,0-2.9-1.3-2.9-2.9V32.6c0-1.6,1.3-2.9,2.9-2.9H717c1.6,0,2.9,1.3,2.9,2.9v42.7
				C719.9,76.9,718.6,78.2,717,78.2z"/>
			<path class="st4" d="M714.4,75.2h-39.2c-1.6,0-2.9-1.3-2.9-2.9V33c0-1.6,1.3-2.9,2.9-2.9h39.2c1.6,0,2.9,1.3,2.9,2.9v39.2
				C717.3,73.9,716,75.2,714.4,75.2z"/>
		</g>
		<text transform="matrix(0.68 0 0 1 687.501 65.3158)" class="st0" style="font-family:'Arial-Black'; font-size:41.3401px;">s</text>
	</g>
	<g>
		<g>
			<path class="st3" d="M767.8,78.2h-42.6c-1.6,0-2.9-1.3-2.9-2.9V32.6c0-1.6,1.3-2.9,2.9-2.9h42.6c1.6,0,2.9,1.3,2.9,2.9v42.6
				C770.7,76.9,769.4,78.2,767.8,78.2z"/>
			<path class="st4" d="M764.1,75.1h-39.2c-1.6,0-2.9-1.3-2.9-2.9V33c0-1.6,1.3-2.9,2.9-2.9h39.2c1.6,0,2.9,1.3,2.9,2.9v39.2
				C767,73.8,765.7,75.1,764.1,75.1z"/>
		</g>
		<text transform="matrix(0.68 0 0 1 736.9688 65.3153)" class="st0" style="font-family:'Arial-Black'; font-size:41.3401px;">d</text>
	</g>
</g>
<g>
	<path class="st3" d="M737.5,140.5h-134c-1.6,0-2.9-1.3-2.9-2.9v-23c0-1.6,1.3-2.9,2.9-2.9h134c1.6,0,2.9,1.3,2.9,2.9v23
		C740.4,139.2,739.1,140.5,737.5,140.5z"/>
	<path class="st4" d="M735.2,138.7H603.5c-1.6,0-2.9-1.3-2.9-2.9v-21.2c0-1.6,1.3-2.9,2.9-2.9h131.7c1.6,0,2.9,1.3,2.9,2.9v21.2
		C738.1,137.3,736.8,138.7,735.2,138.7z"/>
</g>
<g>
	<path class="st0" d="M618.4,115.8v4.4h1.7v3.3h-1.7v4.1c0,0.5,0,0.8,0.1,1c0.1,0.2,0.3,0.4,0.5,0.4c0.2,0,0.5-0.1,0.9-0.3l0.2,3.1
		c-0.7,0.2-1.4,0.4-2.1,0.4c-0.8,0-1.3-0.1-1.7-0.4c-0.4-0.3-0.6-0.7-0.8-1.3c-0.2-0.6-0.3-1.5-0.3-2.8v-4.1h-1.1v-3.3h1.1v-2.1
		L618.4,115.8z"/>
	<path class="st0" d="M621.5,120.2h2.8v1.9c0.3-0.8,0.6-1.4,0.8-1.7c0.3-0.3,0.6-0.5,1.1-0.5c0.4,0,0.9,0.2,1.5,0.6l-0.9,3.2
		c-0.4-0.2-0.6-0.3-0.8-0.3c-0.4,0-0.7,0.2-0.9,0.7c-0.3,0.7-0.5,1.9-0.5,3.8v3.9h-3V120.2z"/>
	<path class="st0" d="M628.3,120.2h3.2l1.6,7.7l1.5-7.7h3l-3.1,12.4c-0.4,1.4-0.7,2.4-1.1,2.9c-0.5,0.7-1.3,1-2.4,1
		c-0.4,0-1.1-0.1-2-0.3l-0.2-3.1c0.4,0.2,0.9,0.3,1.5,0.3c0.4,0,0.6-0.1,0.9-0.4c0.2-0.2,0.4-0.7,0.6-1.3L628.3,120.2z"/>
	<path class="st0" d="M643.6,115.8h3v3h-3V115.8z M643.6,120.2h3v11.6h-3V120.2z"/>
	<path class="st0" d="M652.2,115.8v4.4h1.7v3.3h-1.7v4.1c0,0.5,0,0.8,0.1,1c0.1,0.2,0.3,0.4,0.5,0.4c0.2,0,0.5-0.1,0.9-0.3l0.2,3.1
		c-0.7,0.2-1.4,0.4-2.1,0.4c-0.8,0-1.3-0.1-1.7-0.4c-0.4-0.3-0.6-0.7-0.8-1.3c-0.2-0.6-0.3-1.5-0.3-2.8v-4.1h-1.1v-3.3h1.1v-2.1
		L652.2,115.8z"/>
	<path class="st0" d="M659.5,120.2h3.2l1.6,7.7l1.5-7.7h3l-3.1,12.4c-0.4,1.4-0.7,2.4-1.1,2.9c-0.5,0.7-1.3,1-2.4,1
		c-0.4,0-1.1-0.1-2-0.3l-0.2-3.1c0.4,0.2,0.9,0.3,1.5,0.3c0.4,0,0.6-0.1,0.9-0.4c0.2-0.2,0.4-0.7,0.6-1.3L659.5,120.2z"/>
	<path class="st0" d="M669,126.1c0-1.8,0.4-3.2,1.2-4.4c0.8-1.1,1.9-1.7,3.3-1.7c1.6,0,2.8,0.7,3.6,2c0.6,1.1,1,2.4,1,4
		c0,1.8-0.4,3.2-1.2,4.4c-0.8,1.1-1.9,1.7-3.3,1.7c-1.3,0-2.3-0.5-3.1-1.4C669.5,129.5,669,128,669,126.1z M672.1,126.1
		c0,1,0.1,1.8,0.4,2.3c0.3,0.5,0.6,0.7,1.1,0.7c0.4,0,0.8-0.2,1.1-0.7c0.3-0.5,0.4-1.3,0.4-2.3c0-1-0.1-1.8-0.4-2.2
		c-0.3-0.5-0.6-0.7-1-0.7c-0.4,0-0.8,0.2-1.1,0.7C672.2,124.3,672.1,125,672.1,126.1z"/>
	<path class="st0" d="M687.8,131.8H685V130c-0.4,0.8-0.8,1.3-1.3,1.6c-0.4,0.3-1,0.5-1.6,0.5c-0.8,0-1.5-0.4-2-1.1s-0.7-1.9-0.7-3.4
		v-7.4h3v6.4c0,0.7,0.1,1.2,0.3,1.6c0.2,0.3,0.4,0.5,0.8,0.5c0.4,0,0.7-0.2,0.9-0.6c0.2-0.4,0.3-1.1,0.3-2.2v-5.6h3V131.8z"/>
	<path class="st0" d="M689.7,120.2h2.8v1.9c0.3-0.8,0.6-1.4,0.8-1.7c0.3-0.3,0.6-0.5,1.1-0.5c0.4,0,0.9,0.2,1.5,0.6l-0.9,3.2
		c-0.4-0.2-0.6-0.3-0.8-0.3c-0.4,0-0.7,0.2-0.9,0.7c-0.3,0.7-0.5,1.9-0.5,3.8v3.9h-3V120.2z"/>
	<path class="st0" d="M696.3,128.6l3-0.4c0.1,0.5,0.3,0.9,0.5,1.1c0.2,0.2,0.5,0.3,0.9,0.3c0.4,0,0.7-0.1,0.9-0.4
		c0.2-0.2,0.3-0.4,0.3-0.7c0-0.3-0.1-0.6-0.3-0.7c-0.2-0.1-0.6-0.3-1.3-0.5c-1-0.3-1.8-0.5-2.2-0.7c-0.4-0.2-0.8-0.6-1-1.2
		c-0.3-0.5-0.4-1.2-0.4-1.9c0-0.8,0.2-1.4,0.5-2c0.3-0.6,0.7-1,1.2-1.2s1.2-0.4,2.1-0.4c0.9,0,1.6,0.1,2.1,0.3
		c0.4,0.2,0.8,0.5,1.1,1c0.3,0.4,0.5,1,0.7,1.8l-2.9,0.4c-0.1-0.4-0.2-0.6-0.4-0.8c-0.2-0.2-0.5-0.3-0.9-0.3c-0.3,0-0.6,0.1-0.7,0.3
		c-0.2,0.2-0.2,0.4-0.2,0.6c0,0.3,0.1,0.5,0.3,0.6c0.2,0.1,0.6,0.3,1.3,0.4c1,0.2,1.8,0.4,2.2,0.7c0.5,0.3,0.9,0.7,1.1,1.3
		c0.3,0.6,0.4,1.2,0.4,1.8c0,0.7-0.1,1.3-0.4,2c-0.3,0.6-0.7,1.1-1.3,1.5c-0.6,0.4-1.4,0.6-2.4,0.6c-1.4,0-2.5-0.3-3.1-0.9
		C696.8,130.6,696.4,129.7,696.3,128.6z"/>
	<path class="st0" d="M714.8,127.1h-6.1c0.1,0.7,0.2,1.2,0.4,1.6c0.3,0.5,0.7,0.8,1.1,0.8c0.3,0,0.6-0.1,0.8-0.3
		c0.2-0.1,0.3-0.4,0.5-0.7l3,0.4c-0.5,1.2-1,2-1.6,2.5c-0.6,0.5-1.6,0.8-2.8,0.8c-1,0-1.9-0.2-2.5-0.6c-0.6-0.4-1.1-1.1-1.5-2.1
		c-0.4-0.9-0.6-2.1-0.6-3.3c0-1.8,0.4-3.3,1.2-4.4c0.8-1.1,1.9-1.7,3.3-1.7c1.1,0,2,0.3,2.7,0.8s1.2,1.2,1.5,2.2
		c0.3,1,0.5,2.2,0.5,3.7V127.1z M711.8,125c-0.1-0.9-0.2-1.5-0.5-1.8c-0.3-0.4-0.6-0.6-1-0.6c-0.5,0-0.9,0.3-1.2,0.8
		c-0.2,0.3-0.3,0.9-0.3,1.6H711.8z"/>
	<path class="st0" d="M716.3,115.8h3v16h-3V115.8z"/>
	<path class="st0" d="M724.7,120.2h1.4v3.3h-1.4v8.3h-3v-8.3h-1.1v-3.3h1.1v-0.5c0-0.5,0-1,0.1-1.6c0.1-0.6,0.2-1,0.4-1.4
		c0.2-0.4,0.5-0.7,0.8-0.9c0.3-0.2,0.8-0.3,1.5-0.3c0.5,0,1.3,0.1,2.3,0.3l-0.3,2.7c-0.4-0.1-0.7-0.1-0.9-0.1
		c-0.3,0-0.5,0.1-0.6,0.2c-0.1,0.1-0.2,0.3-0.3,0.6C724.7,119.4,724.7,119.7,724.7,120.2z"/>
</g>
<polygon class="st1" points="741,181.5 741.1,181.4 741,181.4 "/>
<path class="st1" d="M741.2,182.9c0,0-0.1,0-0.1,0.1c0,0.1,0,0.1,0.1,0.1c0,0,0.1,0,0.1-0.1C741.2,182.9,741.2,182.9,741.2,182.9z"
	/>
<path class="st1" d="M776.9,173.6c-0.1,0-0.1,0.1-0.1,0.2c0,0.1,0,0.2,0.1,0.2c0.1,0,0.1-0.1,0.1-0.2
	C777,173.6,777,173.6,776.9,173.6z"/>
<path class="st1" d="M854.9,134.2l0.1-0.1c0-0.1-0.1-0.1-0.1-0.2c0,0-0.1,0-0.1,0h-0.1L854.9,134.2z"/>
<rect x="855" y="135" class="st1" width="0.1" height="0.2"/>
<polygon class="st1" points="855.3,134.4 855.4,134.2 855.3,134.1 855.2,134.2 "/>
<path class="st1" d="M855.5,139.5c-0.1,0-0.1,0.1-0.2,0.1c0,0.1-0.1,0.1-0.1,0.2c0.1,0,0.1,0,0.2-0.1
	C855.5,139.8,855.5,139.7,855.5,139.5L855.5,139.5z"/>
<path class="st1" d="M855.9,139c0,0.1,0,0.2,0,0.3c0,0.1,0.1,0.2,0.2,0.2h0l0.1-0.2v-0.1c0-0.1,0-0.2-0.1-0.3
	C856.1,139,856,139,855.9,139z"/>
<path class="st1" d="M830.4,139.9c0,0-0.1,0-0.1,0.1c0,0.1,0,0.1,0.1,0.1c0,0,0,0,0-0.1C830.5,139.9,830.4,139.9,830.4,139.9z"/>
<path class="st1" d="M831,140.1c0,0-0.1,0-0.1,0.1c0,0.1,0,0.1,0.1,0.1c0,0,0.1,0,0.1-0.1C831.1,140.2,831.1,140.1,831,140.1z"/>
<polygon class="st1" points="831.7,136.9 831.7,136.8 831.6,136.8 "/>
<polygon class="st1" points="832,140.3 832.1,140.3 832,140.3 "/>
<path class="st1" d="M839,137.8c-0.1,0-0.1,0-0.1,0.1c0,0.1,0,0.1,0.1,0.1c0,0,0.1,0,0.1-0.1C839,137.8,839,137.8,839,137.8z"/>
<path class="st1" d="M839.4,139.9c0,0.1,0,0.2,0.1,0.2c0.1,0,0.1,0,0.2,0c0.1,0,0.2,0,0.2-0.1c0,0,0.1-0.1,0.1-0.3c0,0,0-0.1,0-0.2
	c0-0.1,0-0.1-0.1-0.2c0,0.1,0,0.2,0,0.2c0,0.1-0.1,0.1-0.1,0.2c-0.1,0-0.1,0.1-0.2,0.1C839.4,139.9,839.4,139.9,839.4,139.9z"/>
<path class="st1" d="M839.5,140.6c0,0.1,0.1,0.1,0.2,0.1v-0.1H839.5z"/>
<path class="st1" d="M839.9,140.3c0.1,0,0.2,0.1,0.2,0.3c0,0.2,0,0.4,0,0.4c0.1-0.1,0.2-0.4,0.2-0.6c0-0.3,0-0.5,0-0.7
	c0,0,0-0.1,0-0.1c0,0,0-0.1-0.1-0.1c0,0.2,0,0.4-0.1,0.5C840.1,140.1,840,140.2,839.9,140.3L839.9,140.3z"/>
<path class="st1" d="M840.5,136c-0.1,0.1-0.1,0.2-0.1,0.3h0.1V136z"/>
<path class="st1" d="M840.7,137.7c0,0.2,0.1,0.3,0.2,0.3v-0.3H840.7z"/>
<rect x="840.9" y="137.2" class="st1" width="0.2" height="0.1"/>
<ellipse class="st1" cx="840.9" cy="136.5" rx="0.1" ry="0.1"/>
<path class="st1" d="M841.4,136.1C841.4,136.1,841.4,136.1,841.4,136.1c0,0.1,0,0.1,0,0.1C841.5,136.2,841.5,136.2,841.4,136.1
	C841.5,136.1,841.5,136.1,841.4,136.1z"/>
<path class="st1" d="M842.7,134.7c-0.1,0-0.1,0.1-0.2,0.2c0,0.1,0,0.2,0,0.3v0.2c0.1,0,0.1-0.1,0.2-0.2c0.1-0.1,0.1-0.2,0.1-0.3
	C842.8,134.8,842.8,134.8,842.7,134.7L842.7,134.7z"/>
<path class="st1" d="M843.6,134.7c0,0-0.1,0-0.1,0.1c0,0.1,0,0.1,0.1,0.1c0.1,0,0.1,0,0.1-0.1C843.7,134.7,843.6,134.7,843.6,134.7z
	"/>
<path class="st1" d="M844.2,135c0,0-0.1,0-0.1,0.1c0,0.1,0,0.1,0.1,0.1c0,0,0.1,0,0.1-0.1C844.3,135.1,844.3,135,844.2,135z"/>
<path class="st1" d="M844.6,136.1h0.1c0-0.1,0-0.2-0.1-0.3V136.1z"/>
<path class="st1" d="M847.6,135.5C847.6,135.5,847.6,135.4,847.6,135.5C847.5,135.4,847.5,135.5,847.6,135.5
	C847.5,135.5,847.5,135.5,847.6,135.5C847.6,135.5,847.6,135.5,847.6,135.5z"/>
<rect x="847.9" y="137.3" class="st1" width="0.1" height="0.1"/>
<path class="st1" d="M849,137.4c0,0,0,0,0,0.1c0,0.1,0,0.1,0,0.1c0.1,0,0.1,0,0.1-0.1C849.1,137.5,849.1,137.4,849,137.4z"/>
<polygon class="st1" points="849.3,138 849.4,138 849.4,137.9 "/>
<path class="st1" d="M849.6,138.1C849.6,138.1,849.6,138.2,849.6,138.1c-0.1,0.2,0,0.2,0,0.2S849.7,138.3,849.6,138.1
	C849.7,138.2,849.7,138.1,849.6,138.1z"/>
<rect x="850.1" y="139.2" class="st1" width="0.1" height="0.1"/>
<path class="st1" d="M850.4,138.9c-0.1,0-0.1,0-0.1,0.1c0,0.1,0,0.1,0.1,0.1s0.1,0,0.1-0.1C850.5,139,850.5,138.9,850.4,138.9z"/>
<path class="st1" d="M850.5,138l0,0.2c0,0.1,0,0.1,0,0.2c0,0.1,0,0.1,0,0.2v0.1v0.1c0,0,0.1-0.1,0.1-0.1c0-0.1,0.1-0.1,0.1-0.1
	c0,0,0-0.1,0-0.2c0-0.1,0-0.2,0-0.2H850.5z"/>
<path class="st1" d="M851.4,137.7c-0.1,0-0.1,0-0.1,0.1c0,0.1,0,0.1,0.1,0.1c0,0,0.1,0,0.1-0.1C851.5,137.7,851.4,137.7,851.4,137.7
	z"/>
<path class="st1" d="M851.7,135.5c-0.1,0-0.1,0-0.1,0.1c0,0.1,0,0.1,0.1,0.1c0.1,0,0.1,0,0.1-0.1
	C851.8,135.5,851.8,135.5,851.7,135.5z"/>
<path class="st1" d="M851.8,135.6c-0.1,0-0.1,0-0.1,0.1c0,0.1,0,0.1,0.1,0.1c0,0,0,0,0-0.1C851.9,135.6,851.8,135.6,851.8,135.6z"/>
<path class="st1" d="M852.7,136.1c0,0,0,0.1-0.1,0.1c0,0.1-0.1,0.1-0.1,0.1v0.1v0c0,0,0.1-0.1,0.1-0.1c0-0.1,0.1-0.1,0.1-0.1V136.1
	L852.7,136.1L852.7,136.1z"/>
<polygon class="st1" points="852.8,138 852.8,137.9 852.7,137.9 "/>
<path class="st1" d="M852.9,138.3C852.9,138.3,852.9,138.4,852.9,138.3c0,0.1,0,0.1-0.1,0.1c0,0,0,0.1,0,0.1c0,0.1,0,0.1,0,0.1h0.1
	V138.3z"/>
<polygon class="st1" points="852.9,137.4 853,137.4 853,137.3 "/>
<path class="st1" d="M853.5,136.9C853.4,136.9,853.4,136.9,853.5,136.9c-0.1,0.1,0,0.1,0,0.1C853.5,137,853.5,137,853.5,136.9
	C853.5,136.9,853.5,136.9,853.5,136.9z"/>
<path class="st1" d="M853.5,137.9c0,0,0,0.1,0,0.2c0,0.1,0,0.1,0,0.2l0,0c0,0,0,0,0,0c0,0,0-0.1,0-0.2c0-0.1,0-0.1,0-0.2
	c0,0,0-0.1,0.1-0.2c0-0.1,0.1-0.2,0.1-0.2l0-0.1c0,0,0,0,0-0.1c0-0.1-0.1-0.1-0.1-0.1h-0.1h0c0,0,0,0.1-0.1,0.1
	c0,0.1-0.1,0.1-0.1,0.1c0,0,0,0,0,0.1c0,0.1,0,0.1,0,0.1V137.9L853.5,137.9z"/>
<path class="st1" d="M853.8,138.9C853.8,138.9,853.8,138.9,853.8,138.9c0,0.1,0,0.2,0.1,0.3c0,0.1,0.1,0.1,0.1,0.2c0,0,0-0.1,0-0.2
	c0-0.1,0-0.1,0-0.2s0-0.1,0-0.2c0-0.1,0-0.1,0-0.2c0-0.1,0-0.1-0.1-0.1c-0.1,0-0.1,0-0.1,0.1c0,0,0,0,0,0c0,0,0,0,0,0v0.1V138.9z"/>
<path class="st1" d="M853.9,136.5C853.9,136.5,853.9,136.6,853.9,136.5c-0.1,0.1-0.1,0.1-0.1,0.1h0h0
	C853.9,136.7,854,136.6,853.9,136.5C854,136.6,854,136.6,853.9,136.5L853.9,136.5L853.9,136.5z"/>
<path class="st1" d="M854.1,139.6C854.1,139.7,854.1,139.7,854.1,139.6c0,0.1,0.1,0.1,0.1,0.2c0,0.1,0.1,0.1,0.1,0.1c0,0,0,0,0,0h0
	c0,0,0,0,0,0c0,0,0-0.1,0.1-0.2c0-0.1,0-0.2,0-0.2c0,0,0-0.1,0-0.2c0-0.1,0-0.2,0-0.2h0h0c0,0,0,0,0,0.1c0,0,0,0.1-0.1,0.1l-0.1,0.1
	c0,0,0,0-0.1,0.1c0,0,0,0-0.1,0.1C854.1,139.5,854.1,139.5,854.1,139.6L854.1,139.6L854.1,139.6z"/>
<polygon class="st1" points="854.9,140.8 855,140.7 854.9,140.7 "/>
<path class="st1" d="M855,140c0,0,0,0.1,0,0.3c0,0.1,0,0.2,0,0.3c0,0,0,0,0,0.1c0,0,0,0.1,0,0.1c0,0,0,0,0-0.1c0,0,0-0.1,0-0.1
	c0.1-0.1,0.1-0.2,0.1-0.3c0,0,0-0.1-0.1-0.1c0-0.1-0.1-0.1-0.1-0.1H855z"/>
<path class="st1" d="M855.7,138.3C855.7,138.3,855.7,138.4,855.7,138.3c0,0.1,0,0.1,0,0.1C855.7,138.4,855.7,138.4,855.7,138.3z"/>
<path class="st1" d="M856,139.2C856,139.2,856,139.2,856,139.2c-0.1,0.1-0.1,0.1-0.1,0.1c0,0,0,0.1,0,0.1c0,0.1,0,0.1,0,0.1h0.1
	V139.2z"/>
<rect x="673" y="321.3" class="st1" width="188.5" height="90.6"/>
<g>
	<path class="st0" d="M767.8,361.2c-0.9-1.1-2.1-2.1-3.2-2.9c-3-2.3-6.5-3.6-10-4.7c-1.4-0.5-1.3-0.5-1.1-1.9c0.5-3.2,0.8-6.4,1-9.6
		c0.1-2.3-0.4-4.4-1.4-6.5c-1.6-3.5-4.7-5.1-8.5-4.8c-3,0.3-5.6,1.5-8,3.2s-4.6,3.5-7,5.3c-1.9-1.5-3.9-3.2-6-4.7
		c-2.4-1.7-4.9-3.1-7.8-3.7c-4.7-1-8.4,1-10,5.6c-0.5,1.2-0.7,2.5-0.8,3.8c-0.5,3.8,0.1,7.5,0.9,11.3c0.4,1.9,0.3,1.5-1.1,1.9
		c-4.2,1.4-8.4,3-11.8,6.1c-4.8,4.3-4.8,9.6,0,14c0.8,0.8,1.7,1.5,2.8,2.1c2.6,1.4,5.3,2.5,8,3.7c0.7,0.3,1.5,0.5,2.4,0.8
		c-0.1,0.5-0.3,0.9-0.3,1.4c-0.4,3.2-0.8,6.3-1,9.5c-0.1,2.4,0.4,4.8,1.5,6.9c1.7,3.3,4.8,5.1,8.4,4.4c2-0.3,4.1-0.9,5.7-1.9
		c2.9-1.7,5.5-4,8.3-6c0.3-0.3,0.6-0.5,0.7-0.6c2.8,2.1,5.3,4.1,8,5.9c2.1,1.4,4.4,2.3,6.9,2.6c3.9,0.5,7.2-1.2,8.7-4.9
		c0.6-1.5,1-3.1,1.2-4.7c0.5-3.8-0.1-7.5-0.9-11.3c-0.1-0.5-0.2-0.9-0.3-1.4c0.5-0.1,0.8-0.3,1.2-0.4c2.7-1.2,5.6-2.1,8.2-3.5
		c2-1.1,3.9-2.6,5.3-4.3C770.7,368.7,770.6,364.5,767.8,361.2L767.8,361.2z M743,334.8c0.5-0.2,1-0.3,1.5-0.4c3-0.5,5,0.6,6,3.6
		c1,3,0.8,6.2,0.4,9.3c-0.2,1.5-0.6,2.9-0.8,4.4c-0.1,0.6-0.4,0.7-0.9,0.6c-3.2-0.5-6.3-1-9.5-1.5c-0.3-0.1-0.7-0.3-0.9-0.5
		c-2.1-2.6-4.2-5.3-6.4-8.2C735.4,339.1,738.7,336.2,743,334.8L743,334.8z M713.1,370.8c1.7,2.9,3.2,5.5,4.8,8.3
		c-2.6-0.5-4.9-0.8-7.4-1.3C711.4,375.4,712.2,373.2,713.1,370.8L713.1,370.8z M713,362.3c-0.8-2.2-1.6-4.4-2.4-6.8
		c2.5-0.5,4.8-0.8,7.4-1.3c-1.6,2.8-3.1,5.4-4.6,8C713.2,362.3,713.1,362.3,713,362.3L713,362.3z M715.4,367.4
		c-0.2-0.4-0.3-1.1,0-1.5c2.1-3.8,4.3-7.6,6.6-11.4c0.2-0.4,0.8-0.7,1.2-0.7c2.2-0.1,4.4,0,6.6,0l0,0c2.1,0,4.3-0.1,6.4,0
		c0.5,0,1.1,0.3,1.4,0.7c2.3,3.7,4.4,7.5,6.6,11.4c0.2,0.4,0.2,1.1,0,1.5c-2.1,3.8-4.3,7.5-6.5,11.3c-0.3,0.4-0.8,0.8-1.3,0.8
		c-4.3,0.1-8.7,0.1-13,0c-0.5,0-1.1-0.4-1.3-0.8C719.7,375,717.6,371.2,715.4,367.4L715.4,367.4z M746.4,370.8
		c0.9,2.4,1.7,4.6,2.6,7c-2.5,0.5-4.8,0.8-7.1,1.3c-0.1-0.1-0.1-0.2-0.1-0.3C743.3,376.2,744.8,373.6,746.4,370.8z M741.6,354.3
		c2.6,0.5,4.8,0.8,7.4,1.2c-0.9,2.4-1.7,4.6-2.6,7.1C744.8,359.8,743.3,357.1,741.6,354.3L741.6,354.3z M729.7,344.5
		c1.6,1.9,3.1,3.7,4.8,5.7H725C726.7,348.3,728.2,346.5,729.7,344.5z M708.6,339.8c0.8-5,3.7-6.7,8.4-5c4.1,1.5,7.2,4.2,10.4,7.2
		c-0.2,0.3-0.4,0.5-0.5,0.7c-1.9,2.4-3.8,4.8-5.7,7.1c-0.3,0.4-0.8,0.7-1.4,0.8c-3.1,0.5-6.2,1-9.2,1.5c-0.5,0.1-0.8,0.1-1-0.5
		C708.7,347.7,708,343.8,708.6,339.8L708.6,339.8z M707.6,376c-0.2,0.6-0.4,0.9-1.1,0.6c-3.2-1-6.2-2.1-9-4
		c-1.2-0.8-2.3-1.8-3.2-2.9c-0.7-0.8-1-2-1.5-3.2c0.5-1.2,0.8-2.3,1.5-3.1c1.1-1.2,2.3-2.4,3.7-3.2c2.7-1.4,5.6-2.5,8.4-3.7
		c0.6-0.3,1-0.1,1.2,0.6c1.1,2.9,2.2,5.7,3.3,8.6c0.1,0.5,0.1,1,0,1.4C709.8,370.3,708.7,373.2,707.6,376L707.6,376z M716.1,398.8
		c-3.8,1.2-6.3-0.3-7.2-4.2c-0.9-3.7-0.4-7.5,0.3-11.1c0.5-2.4,0.5-2.3,2.9-1.9c2.4,0.5,4.8,0.8,7.3,1.1c0.8,0.1,1.4,0.4,1.9,1
		c1.9,2.6,4,5.1,6.1,7.7C723.9,394.4,720.5,397.5,716.1,398.8L716.1,398.8z M725,383.2h9.5c-1.6,1.9-3.1,3.7-4.7,5.7
		C728.2,386.9,726.7,385.1,725,383.2L725,383.2z M750.9,393.5c-0.8,5-3.7,6.8-8.4,5c-3.1-1.1-8.2-4.8-10.2-7.3
		c1.5-1.9,3.3-3.6,4.6-5.7c1.4-2.3,3.2-3.2,5.8-3.3c2.1-0.1,4.2-0.6,6.2-1c0.5-0.1,1-0.3,1.2,0.5
		C750.8,385.6,751.5,389.5,750.9,393.5L750.9,393.5z M765,370.1c-1.1,1.2-2.4,2.3-3.8,3c-2.6,1.4-5.3,2.3-8,3.5
		c-0.8,0.3-1.1,0-1.4-0.7c-1-2.8-2.2-5.6-3.2-8.4c-0.2-0.5-0.2-1.1,0-1.5c1-2.8,2.2-5.7,3.2-8.5c0.2-0.5,0.3-1,1-0.8
		c3.6,1.2,7.1,2.4,10.1,4.8c0.9,0.7,1.8,1.5,2.4,2.5c0.6,0.8,0.8,1.8,1.2,2.9C766.2,367.9,765.8,369.2,765,370.1L765,370.1z
		 M729.8,355c-6.5,0-11.8,5.3-11.8,11.8s5.3,11.8,11.8,11.8c6.5,0,11.8-5.3,11.8-11.8C741.5,360.2,736.3,355,729.8,355L729.8,355z
		 M731.3,364.8l1-1l1.8,1.8l1.8-1.8l1,1l-1.8,1.8l1.8,1.8l-1,1l-1.8-1.8l-1.8,1.8l-1-1l1.8-1.8L731.3,364.8z M722.6,364.8l1-1
		l1.8,1.8l1.8-1.8l1,1l-1.8,1.8l1.8,1.8l-1,1l-1.8-1.8l-1.8,1.8l-1-1l1.8-1.8L722.6,364.8z M735.8,373.4c-3.5,1.9-7.7,1.9-11.3,0.3
		l-1.9-0.9c-0.4-0.2-0.5-0.7-0.2-1l0.8-0.9l1.2,0.6c3.8,1.9,8.2,2,12.1,0.3h0.1l0.8,0.9L735.8,373.4L735.8,373.4z"/>
	<g>
		<g>
			<path class="st0" d="M785,338.4h4.9c1,0,1.7,0.2,2.3,0.6c0.6,0.4,1.1,0.9,1.5,1.7c0.4,0.7,0.7,1.6,0.8,2.5c0.2,1,0.3,2,0.3,3
				c0,1.7-0.1,3-0.4,3.9c-0.3,0.9-0.6,1.7-1.1,2.3c-0.5,0.6-1,1-1.5,1.2c-0.7,0.3-1.4,0.4-2,0.4H785V338.4z M788.3,342v8.5h0.8
				c0.7,0,1.2-0.1,1.5-0.3s0.5-0.6,0.7-1.2c0.2-0.6,0.2-1.5,0.2-2.7c0-1.7-0.2-2.8-0.6-3.4c-0.4-0.6-1-0.9-1.8-0.9H788.3z"/>
			<path class="st0" d="M796.5,338.4h8.8v3.3h-5.5v2.5h5.1v3.2h-5.1v3.1h5.7v3.5h-9V338.4z"/>
			<path class="st0" d="M813.8,351.5h-3.7l-0.5,2.6h-3.4l4-15.6h3.6l4,15.6h-3.4L813.8,351.5z M813.1,348.1l-1.2-5.6l-1.2,5.6H813.1
				z"/>
			<path class="st0" d="M818.9,338.4h4.9c1,0,1.7,0.2,2.3,0.6c0.6,0.4,1.1,0.9,1.5,1.7c0.4,0.7,0.7,1.6,0.8,2.5c0.2,1,0.3,2,0.3,3
				c0,1.7-0.1,3-0.4,3.9c-0.3,0.9-0.6,1.7-1.1,2.3c-0.5,0.6-1,1-1.5,1.2c-0.7,0.3-1.4,0.4-2,0.4h-4.9V338.4z M822.2,342v8.5h0.8
				c0.7,0,1.2-0.1,1.5-0.3s0.5-0.6,0.7-1.2c0.2-0.6,0.2-1.5,0.2-2.7c0-1.7-0.2-2.8-0.6-3.4c-0.4-0.6-1-0.9-1.8-0.9H822.2z"/>
		</g>
		<g>
			<path class="st0" d="M784.4,368.9l3.1-0.3c0.1,0.7,0.2,1.3,0.4,1.7c0.3,0.6,0.8,0.9,1.5,0.9c0.5,0,0.8-0.2,1.1-0.5
				c0.3-0.3,0.4-0.7,0.4-1.1c0-0.4-0.1-0.8-0.4-1.1s-0.8-0.6-1.7-0.9c-1.4-0.5-2.5-1.1-3.1-1.9c-0.6-0.8-0.9-1.8-0.9-3
				c0-0.8,0.2-1.6,0.5-2.3c0.3-0.7,0.8-1.3,1.4-1.7c0.6-0.4,1.5-0.6,2.6-0.6c1.4,0,2.4,0.4,3.1,1.1c0.7,0.7,1.1,1.9,1.3,3.5
				l-3.1,0.3c-0.1-0.7-0.3-1.2-0.5-1.5c-0.3-0.3-0.6-0.5-1.1-0.5c-0.4,0-0.7,0.1-0.9,0.4c-0.2,0.2-0.3,0.5-0.3,0.9
				c0,0.2,0.1,0.5,0.2,0.7c0.2,0.2,0.5,0.4,1.1,0.6c1.4,0.5,2.5,0.9,3.1,1.4c0.6,0.5,1.1,1,1.4,1.7c0.3,0.7,0.4,1.5,0.4,2.3
				c0,1-0.2,1.9-0.6,2.8c-0.4,0.8-0.9,1.5-1.6,1.9c-0.7,0.4-1.5,0.7-2.6,0.7c-1.8,0-3.1-0.5-3.8-1.5
				C784.9,371.7,784.5,370.4,784.4,368.9z"/>
			<path class="st0" d="M795.8,358.4h3.3V374h-3.3V358.4z"/>
			<path class="st0" d="M801.5,358.4h4.3l1.7,9.5l1.7-9.5h4.3V374h-2.7v-11.9l-2.1,11.9h-2.4l-2.1-11.9V374h-2.7V358.4z"/>
			<path class="st0" d="M815.5,358.4h5.5c1.2,0,2.1,0.4,2.7,1.2c0.6,0.8,0.9,2,0.9,3.6c0,1.6-0.3,2.8-1,3.7c-0.6,0.9-1.6,1.3-3,1.3
				h-1.8v5.8h-3.3V358.4z M818.8,365.1h0.8c0.6,0,1.1-0.2,1.3-0.5c0.3-0.3,0.4-0.7,0.4-1.2c0-0.5-0.1-0.9-0.3-1.2
				c-0.2-0.3-0.6-0.5-1.3-0.5h-0.9V365.1z"/>
			<path class="st0" d="M826.2,358.4h3.3v11.8h5.1v3.9h-8.4V358.4z"/>
			<path class="st0" d="M836.1,358.4h8.8v3.3h-5.5v2.5h5.1v3.2h-5.1v3.1h5.7v3.5h-9V358.4z"/>
		</g>
		<g>
			<path class="st0" d="M785.4,394.6v-15.6h5.5c1,0,1.8,0.1,2.3,0.4c0.5,0.3,1,0.7,1.3,1.4c0.3,0.7,0.5,1.5,0.5,2.5
				c0,0.9-0.1,1.6-0.4,2.2c-0.3,0.6-0.6,1.1-1,1.5c-0.3,0.2-0.7,0.5-1.2,0.6c0.4,0.2,0.7,0.4,0.9,0.6c0.1,0.1,0.3,0.4,0.5,0.8
				c0.2,0.4,0.4,0.7,0.5,1l1.6,4.5h-3.7l-1.8-4.8c-0.2-0.6-0.4-1-0.6-1.2c-0.2-0.2-0.5-0.4-0.8-0.4h-0.3v6.3H785.4z M788.7,385.3
				h1.4c0.1,0,0.4-0.1,0.9-0.2c0.2-0.1,0.4-0.2,0.5-0.5s0.2-0.6,0.2-0.9c0-0.5-0.1-0.9-0.3-1.2c-0.2-0.3-0.6-0.4-1.2-0.4h-1.4V385.3
				z"/>
			<path class="st0" d="M796.9,378.9h8.8v3.3h-5.5v2.5h5.1v3.2h-5.1v3.1h5.7v3.5h-9V378.9z"/>
			<path class="st0" d="M814.2,392h-3.7l-0.5,2.6h-3.4l4-15.6h3.6l4,15.6h-3.4L814.2,392z M813.5,388.6l-1.2-5.6l-1.2,5.6H813.5z"/>
			<path class="st0" d="M826,388.2l2.9,1.3c-0.2,1.2-0.5,2.2-0.9,3c-0.4,0.8-0.9,1.4-1.5,1.8c-0.6,0.4-1.4,0.6-2.4,0.6
				c-1.2,0-2.1-0.2-2.8-0.7c-0.7-0.5-1.4-1.4-1.9-2.6c-0.5-1.2-0.8-2.8-0.8-4.8c0-2.6,0.5-4.6,1.4-6c0.9-1.4,2.3-2.1,4-2.1
				c1.3,0,2.4,0.4,3.2,1.2s1.3,2,1.7,3.7l-2.9,0.9c-0.1-0.5-0.2-0.8-0.3-1c-0.2-0.4-0.4-0.7-0.7-0.9c-0.3-0.2-0.6-0.3-0.9-0.3
				c-0.7,0-1.3,0.4-1.7,1.3c-0.3,0.7-0.5,1.7-0.5,3.1c0,1.7,0.2,2.9,0.5,3.6c0.4,0.6,0.9,1,1.5,1c0.6,0,1.1-0.3,1.4-0.8
				C825.7,389.9,825.9,389.2,826,388.2z"/>
			<path class="st0" d="M829.8,378.9h10v3.9h-3.4v11.8h-3.3v-11.8h-3.4V378.9z"/>
		</g>
	</g>
</g>
<g>
	<rect x="820.7" y="427.6" class="st1" width="188.5" height="90.6"/>
	<g>
		<path class="st1" d="M886.7,505.3C886.7,505.3,886.7,505.3,886.7,505.3c0,0.1,0,0.1,0,0.1C886.7,505.4,886.7,505.4,886.7,505.3
			C886.7,505.3,886.7,505.3,886.7,505.3z"/>
		<path class="st1" d="M887.2,505.2c0,0-0.1,0-0.1,0.1c0,0.1,0,0.1,0.1,0.1c0,0,0.1,0,0.1-0.1C887.2,505.2,887.2,505.2,887.2,505.2z
			"/>
		<polygon class="st1" points="892.8,505.4 892.8,505.3 892.7,505.3 		"/>
		<path class="st1" d="M896.1,505.4L896.1,505.4c0.1,0,0.1,0,0.1-0.1l0-0.1c0,0,0,0,0,0c0,0,0,0,0,0v0c0,0,0-0.1-0.1-0.1
			c0,0-0.1-0.1-0.1-0.1V505.4z"/>
		<rect x="896.1" y="505.3" class="st1" width="0.1" height="0.1"/>
		<path class="st1" d="M896.4,505.3C896.3,505.3,896.3,505.3,896.4,505.3c0,0.1,0,0.1,0,0.1C896.4,505.4,896.4,505.4,896.4,505.3
			C896.4,505.3,896.4,505.3,896.4,505.3z"/>
		<path class="st1" d="M897.1,505.1C897.1,505.1,897.1,505.1,897.1,505.1c0-0.1,0-0.1,0-0.1l0,0c0,0,0,0,0,0c0,0,0,0,0,0
			c0,0,0-0.1,0.1-0.1c0,0,0.1-0.1,0.1-0.1c0,0,0,0,0.1,0c0,0,0.1,0,0.1,0c0,0,0,0,0,0c0,0,0,0,0,0c0,0,0,0.1,0,0.1c0,0,0,0.1,0,0.1
			c0,0,0,0-0.1,0c-0.1,0-0.1,0-0.1,0c0,0-0.1,0-0.1,0.1C897.2,505,897.2,505.1,897.1,505.1C897.2,505.1,897.2,505.1,897.1,505.1
			L897.1,505.1L897.1,505.1c0.1,0.1,0.1,0.1,0.1,0.2c0,0.1,0,0.1,0,0.1h0h0c0,0,0,0,0-0.1C897.1,505.3,897.1,505.3,897.1,505.1
			C897.1,505.2,897.1,505.2,897.1,505.1C897.1,505.2,897.1,505.2,897.1,505.1z"/>
		<rect x="905.4" y="505.3" class="st1" width="0.1" height="0.1"/>
		<path class="st1" d="M905.7,505.4C905.7,505.3,905.7,505.3,905.7,505.4C905.6,505.3,905.6,505.3,905.7,505.4
			C905.6,505.4,905.6,505.4,905.7,505.4C905.7,505.4,905.7,505.4,905.7,505.4z"/>
		<path class="st1" d="M905.9,504.9c-0.1,0-0.2,0-0.2,0.1c0,0.1,0,0.1,0,0.2c0,0.1,0.1,0.1,0.2,0.2c0.1,0.1,0.2,0.1,0.3,0.1
			c0,0,0,0,0-0.1c0-0.1-0.1-0.1-0.1-0.2C906.1,505.1,906,505,905.9,504.9C906,504.9,905.9,504.9,905.9,504.9z"/>
		<path class="st1" d="M905.8,505.2C905.8,505.2,905.8,505.3,905.8,505.2c0,0.1,0,0.2,0,0.2C905.8,505.4,905.9,505.4,905.8,505.2
			C905.9,505.3,905.8,505.2,905.8,505.2z"/>
		<path class="st1" d="M906,505.2c0,0.1,0,0.2,0.1,0.2c0,0,0,0,0,0C906.1,505.3,906.1,505.3,906,505.2
			C906.1,505.2,906.1,505.2,906,505.2L906,505.2z"/>
		<path class="st1" d="M906.4,504.8c0,0-0.1,0.1-0.2,0.2c-0.1,0.1-0.1,0.2-0.1,0.2l0.4,0.2L906.4,504.8z"/>
		<polygon class="st1" points="907.3,505.4 907.3,505.3 907.3,505.3 		"/>
		<path class="st1" d="M907.7,505.3c-0.1,0-0.1,0-0.1,0.1L907.7,505.3C907.7,505.3,907.7,505.3,907.7,505.3z"/>
		<path class="st1" d="M908.1,505.3C908.1,505.3,908.1,505.3,908.1,505.3C908.1,505.4,908.1,505.4,908.1,505.3
			C908.1,505.4,908.1,505.4,908.1,505.3C908.1,505.3,908.1,505.3,908.1,505.3z"/>
		<path class="st1" d="M908.2,505.2C908.1,505.2,908.1,505.3,908.2,505.2c0,0.1,0,0.2,0,0.2C908.2,505.4,908.2,505.4,908.2,505.2
			C908.2,505.3,908.2,505.2,908.2,505.2z"/>
		<path class="st1" d="M909.2,505.2c0,0-0.1,0-0.1,0.1c0,0-0.1,0.1-0.1,0.1h0.1C909.1,505.4,909.2,505.3,909.2,505.2z"/>
		<polygon class="st1" points="912.4,505.4 912.4,505.4 912.4,505.3 		"/>
		<path class="st1" d="M912.5,505c0,0,0,0.1,0,0.2c0,0.1,0,0.1,0,0.1c0,0,0,0.1,0,0.1c0,0,0,0.1,0,0.1v-0.6c0,0,0,0-0.1-0.1h0h0
			c0,0,0,0,0,0.1C912.6,504.8,912.5,504.9,912.5,505L912.5,505L912.5,505z"/>
		<polygon class="st1" points="912.8,505.4 912.9,505.3 912.8,505.2 912.8,505.3 		"/>
		<path class="st1" d="M913.2,505.3C913.2,505.3,913.1,505.3,913.2,505.3C913.1,505.4,913.2,505.4,913.2,505.3
			C913.2,505.4,913.2,505.4,913.2,505.3C913.2,505.3,913.2,505.3,913.2,505.3z"/>
		<path class="st1" d="M913.2,504.7C913.2,504.8,913.2,504.8,913.2,504.7c0,0.1,0,0.1,0,0.1c0,0,0,0.1,0,0.1c0,0,0,0.1,0,0.2
			c0,0.1,0,0.1,0,0.2l0.1,0.1c0,0,0-0.1,0-0.1c0-0.1,0-0.1,0-0.1V505v-0.2l0,0c0,0,0,0,0,0c0,0,0,0,0,0
			C913.3,504.7,913.3,504.7,913.2,504.7L913.2,504.7C913.2,504.7,913.2,504.7,913.2,504.7L913.2,504.7z"/>
		<polygon class="st1" points="913.8,505.4 913.9,505.4 913.9,505.3 		"/>
		<path class="st1" d="M914.4,505.2C914.4,505.2,914.3,505.3,914.4,505.2c-0.1,0.1,0,0.2,0,0.2S914.4,505.4,914.4,505.2
			C914.4,505.3,914.4,505.2,914.4,505.2z"/>
		<ellipse class="st1" cx="915.2" cy="505.3" rx="0" ry="0.1"/>
		<rect x="915.2" y="505.2" class="st1" width="0.1" height="0.2"/>
		<path class="st1" d="M916.1,505.2C916.1,505.2,916,505.3,916.1,505.2c0,0.1,0,0.2,0,0.2C916.1,505.4,916.1,505.4,916.1,505.2
			C916.1,505.3,916.1,505.2,916.1,505.2z"/>
		<g>
			<g>
				<g>
					<path class="st3" d="M948.2,471.9h-25.4c-1.6,0-2.9-1.3-2.9-2.9v-25.4c0-1.6,1.3-2.9,2.9-2.9h25.4c1.6,0,2.9,1.3,2.9,2.9v25.4
						C951.1,470.5,949.8,471.9,948.2,471.9z"/>
					<path class="st4" d="M946.6,470.6h-23.8c-1.6,0-2.9-1.3-2.9-2.9v-23.8c0-1.6,1.3-2.9,2.9-2.9h23.8c1.6,0,2.9,1.3,2.9,2.9v23.8
						C949.5,469.3,948.2,470.6,946.6,470.6z"/>
				</g>
				<text transform="matrix(0.68 0 0 1 926.7439 463.7284)" class="st0" style="font-family:'Arial-Black'; font-size:27.1818px;">w</text>
			</g>
			<g>
				<g>
					<path class="st3" d="M921.9,505.3h-25.8c-1.6,0-2.9-1.3-2.9-2.9v-25.8c0-1.6,1.3-2.9,2.9-2.9h25.8c1.6,0,2.9,1.3,2.9,2.9v25.8
						C924.8,503.9,923.5,505.3,921.9,505.3z"/>
					<path class="st4" d="M919.6,503.3h-23.8c-1.6,0-2.9-1.3-2.9-2.9v-23.8c0-1.6,1.3-2.9,2.9-2.9h23.8c1.6,0,2.9,1.3,2.9,2.9v23.8
						C922.6,502,921.3,503.3,919.6,503.3z"/>
				</g>
				<text transform="matrix(0.68 0 0 1 902.698 496.9305)" class="st0" style="font-family:'Arial-Black'; font-size:27.1818px;">a</text>
			</g>
			<g>
				<g>
					<path class="st3" d="M954.7,505.4h-25.5c-1.6,0-2.9-1.3-2.9-2.9v-26.1c0-1.6,1.3-2.9,2.9-2.9h25.5c1.6,0,2.9,1.3,2.9,2.9v26.1
						C957.6,504.1,956.3,505.4,954.7,505.4z"/>
					<path class="st4" d="M953,503.4h-23.8c-1.6,0-2.9-1.3-2.9-2.9v-23.8c0-1.6,1.3-2.9,2.9-2.9H953c1.6,0,2.9,1.3,2.9,2.9v23.8
						C955.9,502.1,954.6,503.4,953,503.4z"/>
				</g>
				<text transform="matrix(0.68 0 0 1 936.2644 496.9305)" class="st0" style="font-family:'Arial-Black'; font-size:27.1818px;">s</text>
			</g>
			<g>
				<g>
					<path class="st3" d="M988.1,505.4h-26c-1.6,0-2.9-1.3-2.9-2.9v-26c0-1.6,1.3-2.9,2.9-2.9h26c1.6,0,2.9,1.3,2.9,2.9v26
						C991,504.1,989.7,505.4,988.1,505.4z"/>
					<path class="st4" d="M985.6,503.4h-23.8c-1.6,0-2.9-1.3-2.9-2.9v-23.8c0-1.6,1.3-2.9,2.9-2.9h23.8c1.6,0,2.9,1.3,2.9,2.9v23.8
						C988.6,502.1,987.3,503.4,985.6,503.4z"/>
				</g>
				<text transform="matrix(0.68 0 0 1 968.7888 496.9305)" class="st0" style="font-family:'Arial-Black'; font-size:27.1818px;">d</text>
			</g>
		</g>
		<g>
			<path class="st0" d="M852.2,505.1h-4.5v-2.4c-0.7,1-1.4,1.7-2,2.1c-0.7,0.4-1.5,0.6-2.5,0.6c-1.3,0-2.4-0.5-3.1-1.4
				c-0.8-0.9-1.1-2.4-1.1-4.4v-9.5h4.9v8.2c0,0.9,0.1,1.6,0.4,2c0.3,0.4,0.7,0.6,1.2,0.6c0.6,0,1.1-0.3,1.4-0.8
				c0.4-0.5,0.6-1.5,0.6-2.8v-7.2h4.8V505.1z"/>
			<path class="st0" d="M854.3,500.9l4.8-0.5c0.2,0.7,0.5,1.2,0.8,1.5c0.4,0.3,0.8,0.4,1.4,0.4c0.6,0,1.2-0.2,1.5-0.5
				c0.3-0.2,0.4-0.5,0.4-0.9c0-0.4-0.2-0.7-0.5-1c-0.3-0.2-1-0.4-2.1-0.6c-1.7-0.3-2.8-0.7-3.5-1s-1.2-0.8-1.6-1.5
				c-0.4-0.7-0.7-1.5-0.7-2.4c0-1,0.2-1.8,0.7-2.6c0.5-0.7,1.1-1.2,2-1.6s2-0.5,3.4-0.5c1.5,0,2.6,0.1,3.3,0.4
				c0.7,0.3,1.3,0.7,1.8,1.3c0.5,0.6,0.9,1.3,1.2,2.3l-4.6,0.5c-0.1-0.5-0.3-0.8-0.6-1.1c-0.4-0.3-0.8-0.5-1.4-0.5
				c-0.5,0-0.9,0.1-1.2,0.3c-0.2,0.2-0.4,0.5-0.4,0.8c0,0.4,0.2,0.6,0.5,0.8s1,0.4,2.1,0.5c1.6,0.2,2.8,0.5,3.6,0.9
				c0.8,0.4,1.4,0.9,1.8,1.6s0.6,1.5,0.6,2.4c0,0.9-0.2,1.7-0.7,2.5c-0.4,0.8-1.1,1.5-2.1,2c-0.9,0.5-2.2,0.7-3.9,0.7
				c-2.3,0-3.9-0.4-4.9-1.2C855.2,503.5,854.6,502.3,854.3,500.9z"/>
			<path class="st0" d="M884,499h-9.7c0.1,0.9,0.3,1.6,0.6,2.1c0.5,0.6,1.1,1,1.8,1c0.5,0,0.9-0.1,1.4-0.4c0.3-0.2,0.5-0.5,0.8-0.9
				l4.8,0.5c-0.7,1.5-1.6,2.6-2.6,3.2s-2.5,1-4.4,1c-1.7,0-3-0.3-3.9-0.8c-1-0.6-1.8-1.4-2.4-2.7c-0.6-1.2-0.9-2.6-0.9-4.3
				c0-2.3,0.6-4.2,1.9-5.7c1.3-1.4,3-2.2,5.2-2.2c1.8,0,3.2,0.3,4.3,1c1,0.6,1.8,1.6,2.4,2.8s0.8,2.8,0.8,4.8V499z M879.1,496.3
				c-0.1-1.1-0.3-1.9-0.8-2.4c-0.4-0.5-0.9-0.7-1.6-0.7c-0.8,0-1.4,0.4-1.8,1.1c-0.3,0.5-0.5,1.1-0.6,2H879.1z"/>
		</g>
	</g>
</g>
<g>
	<path class="st0" d="M1181.5,82.5c-1.5-1.8-3.3-3.3-5.2-4.7c-4.9-3.6-10.5-5.8-16.2-7.6c-2.3-0.7-2.1-0.7-1.8-3.1
		c0.7-5.2,1.4-10.3,1.7-15.5c0.2-3.6-0.6-7.2-2.2-10.5c-2.6-5.6-7.6-8.3-13.7-7.7c-4.8,0.5-9,2.5-12.9,5.2
		c-3.8,2.7-7.5,5.7-11.3,8.6c-3.1-2.5-6.3-5.2-9.7-7.6c-3.8-2.8-7.9-5-12.6-5.9c-7.6-1.6-13.6,1.7-16.2,9c-0.7,2-1.1,4.1-1.4,6.1
		c-0.7,6.1,0.1,12.2,1.5,18.2c0.6,3,0.5,2.4-1.8,3.1c-6.9,2.2-13.5,4.9-19,9.9c-7.7,7-7.7,15.6,0,22.5c1.4,1.2,2.8,2.5,4.5,3.3
		c4.3,2.2,8.6,4.1,13,6c1.1,0.5,2.5,0.8,3.8,1.2c-0.2,0.8-0.4,1.5-0.4,2.2c-0.6,5.1-1.4,10.2-1.7,15.3c-0.2,3.8,0.6,7.7,2.4,11.1
		c2.7,5.3,7.7,8.2,13.6,7.2c3.2-0.5,6.5-1.5,9.2-3.1c4.7-2.8,8.9-6.4,13.4-9.7c0.5-0.4,0.9-0.8,1.1-0.9c4.5,3.3,8.6,6.5,12.9,9.6
		c3.3,2.3,7.1,3.7,11.1,4.3c6.3,0.8,11.6-2,14-7.9c1-2.4,1.7-5,2-7.6c0.7-6.1-0.2-12.2-1.5-18.2c-0.2-0.7-0.3-1.5-0.4-2.3
		c0.7-0.2,1.4-0.4,1.9-0.6c4.4-1.9,9-3.4,13.2-5.7c3.2-1.8,6.2-4.2,8.6-7C1186.2,94.6,1186,87.9,1181.5,82.5L1181.5,82.5z
		 M1141.4,39.8c0.8-0.3,1.6-0.5,2.4-0.6c4.9-0.8,8.1,1,9.7,5.8c1.7,4.9,1.2,10,0.6,15c-0.3,2.4-0.9,4.7-1.4,7.1
		c-0.2,0.9-0.6,1.1-1.5,0.9c-5.1-0.8-10.2-1.6-15.3-2.4c-0.5-0.1-1.1-0.4-1.5-0.8c-3.4-4.3-6.9-8.6-10.4-13.2
		C1129.2,46.7,1134.5,42.2,1141.4,39.8L1141.4,39.8z M1093.2,97.9c2.7,4.7,5.1,8.8,7.8,13.4c-4.2-0.7-7.9-1.4-11.9-2.1
		C1090.5,105.4,1091.7,101.9,1093.2,97.9L1093.2,97.9z M1093,84.2c-1.2-3.5-2.6-7.1-3.9-10.9c4.1-0.7,7.8-1.4,11.9-2.1
		c-2.6,4.6-5,8.7-7.5,12.9C1093.3,84.2,1093.2,84.2,1093,84.2L1093,84.2z M1096.9,92.5c-0.3-0.6-0.4-1.8,0-2.4
		c3.4-6.1,7-12.3,10.6-18.4c0.3-0.6,1.2-1.1,2-1.1c3.5-0.1,7.1,0,10.6,0l0,0c3.4,0,7-0.1,10.4,0c0.7,0,1.8,0.5,2.2,1.1
		c3.6,6,7.2,12.2,10.6,18.4c0.3,0.6,0.3,1.8,0,2.4c-3.4,6.1-7,12.2-10.5,18.2c-0.4,0.6-1.4,1.2-2.1,1.2c-7,0.1-14,0.1-21,0
		c-0.7,0-1.8-0.6-2.1-1.2C1103.9,104.7,1100.3,98.7,1096.9,92.5L1096.9,92.5z M1146.9,97.9c1.5,3.9,2.7,7.5,4.2,11.3
		c-4.1,0.7-7.7,1.4-11.4,2.1c-0.1-0.2-0.1-0.3-0.2-0.5C1141.9,106.7,1144.3,102.5,1146.9,97.9z M1139.2,71.4c4.2,0.7,7.8,1.4,11.9,2
		c-1.5,3.8-2.7,7.4-4.2,11.4C1144.3,80.2,1141.9,75.9,1139.2,71.4L1139.2,71.4z M1120,55.6c2.6,3,5,5.9,7.7,9.1h-15.3
		C1115.1,61.6,1117.5,58.7,1120,55.6z M1085.9,48c1.2-8,5.9-10.8,13.5-8c6.5,2.4,11.6,6.9,16.7,11.6c-0.3,0.5-0.6,0.8-0.8,1.1
		c-3.1,3.8-6.1,7.7-9.2,11.4c-0.5,0.6-1.4,1.1-2.2,1.4c-5,0.8-10,1.6-14.9,2.4c-0.8,0.1-1.4,0.1-1.6-0.8
		C1086,60.8,1084.9,54.4,1085.9,48L1085.9,48z M1084.2,106.4c-0.3,0.9-0.6,1.5-1.8,1c-5.1-1.6-10.1-3.4-14.5-6.4
		c-1.9-1.4-3.7-2.9-5.2-4.7c-1.1-1.4-1.7-3.2-2.5-5.1c0.8-1.9,1.4-3.7,2.5-5c1.8-2,3.7-3.8,5.9-5.1c4.4-2.3,9-4.1,13.6-6
		c1-0.4,1.6-0.1,2,0.9c1.8,4.7,3.5,9.2,5.3,13.9c0.2,0.7,0.2,1.7,0,2.3C1087.8,97.1,1086,101.8,1084.2,106.4L1084.2,106.4z
		 M1097.9,143.1c-6.1,1.9-10.2-0.5-11.6-6.8c-1.5-6-0.6-12,0.5-18c0.7-3.8,0.7-3.7,4.7-3.1c3.8,0.7,7.8,1.2,11.7,1.8
		c1.2,0.2,2.2,0.6,3,1.7c3.1,4.2,6.4,8.2,9.9,12.5C1110.6,136.2,1105.1,141,1097.9,143.1L1097.9,143.1z M1112.4,118h15.3
		c-2.6,3.1-5,6-7.6,9.1C1117.5,124,1115.1,121.1,1112.4,118L1112.4,118z M1154.2,134.6c-1.2,8.1-5.9,10.9-13.6,8.1
		c-5-1.8-13.3-7.7-16.5-11.7c2.5-3.1,5.3-5.8,7.4-9.1c2.3-3.6,5.1-5.2,9.3-5.3c3.3-0.1,6.8-1,10.1-1.7c0.8-0.1,1.6-0.5,1.9,0.8
		C1154,121.9,1155.2,128.2,1154.2,134.6L1154.2,134.6z M1177,96.8c-1.8,1.9-3.8,3.7-6.1,4.9c-4.2,2.2-8.6,3.7-13,5.6
		c-1.2,0.5-1.8,0-2.2-1.1c-1.7-4.6-3.5-9-5.2-13.6c-0.3-0.7-0.3-1.8,0-2.5c1.7-4.6,3.5-9.1,5.2-13.7c0.3-0.8,0.5-1.6,1.7-1.2
		c5.8,1.9,11.4,3.9,16.3,7.7c1.5,1.1,2.9,2.5,3.9,4.1c0.9,1.2,1.2,2.9,2,4.7C1178.9,93.4,1178.2,95.5,1177,96.8L1177,96.8z
		 M1120.1,72.4c-10.5,0-19,8.5-19,19s8.5,19,19,19s19-8.5,19-19S1130.6,72.4,1120.1,72.4L1120.1,72.4z M1122.6,88.3l1.6-1.6l2.9,2.9
		l2.9-2.9l1.6,1.6l-2.9,2.9l2.9,2.9l-1.6,1.6l-2.9-2.9l-2.9,2.9l-1.6-1.6l2.9-2.9L1122.6,88.3z M1108.5,88.3l1.6-1.6l2.9,2.9
		l2.9-2.9l1.6,1.6l-2.9,2.9l2.9,2.9l-1.6,1.6l-2.9-2.9l-2.9,2.9l-1.6-1.6l2.9-2.9L1108.5,88.3z M1129.7,102.2
		c-5.7,3-12.5,3.1-18.3,0.4l-3-1.5c-0.6-0.3-0.8-1.1-0.3-1.7l1.4-1.5l1.9,0.9c6.1,3,13.3,3.2,19.5,0.4h0.1l1.2,1.5L1129.7,102.2
		L1129.7,102.2z"/>
	<g>
		<g>
			<path class="st0" d="M1209.3,45.7h7.9c1.6,0,2.8,0.3,3.8,0.9c1,0.6,1.7,1.5,2.4,2.7c0.6,1.2,1.1,2.5,1.4,4
				c0.3,1.5,0.4,3.2,0.4,4.9c0,2.7-0.2,4.8-0.6,6.3c-0.4,1.5-1,2.7-1.7,3.7c-0.7,1-1.5,1.7-2.4,2c-1.2,0.5-2.2,0.7-3.2,0.7h-7.9
				V45.7z M1214.6,51.5v13.8h1.3c1.1,0,1.9-0.2,2.4-0.5c0.5-0.4,0.8-1,1.1-1.9c0.3-0.9,0.4-2.4,0.4-4.4c0-2.7-0.3-4.5-0.9-5.5
				c-0.6-1-1.6-1.5-3-1.5H1214.6z"/>
			<path class="st0" d="M1227.9,45.7h14.2v5.4h-8.9v4h8.3v5.2h-8.3v5h9.2V71h-14.5V45.7z"/>
			<path class="st0" d="M1255.8,66.8h-6l-0.8,4.2h-5.4l6.5-25.3h5.8l6.5,25.3h-5.6L1255.8,66.8z M1254.7,61.4l-1.9-9.1l-1.9,9.1
				H1254.7z"/>
			<path class="st0" d="M1263.9,45.7h7.9c1.6,0,2.8,0.3,3.8,0.9c1,0.6,1.7,1.5,2.4,2.7c0.6,1.2,1.1,2.5,1.4,4
				c0.3,1.5,0.4,3.2,0.4,4.9c0,2.7-0.2,4.8-0.6,6.3c-0.4,1.5-1,2.7-1.7,3.7c-0.7,1-1.5,1.7-2.4,2c-1.2,0.5-2.2,0.7-3.2,0.7h-7.9
				V45.7z M1269.2,51.5v13.8h1.3c1.1,0,1.9-0.2,2.4-0.5c0.5-0.4,0.8-1,1.1-1.9c0.3-0.9,0.4-2.4,0.4-4.4c0-2.7-0.3-4.5-0.9-5.5
				c-0.6-1-1.6-1.5-3-1.5H1269.2z"/>
		</g>
		<g>
			<path class="st0" d="M1208.3,94.8l5-0.5c0.1,1.2,0.3,2.1,0.7,2.8c0.5,1,1.3,1.5,2.3,1.5c0.8,0,1.3-0.3,1.8-0.8
				c0.4-0.5,0.6-1.1,0.6-1.8c0-0.7-0.2-1.2-0.6-1.8c-0.4-0.5-1.3-1-2.7-1.5c-2.3-0.8-4-1.8-5-3.1c-1-1.3-1.5-2.9-1.5-4.9
				c0-1.3,0.3-2.5,0.8-3.7s1.3-2.1,2.3-2.7c1-0.7,2.4-1,4.2-1c2.2,0,3.9,0.6,5,1.8c1.2,1.2,1.8,3.1,2.1,5.7l-5,0.4
				c-0.1-1.1-0.4-2-0.8-2.5c-0.4-0.5-1-0.8-1.8-0.8c-0.6,0-1.1,0.2-1.4,0.6c-0.3,0.4-0.5,0.9-0.5,1.4c0,0.4,0.1,0.8,0.4,1.1
				c0.3,0.3,0.8,0.6,1.8,0.9c2.3,0.7,4,1.5,5,2.2c1,0.8,1.7,1.7,2.2,2.8c0.5,1.1,0.7,2.4,0.7,3.7c0,1.6-0.3,3.1-0.9,4.5
				c-0.6,1.4-1.5,2.4-2.6,3.1s-2.5,1.1-4.1,1.1c-2.9,0-4.9-0.8-6.1-2.5C1209.1,99.5,1208.5,97.4,1208.3,94.8z"/>
			<path class="st0" d="M1226.8,78h5.3v25.3h-5.3V78z"/>
			<path class="st0" d="M1235.8,78h7l2.7,15.4l2.7-15.4h7v25.3h-4.3V83.9l-3.3,19.3h-3.9l-3.3-19.3v19.3h-4.3V78z"/>
			<path class="st0" d="M1258.5,78h8.8c1.9,0,3.4,0.7,4.3,2c1,1.3,1.4,3.3,1.4,5.7c0,2.5-0.5,4.5-1.6,6c-1,1.4-2.6,2.2-4.8,2.2h-2.9
				v9.4h-5.3V78z M1263.8,88.7h1.3c1,0,1.7-0.3,2.2-0.8c0.4-0.5,0.6-1.2,0.6-2c0-0.8-0.2-1.5-0.5-2c-0.4-0.6-1-0.8-2-0.8h-1.5V88.7z
				"/>
			<path class="st0" d="M1275.8,78h5.3v19h8.3v6.2h-13.6V78z"/>
			<path class="st0" d="M1291.8,78h14.2v5.4h-8.9v4h8.3v5.2h-8.3v5h9.2v5.7h-14.5V78z"/>
		</g>
		<g>
			<path class="st0" d="M1209.9,136.4v-25.3h8.8c1.6,0,2.9,0.2,3.8,0.6c0.9,0.4,1.6,1.2,2.1,2.3c0.5,1.1,0.8,2.5,0.8,4.1
				c0,1.4-0.2,2.6-0.6,3.6c-0.4,1-1,1.8-1.7,2.5c-0.5,0.4-1.1,0.7-1.9,1c0.6,0.3,1.1,0.6,1.4,0.9c0.2,0.2,0.5,0.6,0.8,1.3
				c0.4,0.7,0.6,1.2,0.7,1.6l2.6,7.3h-6l-2.8-7.7c-0.4-1-0.7-1.6-1-1.9c-0.4-0.4-0.8-0.6-1.3-0.6h-0.5v10.2H1209.9z M1215.3,121.3
				h2.2c0.2,0,0.7-0.1,1.4-0.3c0.4-0.1,0.6-0.4,0.9-0.8c0.2-0.4,0.3-0.9,0.3-1.5c0-0.8-0.2-1.4-0.5-1.9c-0.4-0.4-1-0.7-2-0.7h-2.3
				V121.3z"/>
			<path class="st0" d="M1228.5,111.1h14.2v5.4h-8.9v4h8.3v5.2h-8.3v5h9.2v5.7h-14.5V111.1z"/>
			<path class="st0" d="M1256.4,132.2h-6l-0.8,4.2h-5.4l6.5-25.3h5.8l6.5,25.3h-5.6L1256.4,132.2z M1255.3,126.7l-1.9-9.1l-1.9,9.1
				H1255.3z"/>
			<path class="st0" d="M1275.5,126l4.7,2.1c-0.3,1.9-0.8,3.5-1.5,4.8c-0.7,1.3-1.5,2.3-2.5,2.9c-1,0.7-2.3,1-3.8,1
				c-1.9,0-3.4-0.4-4.6-1.2c-1.2-0.8-2.2-2.2-3.1-4.2c-0.9-2-1.3-4.6-1.3-7.7c0-4.2,0.8-7.4,2.3-9.6c1.5-2.2,3.6-3.4,6.4-3.4
				c2.2,0,3.9,0.6,5.1,1.9s2.2,3.3,2.8,5.9l-4.7,1.5c-0.2-0.8-0.3-1.3-0.5-1.7c-0.3-0.6-0.7-1.1-1.1-1.4c-0.4-0.3-0.9-0.5-1.4-0.5
				c-1.2,0-2.1,0.7-2.8,2.1c-0.5,1.1-0.7,2.7-0.7,5c0,2.8,0.3,4.7,0.9,5.8c0.6,1,1.4,1.6,2.4,1.6c1,0,1.8-0.4,2.3-1.3
				C1274.9,128.8,1275.3,127.6,1275.5,126z"/>
			<path class="st0" d="M1281.5,111.1h16.1v6.2h-5.4v19h-5.3v-19h-5.4V111.1z"/>
		</g>
	</g>
</g>
<g>
	<path class="st1" d="M1200.7,315C1200.6,315,1200.6,315,1200.7,315c-0.1,0.2,0,0.2,0,0.2C1200.7,315.2,1200.7,315.1,1200.7,315
		C1200.7,315.1,1200.7,315,1200.7,315z"/>
	<path class="st1" d="M1201.4,314.9c-0.1,0-0.1,0.1-0.1,0.2c0,0.1,0,0.2,0.1,0.2c0.1,0,0.1-0.1,0.1-0.2
		C1201.5,314.9,1201.5,314.9,1201.4,314.9z"/>
	<polygon class="st1" points="1210.5,315.2 1210.5,315 1210.3,315 	"/>
	<path class="st1" d="M1215.9,315.2l0.1,0c0.1,0,0.1,0,0.1-0.1l0-0.1c0,0,0,0,0,0c0,0,0,0,0,0v0c0,0,0-0.1-0.1-0.1
		c-0.1-0.1-0.1-0.1-0.1-0.1V315.2z"/>
	<rect x="1215.9" y="315.1" class="st1" width="0.1" height="0.1"/>
	<path class="st1" d="M1216.3,315C1216.2,315,1216.2,315.1,1216.3,315c-0.1,0.2,0,0.2,0,0.2S1216.3,315.2,1216.3,315
		C1216.3,315.1,1216.3,315,1216.3,315z"/>
	<path class="st1" d="M1217.5,314.8C1217.5,314.8,1217.5,314.8,1217.5,314.8c0-0.1,0-0.2,0-0.2l0,0c0,0,0,0,0,0c0,0,0,0,0,0
		c0,0,0.1-0.1,0.1-0.1c0.1-0.1,0.1-0.1,0.1-0.1c0,0,0,0,0.1-0.1c0.1,0,0.1,0,0.2,0c0,0,0,0,0.1,0c0,0,0,0,0.1,0c0,0.1,0,0.1,0,0.2
		c0,0.1,0,0.1-0.1,0.1c0,0-0.1,0-0.2,0.1c-0.1,0-0.1,0.1-0.1,0.1c-0.1,0-0.1,0-0.2,0.1c0,0,0,0-0.1,0.1
		C1217.6,314.7,1217.6,314.7,1217.5,314.8L1217.5,314.8L1217.5,314.8c0.1,0.1,0.1,0.2,0.1,0.3c0,0.1,0,0.1,0.1,0.2h0h-0.1
		c0,0,0-0.1,0-0.1c0-0.1,0-0.1,0-0.1C1217.5,314.9,1217.5,314.9,1217.5,314.8C1217.5,314.9,1217.5,314.8,1217.5,314.8z"/>
	<rect x="1230.9" y="315.1" class="st1" width="0.1" height="0.1"/>
	<path class="st1" d="M1231.3,315.2C1231.3,315.1,1231.3,315.1,1231.3,315.2c-0.1-0.1-0.1,0-0.1,0
		C1231.2,315.2,1231.3,315.2,1231.3,315.2C1231.3,315.2,1231.3,315.2,1231.3,315.2z"/>
	<path class="st1" d="M1231.7,314.4c-0.2,0-0.3,0-0.3,0.1c0,0.1,0,0.2,0,0.3c0.1,0.1,0.2,0.2,0.3,0.3c0.2,0.1,0.3,0.1,0.6,0.1
		c0,0,0,0,0-0.1c0-0.1-0.1-0.2-0.2-0.3c-0.1-0.1-0.1-0.2-0.2-0.3C1231.8,314.5,1231.7,314.4,1231.7,314.4z"/>
	<path class="st1" d="M1231.5,314.9c0,0-0.1,0-0.1,0.1s0,0.1,0.1,0.1c0.1,0,0.1,0,0.1-0.1S1231.6,314.9,1231.5,314.9z"/>
	<path class="st1" d="M1231.9,314.9c0,0.1,0,0.2,0.1,0.3c0,0,0,0,0-0.1c0,0,0-0.1,0-0.1c0-0.1,0-0.2-0.1-0.3V314.9z"/>
	<path class="st1" d="M1232.5,314.3c0,0-0.1,0.1-0.3,0.3c-0.1,0.2-0.2,0.3-0.2,0.3l0.7,0.3L1232.5,314.3z"/>
	<polygon class="st1" points="1233.9,315.2 1234,315.1 1233.9,315.1 	"/>
	<path class="st1" d="M1234.6,315.1c-0.1,0-0.2,0.1-0.2,0.2h0.3C1234.7,315.1,1234.6,315.1,1234.6,315.1z"/>
	<path class="st1" d="M1235.2,315.1C1235.2,315,1235.2,315.1,1235.2,315.1c0,0.1,0,0.2,0,0.2
		C1235.3,315.2,1235.3,315.2,1235.2,315.1C1235.3,315.1,1235.3,315.1,1235.2,315.1z"/>
	<path class="st1" d="M1235.3,314.9c0,0-0.1,0-0.1,0.1s0,0.1,0.1,0.1c0.1,0,0.1,0,0.1-0.1S1235.4,314.9,1235.3,314.9z"/>
	<path class="st1" d="M1237,314.9c-0.1,0-0.1,0-0.2,0.1c-0.1,0.1-0.1,0.1-0.2,0.2h0.1C1236.9,315.2,1237,315.1,1237,314.9z"/>
	<polygon class="st1" points="1242.1,315.2 1242.2,315.2 1242.2,315.1 	"/>
	<path class="st1" d="M1242.4,314.5c0,0.1,0,0.2,0.1,0.3c0,0.1,0,0.2,0.1,0.2c0,0,0,0.1,0.1,0.2c0,0.1,0.1,0.1,0.1,0.1v-1
		c0,0,0-0.1-0.1-0.1h0h0c0,0,0,0.1-0.1,0.1c0,0.1,0,0.1-0.1,0.1V314.5L1242.4,314.5z"/>
	<polygon class="st1" points="1242.8,315.2 1242.9,315.1 1242.8,315 1242.8,315.1 	"/>
	<path class="st1" d="M1243.4,315.1C1243.4,315.1,1243.4,315.1,1243.4,315.1c0,0.2,0,0.2,0,0.2
		C1243.4,315.2,1243.5,315.2,1243.4,315.1C1243.5,315.1,1243.4,315.1,1243.4,315.1z"/>
	<path class="st1" d="M1243.5,314.2C1243.5,314.2,1243.5,314.2,1243.5,314.2c0,0.1,0,0.2,0.1,0.2c0,0.1,0,0.1,0,0.1c0,0,0,0.1,0,0.3
		c0,0.2,0,0.2,0,0.3l0.1,0.1c0,0,0.1-0.1,0.1-0.2c0-0.1,0-0.2,0-0.2v-0.3v-0.3l0-0.1c0,0,0,0,0,0c0,0,0,0,0,0
		C1243.6,314.1,1243.6,314.1,1243.5,314.2L1243.5,314.2C1243.5,314.1,1243.5,314.1,1243.5,314.2L1243.5,314.2z"/>
	<polygon class="st1" points="1244.4,315.2 1244.5,315.2 1244.5,315.1 	"/>
	<path class="st1" d="M1245.4,314.9c-0.1,0-0.1,0-0.1,0.1c0,0.1,0,0.1,0.1,0.1c0.1,0,0.1,0,0.1-0.1
		C1245.5,315,1245.4,314.9,1245.4,314.9z"/>
	<ellipse class="st1" cx="1246.7" cy="315.1" rx="0.1" ry="0.1"/>
	<rect x="1246.7" y="314.9" class="st1" width="0.1" height="0.3"/>
	<path class="st1" d="M1248.1,315c0,0-0.1,0-0.1,0.1c0,0.1,0,0.1,0.1,0.1c0,0,0.1,0,0.1-0.1C1248.2,315,1248.2,315,1248.1,315z"/>
	<g>
		<g>
			<g>
				<path class="st3" d="M1301.7,261h-44.6c-1.6,0-2.9-1.3-2.9-2.9v-44.6c0-1.6,1.3-2.9,2.9-2.9h44.6c1.6,0,2.9,1.3,2.9,2.9v44.6
					C1304.7,259.7,1303.4,261,1301.7,261z"/>
				<path class="st4" d="M1299.2,259h-42c-1.6,0-2.9-1.3-2.9-2.9v-42c0-1.6,1.3-2.9,2.9-2.9h42c1.6,0,2.9,1.3,2.9,2.9v42
					C1302.1,257.7,1300.8,259,1299.2,259z"/>
			</g>
			<text transform="matrix(0.68 0 0 1 1265.3236 247.9209)" class="st0" style="font-family:'Arial-Black'; font-size:43.893px;">w</text>
		</g>
		<g>
			<g>
				<path class="st3" d="M1259.3,315h-45.2c-1.6,0-2.9-1.3-2.9-2.9v-45.2c0-1.6,1.3-2.9,2.9-2.9h45.2c1.6,0,2.9,1.3,2.9,2.9V312
					C1262.2,313.7,1260.9,315,1259.3,315z"/>
				<path class="st4" d="M1255.6,311.8h-42c-1.6,0-2.9-1.3-2.9-2.9v-42c0-1.6,1.3-2.9,2.9-2.9h42c1.6,0,2.9,1.3,2.9,2.9v42
					C1258.6,310.5,1257.3,311.8,1255.6,311.8z"/>
			</g>
			<text transform="matrix(0.68 0 0 1 1226.4945 301.5352)" class="st0" style="font-family:'Arial-Black'; font-size:43.893px;">a</text>
		</g>
		<g>
			<g>
				<path class="st3" d="M1312.2,315.2h-44.8c-1.6,0-2.9-1.3-2.9-2.9v-45.7c0-1.6,1.3-2.9,2.9-2.9h44.8c1.6,0,2.9,1.3,2.9,2.9v45.7
					C1315.1,313.9,1313.8,315.2,1312.2,315.2z"/>
				<path class="st4" d="M1309.5,312h-42c-1.6,0-2.9-1.3-2.9-2.9v-42c0-1.6,1.3-2.9,2.9-2.9h42c1.6,0,2.9,1.3,2.9,2.9v42
					C1312.4,310.7,1311.1,312,1309.5,312z"/>
			</g>
			<text transform="matrix(0.68 0 0 1 1280.6976 301.5352)" class="st0" style="font-family:'Arial-Black'; font-size:43.893px;">s</text>
		</g>
		<g>
			<g>
				<path class="st3" d="M1366.1,315.2h-45.6c-1.6,0-2.9-1.3-2.9-2.9v-45.6c0-1.6,1.3-2.9,2.9-2.9h45.6c1.6,0,2.9,1.3,2.9,2.9v45.6
					C1369.1,313.9,1367.8,315.2,1366.1,315.2z"/>
				<path class="st4" d="M1362.2,312h-42c-1.6,0-2.9-1.3-2.9-2.9v-42c0-1.6,1.3-2.9,2.9-2.9h42c1.6,0,2.9,1.3,2.9,2.9v42
					C1365.1,310.7,1363.8,312,1362.2,312z"/>
			</g>
			<text transform="matrix(0.68 0 0 1 1333.2172 301.5352)" class="st0" style="font-family:'Arial-Black'; font-size:43.893px;">d</text>
		</g>
	</g>
	<g>
		<path class="st0" d="M1145,314.7h-7.3v-3.9c-1.1,1.6-2.2,2.8-3.3,3.4c-1.1,0.7-2.5,1-4.1,1c-2.1,0-3.8-0.8-5.1-2.3
			c-1.2-1.5-1.8-3.9-1.8-7v-15.4h7.8v13.3c0,1.5,0.2,2.6,0.7,3.2c0.5,0.6,1.1,1,2,1c0.9,0,1.7-0.4,2.3-1.3c0.6-0.8,0.9-2.4,0.9-4.6
			v-11.6h7.8V314.7z"/>
		<path class="st0" d="M1148.3,308l7.7-0.9c0.3,1.1,0.8,1.9,1.3,2.3c0.6,0.5,1.3,0.7,2.3,0.7c1,0,1.9-0.3,2.4-0.8
			c0.4-0.4,0.7-0.9,0.7-1.5c0-0.7-0.3-1.2-0.9-1.5c-0.4-0.3-1.5-0.6-3.4-1c-2.7-0.6-4.6-1.1-5.6-1.6c-1.1-0.5-1.9-1.3-2.7-2.4
			c-0.7-1.1-1.1-2.4-1.1-3.9c0-1.6,0.4-3,1.2-4.1c0.8-1.2,1.9-2,3.2-2.6s3.2-0.9,5.5-0.9c2.4,0,4.2,0.2,5.4,0.7
			c1.2,0.4,2.1,1.1,2.9,2.1c0.8,0.9,1.4,2.2,1.9,3.8l-7.4,0.9c-0.2-0.8-0.5-1.3-1-1.7c-0.6-0.5-1.4-0.7-2.2-0.7
			c-0.9,0-1.5,0.2-1.9,0.6c-0.4,0.4-0.6,0.8-0.6,1.4c0,0.6,0.3,1,0.8,1.3c0.5,0.3,1.6,0.6,3.3,0.8c2.6,0.3,4.5,0.8,5.8,1.5
			c1.3,0.6,2.2,1.5,2.9,2.7c0.7,1.2,1,2.4,1,3.8c0,1.4-0.4,2.8-1.1,4.1c-0.7,1.3-1.8,2.4-3.4,3.2c-1.5,0.8-3.6,1.2-6.2,1.2
			c-3.7,0-6.4-0.6-7.9-1.9C1149.8,312.1,1148.8,310.3,1148.3,308z"/>
		<path class="st0" d="M1196.3,304.9h-15.6c0.1,1.5,0.5,2.6,1,3.3c0.8,1,1.7,1.6,3,1.6c0.8,0,1.5-0.2,2.2-0.7
			c0.4-0.3,0.9-0.8,1.4-1.5l7.7,0.8c-1.2,2.4-2.6,4.2-4.3,5.2c-1.7,1.1-4,1.6-7.1,1.6c-2.7,0-4.8-0.5-6.4-1.4
			c-1.5-0.9-2.8-2.3-3.8-4.3c-1-2-1.5-4.3-1.5-6.9c0-3.8,1-6.8,3.1-9.2c2-2.3,4.9-3.5,8.4-3.5c2.9,0,5.2,0.5,6.9,1.6
			c1.7,1,3,2.6,3.9,4.6c0.9,2,1.3,4.6,1.3,7.8V304.9z M1188.3,300.4c-0.2-1.8-0.6-3.1-1.2-3.8c-0.7-0.8-1.5-1.2-2.6-1.2
			c-1.2,0-2.2,0.6-3,1.8c-0.5,0.7-0.8,1.8-0.9,3.3H1188.3z"/>
	</g>
</g>
<text transform="matrix(1 0 0 1 1071.9111 311.0023)" style="font-family:'AdobeClean-Regular'; font-size:12px;">Lorem ipsum</text>
<rect x="756.6" y="129.4" class="st1" width="31.4" height="31.4"/>
<rect x="762.7" y="135.4" class="st5" width="19.2" height="19.2"/>
<rect x="764.3" y="137" class="st6" width="16.1" height="16.1"/>
<rect x="831.5" y="129.4" class="st1" width="31.4" height="31.4"/>
<image style="overflow:visible;" width="48" height="48" xlink:href="../../../../Downloads/linkedin (1).png"  transform="matrix(0.5665 0 0 0.5665 833.6287 131.4421)">
</image>
<rect x="794.4" y="129.4" class="st1" width="31.4" height="31.4"/>
<image style="overflow:visible;" width="48" height="48" xlink:href="../../../../Downloads/codepen.png"  transform="matrix(0.4995 0 0 0.4995 798.1037 133.0504)">
</image>
<rect x="756.6" y="163.5" class="st1" width="31.4" height="31.4"/>
<rect x="794.4" y="163.4" class="st1" width="31.4" height="31.4"/>
<image style="overflow:visible;" width="24" height="24" xlink:href="../../../../Downloads/youtube (1).png"  transform="matrix(0.988 0 0 0.988 798.2365 167.2241)">
</image>
<image style="overflow:visible;" width="48" height="48" xlink:href="../../../../Downloads/spotify.png"  transform="matrix(0.4815 0 0 0.4815 760.7457 167.6778)">
</image>
</svg>
